# Blender v2.75 (sub 0) OBJ File: 'chair.blend'
# www.blender.org
o Cylinder.005_Cylinder
v -0.350000 0.327309 -0.400000
v -0.350000 1.627309 -0.400000
v -0.330866 0.327309 -0.396194
v -0.330866 1.627309 -0.396194
v -0.314645 0.327309 -0.385355
v -0.314645 1.627309 -0.385355
v -0.303806 0.327309 -0.369134
v -0.303806 1.627309 -0.369134
v -0.300000 0.327309 -0.350000
v -0.300000 1.627309 -0.350000
v -0.303806 0.327309 -0.330866
v -0.303806 1.627309 -0.330866
v -0.314645 0.327309 -0.314645
v -0.314645 1.627309 -0.314645
v -0.330866 0.327309 -0.303806
v -0.330866 1.627309 -0.303806
v -0.350000 0.327309 -0.300000
v -0.350000 1.627309 -0.300000
v -0.369134 0.327309 -0.303806
v -0.369134 1.627309 -0.303806
v -0.385355 0.327309 -0.314645
v -0.385355 1.627309 -0.314645
v -0.396194 0.327309 -0.330866
v -0.396194 1.627309 -0.330866
v -0.400000 0.327309 -0.350000
v -0.400000 1.627309 -0.350000
v -0.396194 0.327309 -0.369134
v -0.396194 1.627309 -0.369134
v -0.385355 0.327309 -0.385355
v -0.385355 1.627309 -0.385355
v -0.369134 0.327309 -0.396194
v -0.369134 1.627309 -0.396194
vn 0.195100 0.000000 -0.980800
vn 0.555600 0.000000 -0.831500
vn 0.831500 0.000000 -0.555600
vn 0.980800 0.000000 -0.195100
vn 0.980800 0.000000 0.195100
vn 0.831500 0.000000 0.555600
vn 0.555600 0.000000 0.831500
vn 0.195100 0.000000 0.980800
vn -0.195100 0.000000 0.980800
vn -0.555600 0.000000 0.831500
vn -0.831500 0.000000 0.555600
vn -0.980800 0.000000 0.195100
vn -0.980800 0.000000 -0.195100
vn -0.831500 0.000000 -0.555600
vn 0.000000 1.000000 0.000000
vn -0.195100 0.000000 -0.980800
vn -0.555600 0.000000 -0.831500
vn 0.000000 -1.000000 0.000000
s off
f 2//1 4//1 3//1
f 4//2 6//2 5//2
f 6//3 8//3 7//3
f 8//4 10//4 9//4
f 10//5 12//5 11//5
f 12//6 14//6 13//6
f 14//7 16//7 15//7
f 16//8 18//8 17//8
f 18//9 20//9 19//9
f 20//10 22//10 21//10
f 22//11 24//11 23//11
f 24//12 26//12 25//12
f 26//13 28//13 27//13
f 28//14 30//14 29//14
f 4//15 32//15 20//15
f 32//16 2//16 1//16
f 30//17 32//17 31//17
f 1//18 5//18 17//18
f 1//1 2//1 3//1
f 3//2 4//2 5//2
f 5//3 6//3 7//3
f 7//4 8//4 9//4
f 9//5 10//5 11//5
f 11//6 12//6 13//6
f 13//7 14//7 15//7
f 15//8 16//8 17//8
f 17//9 18//9 19//9
f 19//10 20//10 21//10
f 21//11 22//11 23//11
f 23//12 24//12 25//12
f 25//13 26//13 27//13
f 27//14 28//14 29//14
f 12//15 6//15 4//15
f 12//15 10//15 8//15
f 20//15 14//15 12//15
f 20//15 18//15 16//15
f 24//15 22//15 20//15
f 20//15 26//15 24//15
f 32//15 30//15 28//15
f 4//15 2//15 32//15
f 12//15 8//15 6//15
f 20//15 16//15 14//15
f 28//15 26//15 20//15
f 20//15 32//15 28//15
f 20//15 12//15 4//15
f 31//16 32//16 1//16
f 29//17 30//17 31//17
f 25//18 31//18 1//18
f 25//18 27//18 29//18
f 21//18 23//18 25//18
f 17//18 19//18 21//18
f 13//18 15//18 17//18
f 9//18 11//18 13//18
f 5//18 7//18 9//18
f 1//18 3//18 5//18
f 25//18 29//18 31//18
f 1//18 21//18 25//18
f 9//18 13//18 17//18
f 17//18 5//18 9//18
f 17//18 21//18 1//18
o Cylinder.004_Cylinder
v 0.350000 0.327309 -0.400000
v 0.350000 1.627309 -0.400000
v 0.369134 0.327309 -0.396194
v 0.369134 1.627309 -0.396194
v 0.385355 0.327309 -0.385355
v 0.385355 1.627309 -0.385355
v 0.396194 0.327309 -0.369134
v 0.396194 1.627309 -0.369134
v 0.400000 0.327309 -0.350000
v 0.400000 1.627309 -0.350000
v 0.396194 0.327309 -0.330866
v 0.396194 1.627309 -0.330866
v 0.385355 0.327309 -0.314645
v 0.385355 1.627309 -0.314645
v 0.369134 0.327309 -0.303806
v 0.369134 1.627309 -0.303806
v 0.350000 0.327309 -0.300000
v 0.350000 1.627309 -0.300000
v 0.330866 0.327309 -0.303806
v 0.330866 1.627309 -0.303806
v 0.314645 0.327309 -0.314645
v 0.314645 1.627309 -0.314645
v 0.303806 0.327309 -0.330866
v 0.303806 1.627309 -0.330866
v 0.300000 0.327309 -0.350000
v 0.300000 1.627309 -0.350000
v 0.303806 0.327309 -0.369134
v 0.303806 1.627309 -0.369134
v 0.314645 0.327309 -0.385355
v 0.314645 1.627309 -0.385355
v 0.330866 0.327309 -0.396194
v 0.330866 1.627309 -0.396194
vn 0.195100 0.000000 -0.980800
vn 0.555600 0.000000 -0.831500
vn 0.831500 0.000000 -0.555600
vn 0.980800 0.000000 -0.195100
vn 0.980800 0.000000 0.195100
vn 0.831500 0.000000 0.555600
vn 0.555600 0.000000 0.831500
vn 0.195100 0.000000 0.980800
vn -0.195100 0.000000 0.980800
vn -0.555600 0.000000 0.831500
vn -0.831500 0.000000 0.555600
vn -0.980800 0.000000 0.195100
vn -0.980800 0.000000 -0.195100
vn -0.831500 0.000000 -0.555600
vn 0.000000 1.000000 0.000000
vn -0.195100 0.000000 -0.980800
vn -0.555600 0.000000 -0.831500
vn 0.000000 -1.000000 0.000000
s off
f 34//19 36//19 35//19
f 36//20 38//20 37//20
f 38//21 40//21 39//21
f 40//22 42//22 41//22
f 42//23 44//23 43//23
f 44//24 46//24 45//24
f 46//25 48//25 47//25
f 48//26 50//26 49//26
f 50//27 52//27 51//27
f 52//28 54//28 53//28
f 54//29 56//29 55//29
f 56//30 58//30 57//30
f 58//31 60//31 59//31
f 60//32 62//32 61//32
f 36//33 64//33 52//33
f 64//34 34//34 33//34
f 62//35 64//35 63//35
f 33//36 37//36 49//36
f 33//19 34//19 35//19
f 35//20 36//20 37//20
f 37//21 38//21 39//21
f 39//22 40//22 41//22
f 41//23 42//23 43//23
f 43//24 44//24 45//24
f 45//25 46//25 47//25
f 47//26 48//26 49//26
f 49//27 50//27 51//27
f 51//28 52//28 53//28
f 53//29 54//29 55//29
f 55//30 56//30 57//30
f 57//31 58//31 59//31
f 59//32 60//32 61//32
f 44//33 38//33 36//33
f 44//33 42//33 40//33
f 52//33 46//33 44//33
f 52//33 50//33 48//33
f 56//33 54//33 52//33
f 52//33 58//33 56//33
f 64//33 62//33 60//33
f 36//33 34//33 64//33
f 44//33 40//33 38//33
f 52//33 48//33 46//33
f 60//33 58//33 52//33
f 52//33 64//33 60//33
f 52//33 44//33 36//33
f 63//34 64//34 33//34
f 61//35 62//35 63//35
f 57//36 63//36 33//36
f 57//36 59//36 61//36
f 53//36 55//36 57//36
f 49//36 51//36 53//36
f 45//36 47//36 49//36
f 41//36 43//36 45//36
f 37//36 39//36 41//36
f 33//36 35//36 37//36
f 57//36 61//36 63//36
f 33//36 53//36 57//36
f 41//36 45//36 49//36
f 49//36 37//36 41//36
f 49//36 53//36 33//36
o Cube.003_Cube
v -0.500000 1.000000 -0.300000
v -0.500000 1.500000 -0.300000
v -0.500000 1.000000 -0.400000
v -0.500000 1.500000 -0.400000
v 0.500000 1.000000 -0.300000
v 0.500000 1.500000 -0.300000
v 0.500000 1.000000 -0.400000
v 0.500000 1.500000 -0.400000
vn -1.000000 0.000000 0.000000
vn 0.000000 0.000000 -1.000000
vn 1.000000 0.000000 0.000000
vn 0.000000 0.000000 1.000000
vn 0.000000 -1.000000 0.000000
vn 0.000000 1.000000 0.000000
s off
f 68//37 67//37 65//37
f 72//38 71//38 67//38
f 70//39 69//39 71//39
f 66//40 65//40 69//40
f 67//41 71//41 69//41
f 72//42 68//42 66//42
f 66//37 68//37 65//37
f 68//38 72//38 67//38
f 72//39 70//39 71//39
f 70//40 66//40 69//40
f 65//41 67//41 69//41
f 70//42 72//42 66//42
o Cylinder.003_Cylinder
v -0.350000 -1.000000 0.300000
v -0.350000 0.300000 0.300000
v -0.330866 -1.000000 0.303806
v -0.330866 0.300000 0.303806
v -0.314645 -1.000000 0.314645
v -0.314645 0.300000 0.314645
v -0.303806 -1.000000 0.330866
v -0.303806 0.300000 0.330866
v -0.300000 -1.000000 0.350000
v -0.300000 0.300000 0.350000
v -0.303806 -1.000000 0.369134
v -0.303806 0.300000 0.369134
v -0.314645 -1.000000 0.385355
v -0.314645 0.300000 0.385355
v -0.330866 -1.000000 0.396194
v -0.330866 0.300000 0.396194
v -0.350000 -1.000000 0.400000
v -0.350000 0.300000 0.400000
v -0.369134 -1.000000 0.396194
v -0.369134 0.300000 0.396194
v -0.385355 -1.000000 0.385355
v -0.385355 0.300000 0.385355
v -0.396194 -1.000000 0.369134
v -0.396194 0.300000 0.369134
v -0.400000 -1.000000 0.350000
v -0.400000 0.300000 0.350000
v -0.396194 -1.000000 0.330866
v -0.396194 0.300000 0.330866
v -0.385355 -1.000000 0.314645
v -0.385355 0.300000 0.314645
v -0.369134 -1.000000 0.303806
v -0.369134 0.300000 0.303806
vn 0.195100 0.000000 -0.980800
vn 0.555600 0.000000 -0.831500
vn 0.831500 0.000000 -0.555600
vn 0.980800 0.000000 -0.195100
vn 0.980800 0.000000 0.195100
vn 0.831500 0.000000 0.555600
vn 0.555600 0.000000 0.831500
vn 0.195100 0.000000 0.980800
vn -0.195100 0.000000 0.980800
vn -0.555600 0.000000 0.831500
vn -0.831500 0.000000 0.555600
vn -0.980800 0.000000 0.195100
vn -0.980800 0.000000 -0.195100
vn -0.831500 0.000000 -0.555600
vn 0.000000 1.000000 -0.000000
vn -0.195100 0.000000 -0.980800
vn -0.555600 0.000000 -0.831500
vn 0.000000 -1.000000 0.000000
s off
f 74//43 76//43 75//43
f 76//44 78//44 77//44
f 78//45 80//45 79//45
f 80//46 82//46 81//46
f 82//47 84//47 83//47
f 84//48 86//48 85//48
f 86//49 88//49 87//49
f 88//50 90//50 89//50
f 90//51 92//51 91//51
f 92//52 94//52 93//52
f 94//53 96//53 95//53
f 96//54 98//54 97//54
f 98//55 100//55 99//55
f 100//56 102//56 101//56
f 76//57 104//57 92//57
f 104//58 74//58 73//58
f 102//59 104//59 103//59
f 73//60 77//60 89//60
f 73//43 74//43 75//43
f 75//44 76//44 77//44
f 77//45 78//45 79//45
f 79//46 80//46 81//46
f 81//47 82//47 83//47
f 83//48 84//48 85//48
f 85//49 86//49 87//49
f 87//50 88//50 89//50
f 89//51 90//51 91//51
f 91//52 92//52 93//52
f 93//53 94//53 95//53
f 95//54 96//54 97//54
f 97//55 98//55 99//55
f 99//56 100//56 101//56
f 84//57 78//57 76//57
f 84//57 82//57 80//57
f 92//57 86//57 84//57
f 92//57 90//57 88//57
f 96//57 94//57 92//57
f 92//57 98//57 96//57
f 104//57 102//57 100//57
f 76//57 74//57 104//57
f 84//57 80//57 78//57
f 92//57 88//57 86//57
f 100//57 98//57 92//57
f 92//57 104//57 100//57
f 92//57 84//57 76//57
f 103//58 104//58 73//58
f 101//59 102//59 103//59
f 97//60 103//60 73//60
f 97//60 99//60 101//60
f 93//60 95//60 97//60
f 89//60 91//60 93//60
f 85//60 87//60 89//60
f 81//60 83//60 85//60
f 77//60 79//60 81//60
f 73//60 75//60 77//60
f 97//60 101//60 103//60
f 73//60 93//60 97//60
f 81//60 85//60 89//60
f 89//60 77//60 81//60
f 89//60 93//60 73//60
o Cylinder.002_Cylinder
v -0.350000 -1.000000 -0.400000
v -0.350000 0.300000 -0.400000
v -0.330866 -1.000000 -0.396194
v -0.330866 0.300000 -0.396194
v -0.314645 -1.000000 -0.385355
v -0.314645 0.300000 -0.385355
v -0.303806 -1.000000 -0.369134
v -0.303806 0.300000 -0.369134
v -0.300000 -1.000000 -0.350000
v -0.300000 0.300000 -0.350000
v -0.303806 -1.000000 -0.330866
v -0.303806 0.300000 -0.330866
v -0.314645 -1.000000 -0.314645
v -0.314645 0.300000 -0.314645
v -0.330866 -1.000000 -0.303806
v -0.330866 0.300000 -0.303806
v -0.350000 -1.000000 -0.300000
v -0.350000 0.300000 -0.300000
v -0.369134 -1.000000 -0.303806
v -0.369134 0.300000 -0.303806
v -0.385355 -1.000000 -0.314645
v -0.385355 0.300000 -0.314645
v -0.396194 -1.000000 -0.330866
v -0.396194 0.300000 -0.330866
v -0.400000 -1.000000 -0.350000
v -0.400000 0.300000 -0.350000
v -0.396194 -1.000000 -0.369134
v -0.396194 0.300000 -0.369134
v -0.385355 -1.000000 -0.385355
v -0.385355 0.300000 -0.385355
v -0.369134 -1.000000 -0.396194
v -0.369134 0.300000 -0.396194
vn 0.195100 0.000000 -0.980800
vn 0.555600 0.000000 -0.831500
vn 0.831500 0.000000 -0.555600
vn 0.980800 0.000000 -0.195100
vn 0.980800 0.000000 0.195100
vn 0.831500 0.000000 0.555600
vn 0.555600 0.000000 0.831500
vn 0.195100 0.000000 0.980800
vn -0.195100 0.000000 0.980800
vn -0.555600 0.000000 0.831500
vn -0.831500 0.000000 0.555600
vn -0.980800 0.000000 0.195100
vn -0.980800 0.000000 -0.195100
vn -0.831500 0.000000 -0.555600
vn 0.000000 1.000000 -0.000000
vn -0.195100 0.000000 -0.980800
vn -0.555600 0.000000 -0.831500
vn 0.000000 -1.000000 0.000000
s off
f 106//61 108//61 107//61
f 108//62 110//62 109//62
f 110//63 112//63 111//63
f 112//64 114//64 113//64
f 114//65 116//65 115//65
f 116//66 118//66 117//66
f 118//67 120//67 119//67
f 120//68 122//68 121//68
f 122//69 124//69 123//69
f 124//70 126//70 125//70
f 126//71 128//71 127//71
f 128//72 130//72 129//72
f 130//73 132//73 131//73
f 132//74 134//74 133//74
f 108//75 136//75 124//75
f 136//76 106//76 105//76
f 134//77 136//77 135//77
f 105//78 109//78 121//78
f 105//61 106//61 107//61
f 107//62 108//62 109//62
f 109//63 110//63 111//63
f 111//64 112//64 113//64
f 113//65 114//65 115//65
f 115//66 116//66 117//66
f 117//67 118//67 119//67
f 119//68 120//68 121//68
f 121//69 122//69 123//69
f 123//70 124//70 125//70
f 125//71 126//71 127//71
f 127//72 128//72 129//72
f 129//73 130//73 131//73
f 131//74 132//74 133//74
f 116//75 110//75 108//75
f 116//75 114//75 112//75
f 124//75 118//75 116//75
f 124//75 122//75 120//75
f 128//75 126//75 124//75
f 124//75 130//75 128//75
f 136//75 134//75 132//75
f 108//75 106//75 136//75
f 116//75 112//75 110//75
f 124//75 120//75 118//75
f 132//75 130//75 124//75
f 124//75 136//75 132//75
f 124//75 116//75 108//75
f 135//76 136//76 105//76
f 133//77 134//77 135//77
f 129//78 135//78 105//78
f 129//78 131//78 133//78
f 125//78 127//78 129//78
f 121//78 123//78 125//78
f 117//78 119//78 121//78
f 113//78 115//78 117//78
f 109//78 111//78 113//78
f 105//78 107//78 109//78
f 129//78 133//78 135//78
f 105//78 125//78 129//78
f 113//78 117//78 121//78
f 121//78 109//78 113//78
f 121//78 125//78 105//78
o Cylinder.001_Cylinder
v 0.350000 -1.000000 -0.400000
v 0.350000 0.300000 -0.400000
v 0.369134 -1.000000 -0.396194
v 0.369134 0.300000 -0.396194
v 0.385355 -1.000000 -0.385355
v 0.385355 0.300000 -0.385355
v 0.396194 -1.000000 -0.369134
v 0.396194 0.300000 -0.369134
v 0.400000 -1.000000 -0.350000
v 0.400000 0.300000 -0.350000
v 0.396194 -1.000000 -0.330866
v 0.396194 0.300000 -0.330866
v 0.385355 -1.000000 -0.314645
v 0.385355 0.300000 -0.314645
v 0.369134 -1.000000 -0.303806
v 0.369134 0.300000 -0.303806
v 0.350000 -1.000000 -0.300000
v 0.350000 0.300000 -0.300000
v 0.330866 -1.000000 -0.303806
v 0.330866 0.300000 -0.303806
v 0.314645 -1.000000 -0.314645
v 0.314645 0.300000 -0.314645
v 0.303806 -1.000000 -0.330866
v 0.303806 0.300000 -0.330866
v 0.300000 -1.000000 -0.350000
v 0.300000 0.300000 -0.350000
v 0.303806 -1.000000 -0.369134
v 0.303806 0.300000 -0.369134
v 0.314645 -1.000000 -0.385355
v 0.314645 0.300000 -0.385355
v 0.330866 -1.000000 -0.396194
v 0.330866 0.300000 -0.396194
vn 0.195100 0.000000 -0.980800
vn 0.555600 0.000000 -0.831500
vn 0.831500 0.000000 -0.555600
vn 0.980800 0.000000 -0.195100
vn 0.980800 0.000000 0.195100
vn 0.831500 0.000000 0.555600
vn 0.555600 0.000000 0.831500
vn 0.195100 0.000000 0.980800
vn -0.195100 0.000000 0.980800
vn -0.555600 0.000000 0.831500
vn -0.831500 0.000000 0.555600
vn -0.980800 0.000000 0.195100
vn -0.980800 0.000000 -0.195100
vn -0.831500 0.000000 -0.555600
vn 0.000000 1.000000 -0.000000
vn -0.195100 0.000000 -0.980800
vn -0.555600 0.000000 -0.831500
vn 0.000000 -1.000000 0.000000
s off
f 138//79 140//79 139//79
f 140//80 142//80 141//80
f 142//81 144//81 143//81
f 144//82 146//82 145//82
f 146//83 148//83 147//83
f 148//84 150//84 149//84
f 150//85 152//85 151//85
f 152//86 154//86 153//86
f 154//87 156//87 155//87
f 156//88 158//88 157//88
f 158//89 160//89 159//89
f 160//90 162//90 161//90
f 162//91 164//91 163//91
f 164//92 166//92 165//92
f 140//93 168//93 156//93
f 168//94 138//94 137//94
f 166//95 168//95 167//95
f 137//96 141//96 153//96
f 137//79 138//79 139//79
f 139//80 140//80 141//80
f 141//81 142//81 143//81
f 143//82 144//82 145//82
f 145//83 146//83 147//83
f 147//84 148//84 149//84
f 149//85 150//85 151//85
f 151//86 152//86 153//86
f 153//87 154//87 155//87
f 155//88 156//88 157//88
f 157//89 158//89 159//89
f 159//90 160//90 161//90
f 161//91 162//91 163//91
f 163//92 164//92 165//92
f 148//93 142//93 140//93
f 148//93 146//93 144//93
f 156//93 150//93 148//93
f 156//93 154//93 152//93
f 160//93 158//93 156//93
f 156//93 162//93 160//93
f 168//93 166//93 164//93
f 140//93 138//93 168//93
f 148//93 144//93 142//93
f 156//93 152//93 150//93
f 164//93 162//93 156//93
f 156//93 168//93 164//93
f 156//93 148//93 140//93
f 167//94 168//94 137//94
f 165//95 166//95 167//95
f 161//96 167//96 137//96
f 161//96 163//96 165//96
f 157//96 159//96 161//96
f 153//96 155//96 157//96
f 149//96 151//96 153//96
f 145//96 147//96 149//96
f 141//96 143//96 145//96
f 137//96 139//96 141//96
f 161//96 165//96 167//96
f 137//96 157//96 161//96
f 145//96 149//96 153//96
f 153//96 141//96 145//96
f 153//96 157//96 137//96
o Cylinder
v 0.350000 -1.000000 0.300000
v 0.350000 0.300000 0.300000
v 0.369134 -1.000000 0.303806
v 0.369134 0.300000 0.303806
v 0.385355 -1.000000 0.314645
v 0.385355 0.300000 0.314645
v 0.396194 -1.000000 0.330866
v 0.396194 0.300000 0.330866
v 0.400000 -1.000000 0.350000
v 0.400000 0.300000 0.350000
v 0.396194 -1.000000 0.369134
v 0.396194 0.300000 0.369134
v 0.385355 -1.000000 0.385355
v 0.385355 0.300000 0.385355
v 0.369134 -1.000000 0.396194
v 0.369134 0.300000 0.396194
v 0.350000 -1.000000 0.400000
v 0.350000 0.300000 0.400000
v 0.330866 -1.000000 0.396194
v 0.330866 0.300000 0.396194
v 0.314645 -1.000000 0.385355
v 0.314645 0.300000 0.385355
v 0.303806 -1.000000 0.369134
v 0.303806 0.300000 0.369134
v 0.300000 -1.000000 0.350000
v 0.300000 0.300000 0.350000
v 0.303806 -1.000000 0.330866
v 0.303806 0.300000 0.330866
v 0.314645 -1.000000 0.314645
v 0.314645 0.300000 0.314645
v 0.330866 -1.000000 0.303806
v 0.330866 0.300000 0.303806
vn 0.195100 0.000000 -0.980800
vn 0.555600 0.000000 -0.831500
vn 0.831500 0.000000 -0.555600
vn 0.980800 0.000000 -0.195100
vn 0.980800 0.000000 0.195100
vn 0.831500 0.000000 0.555600
vn 0.555600 0.000000 0.831500
vn 0.195100 0.000000 0.980800
vn -0.195100 0.000000 0.980800
vn -0.555600 0.000000 0.831500
vn -0.831500 0.000000 0.555600
vn -0.980800 0.000000 0.195100
vn -0.980800 0.000000 -0.195100
vn -0.831500 0.000000 -0.555600
vn 0.000000 1.000000 -0.000000
vn -0.195100 0.000000 -0.980800
vn -0.555600 0.000000 -0.831500
vn 0.000000 -1.000000 0.000000
s off
f 170//97 172//97 171//97
f 172//98 174//98 173//98
f 174//99 176//99 175//99
f 176//100 178//100 177//100
f 178//101 180//101 179//101
f 180//102 182//102 181//102
f 182//103 184//103 183//103
f 184//104 186//104 185//104
f 186//105 188//105 187//105
f 188//106 190//106 189//106
f 190//107 192//107 191//107
f 192//108 194//108 193//108
f 194//109 196//109 195//109
f 196//110 198//110 197//110
f 172//111 200//111 188//111
f 200//112 170//112 169//112
f 198//113 200//113 199//113
f 169//114 173//114 185//114
f 169//97 170//97 171//97
f 171//98 172//98 173//98
f 173//99 174//99 175//99
f 175//100 176//100 177//100
f 177//101 178//101 179//101
f 179//102 180//102 181//102
f 181//103 182//103 183//103
f 183//104 184//104 185//104
f 185//105 186//105 187//105
f 187//106 188//106 189//106
f 189//107 190//107 191//107
f 191//108 192//108 193//108
f 193//109 194//109 195//109
f 195//110 196//110 197//110
f 180//111 174//111 172//111
f 180//111 178//111 176//111
f 188//111 182//111 180//111
f 188//111 186//111 184//111
f 192//111 190//111 188//111
f 188//111 194//111 192//111
f 200//111 198//111 196//111
f 172//111 170//111 200//111
f 180//111 176//111 174//111
f 188//111 184//111 182//111
f 196//111 194//111 188//111
f 188//111 200//111 196//111
f 188//111 180//111 172//111
f 199//112 200//112 169//112
f 197//113 198//113 199//113
f 193//114 199//114 169//114
f 193//114 195//114 197//114
f 189//114 191//114 193//114
f 185//114 187//114 189//114
f 181//114 183//114 185//114
f 177//114 179//114 181//114
f 173//114 175//114 177//114
f 169//114 171//114 173//114
f 193//114 197//114 199//114
f 169//114 189//114 193//114
f 177//114 181//114 185//114
f 185//114 173//114 177//114
f 185//114 189//114 169//114
o Cube.001_Cube.002
v -0.500000 0.250000 0.500000
v -0.500000 0.350000 0.500000
v -0.500000 0.250000 -0.500000
v -0.500000 0.350000 -0.500000
v 0.500000 0.250000 0.500000
v 0.500000 0.350000 0.500000
v 0.500000 0.250000 -0.500000
v 0.500000 0.350000 -0.500000
vn -1.000000 0.000000 0.000000
vn 0.000000 0.000000 -1.000000
vn 1.000000 0.000000 0.000000
vn 0.000000 0.000000 1.000000
vn 0.000000 -1.000000 0.000000
vn 0.000000 1.000000 0.000000
s off
f 204//115 203//115 201//115
f 208//116 207//116 203//116
f 206//117 205//117 207//117
f 202//118 201//118 205//118
f 203//119 207//119 205//119
f 208//120 204//120 202//120
f 202//115 204//115 201//115
f 204//116 208//116 203//116
f 208//117 206//117 207//117
f 206//118 202//118 205//118
f 201//119 203//119 205//119
f 206//120 208//120 202//120
