# Blender v2.78 (sub 0) OBJ File: 'chair.blend'
# www.blender.org
mtllib chair.mtl
o Chair_Cube
v -0.350000 0.295038 -0.400000
v -0.350000 1.595038 -0.400000
v -0.330866 0.295038 -0.396194
v -0.330866 1.595038 -0.396194
v -0.314645 0.295038 -0.385355
v -0.314645 1.595038 -0.385355
v -0.303806 0.295038 -0.369134
v -0.303806 1.595038 -0.369134
v -0.300000 0.295038 -0.350000
v -0.300000 1.595038 -0.350000
v -0.303806 0.295038 -0.330866
v -0.303806 1.595038 -0.330866
v -0.314645 0.295038 -0.314645
v -0.314645 1.595038 -0.314645
v -0.330866 0.295038 -0.303806
v -0.330866 1.595038 -0.303806
v -0.350000 0.295038 -0.300000
v -0.350000 1.595038 -0.300000
v -0.369134 0.295038 -0.303806
v -0.369134 1.595038 -0.303806
v -0.385355 0.295038 -0.314645
v -0.385355 1.595038 -0.314645
v -0.396194 0.295038 -0.330866
v -0.396194 1.595038 -0.330866
v -0.400000 0.295038 -0.350000
v -0.400000 1.595038 -0.350000
v -0.396194 0.295038 -0.369134
v -0.396194 1.595038 -0.369134
v -0.385355 0.295038 -0.385355
v -0.385355 1.595038 -0.385355
v -0.369134 0.295038 -0.396194
v -0.369134 1.595038 -0.396194
v -0.350000 0.295038 -0.400000
v -0.330866 0.295038 -0.396194
v -0.330866 1.595038 -0.396194
v -0.350000 1.595038 -0.400000
v -0.314645 0.295038 -0.385355
v -0.314645 1.595038 -0.385355
v -0.303806 0.295038 -0.369134
v -0.303806 1.595038 -0.369134
v -0.300000 0.295038 -0.350000
v -0.300000 1.595038 -0.350000
v -0.303806 0.295038 -0.330866
v -0.303806 1.595038 -0.330866
v -0.314645 0.295038 -0.314645
v -0.314645 1.595038 -0.314645
v -0.330866 0.295038 -0.303806
v -0.330866 1.595038 -0.303806
v -0.350000 0.295038 -0.300000
v -0.350000 1.595038 -0.300000
v -0.369134 0.295038 -0.303806
v -0.369134 1.595038 -0.303806
v -0.385355 0.295038 -0.314645
v -0.385355 1.595038 -0.314645
v -0.396194 0.295038 -0.330866
v -0.396194 1.595038 -0.330866
v -0.400000 0.295038 -0.350000
v -0.400000 1.595038 -0.350000
v -0.396194 0.295038 -0.369134
v -0.396194 1.595038 -0.369134
v -0.385355 0.295038 -0.385355
v -0.385355 1.595038 -0.385355
v -0.369134 0.295038 -0.396194
v -0.369134 1.595038 -0.396194
v 0.350000 0.295038 -0.400000
v 0.350000 1.595038 -0.400000
v 0.369134 0.295038 -0.396194
v 0.369134 1.595038 -0.396194
v 0.385355 0.295038 -0.385355
v 0.385355 1.595038 -0.385355
v 0.396194 0.295038 -0.369134
v 0.396194 1.595038 -0.369134
v 0.400000 0.295038 -0.350000
v 0.400000 1.595038 -0.350000
v 0.396194 0.295038 -0.330866
v 0.396194 1.595038 -0.330866
v 0.385355 0.295038 -0.314645
v 0.385355 1.595038 -0.314645
v 0.369134 0.295038 -0.303806
v 0.369134 1.595038 -0.303806
v 0.350000 0.295038 -0.300000
v 0.350000 1.595038 -0.300000
v 0.330866 0.295038 -0.303806
v 0.330866 1.595038 -0.303806
v 0.314645 0.295038 -0.314645
v 0.314645 1.595038 -0.314645
v 0.303806 0.295038 -0.330866
v 0.303806 1.595038 -0.330866
v 0.300000 0.295038 -0.350000
v 0.300000 1.595038 -0.350000
v 0.303806 0.295038 -0.369134
v 0.303806 1.595038 -0.369134
v 0.314645 0.295038 -0.385355
v 0.314645 1.595038 -0.385355
v 0.330866 0.295038 -0.396194
v 0.330866 1.595038 -0.396194
v 0.350000 0.295038 -0.400000
v 0.369134 0.295038 -0.396194
v 0.369134 1.595038 -0.396194
v 0.350000 1.595038 -0.400000
v 0.385355 0.295038 -0.385355
v 0.385355 1.595038 -0.385355
v 0.396194 0.295038 -0.369134
v 0.396194 1.595038 -0.369134
v 0.400000 0.295038 -0.350000
v 0.400000 1.595038 -0.350000
v 0.396194 0.295038 -0.330866
v 0.396194 1.595038 -0.330866
v 0.385355 0.295038 -0.314645
v 0.385355 1.595038 -0.314645
v 0.369134 0.295038 -0.303806
v 0.369134 1.595038 -0.303806
v 0.350000 0.295038 -0.300000
v 0.350000 1.595038 -0.300000
v 0.330866 0.295038 -0.303806
v 0.330866 1.595038 -0.303806
v 0.314645 0.295038 -0.314645
v 0.314645 1.595038 -0.314645
v 0.303806 0.295038 -0.330866
v 0.303806 1.595038 -0.330866
v 0.300000 0.295038 -0.350000
v 0.300000 1.595038 -0.350000
v 0.303806 0.295038 -0.369134
v 0.303806 1.595038 -0.369134
v 0.314645 0.295038 -0.385355
v 0.314645 1.595038 -0.385355
v 0.330866 0.295038 -0.396194
v 0.330866 1.595038 -0.396194
v -0.500000 1.000000 -0.300000
v -0.500000 1.500000 -0.300000
v -0.500000 1.000000 -0.400000
v -0.500000 1.500000 -0.400000
v 0.500000 1.000000 -0.300000
v 0.500000 1.500000 -0.300000
v 0.500000 1.000000 -0.400000
v 0.500000 1.500000 -0.400000
v -0.500000 1.000000 -0.300000
v -0.500000 1.000000 -0.300000
v -0.500000 1.500000 -0.300000
v -0.500000 1.500000 -0.300000
v -0.500000 1.500000 -0.400000
v -0.500000 1.500000 -0.400000
v -0.500000 1.000000 -0.400000
v -0.500000 1.000000 -0.400000
v 0.500000 1.500000 -0.400000
v 0.500000 1.500000 -0.400000
v 0.500000 1.000000 -0.400000
v 0.500000 1.000000 -0.400000
v 0.500000 1.500000 -0.300000
v 0.500000 1.500000 -0.300000
v 0.500000 1.000000 -0.300000
v 0.500000 1.000000 -0.300000
v -0.350000 -1.000000 0.300000
v -0.350000 0.300000 0.300000
v -0.330866 -1.000000 0.303806
v -0.330866 0.300000 0.303806
v -0.314645 -1.000000 0.314645
v -0.314645 0.300000 0.314645
v -0.303806 -1.000000 0.330866
v -0.303806 0.300000 0.330866
v -0.300000 -1.000000 0.350000
v -0.300000 0.300000 0.350000
v -0.303806 -1.000000 0.369134
v -0.303806 0.300000 0.369134
v -0.314645 -1.000000 0.385355
v -0.314645 0.300000 0.385355
v -0.330866 -1.000000 0.396194
v -0.330866 0.300000 0.396194
v -0.350000 -1.000000 0.400000
v -0.350000 0.300000 0.400000
v -0.369134 -1.000000 0.396194
v -0.369134 0.300000 0.396194
v -0.385355 -1.000000 0.385355
v -0.385355 0.300000 0.385355
v -0.396194 -1.000000 0.369134
v -0.396194 0.300000 0.369134
v -0.400000 -1.000000 0.350000
v -0.400000 0.300000 0.350000
v -0.396194 -1.000000 0.330866
v -0.396194 0.300000 0.330866
v -0.385355 -1.000000 0.314645
v -0.385355 0.300000 0.314645
v -0.369134 -1.000000 0.303806
v -0.369134 0.300000 0.303806
v -0.350000 -1.000000 0.300000
v -0.330866 -1.000000 0.303806
v -0.330866 0.300000 0.303806
v -0.350000 0.300000 0.300000
v -0.314645 -1.000000 0.314645
v -0.314645 0.300000 0.314645
v -0.303806 -1.000000 0.330866
v -0.303806 0.300000 0.330866
v -0.300000 -1.000000 0.350000
v -0.300000 0.300000 0.350000
v -0.303806 -1.000000 0.369134
v -0.303806 0.300000 0.369134
v -0.314645 -1.000000 0.385355
v -0.314645 0.300000 0.385355
v -0.330866 -1.000000 0.396194
v -0.330866 0.300000 0.396194
v -0.350000 -1.000000 0.400000
v -0.350000 0.300000 0.400000
v -0.369134 -1.000000 0.396194
v -0.369134 0.300000 0.396194
v -0.385355 -1.000000 0.385355
v -0.385355 0.300000 0.385355
v -0.396194 -1.000000 0.369134
v -0.396194 0.300000 0.369134
v -0.400000 -1.000000 0.350000
v -0.400000 0.300000 0.350000
v -0.396194 -1.000000 0.330866
v -0.396194 0.300000 0.330866
v -0.385355 -1.000000 0.314645
v -0.385355 0.300000 0.314645
v -0.369134 -1.000000 0.303806
v -0.369134 0.300000 0.303806
v -0.350000 -1.000000 -0.400000
v -0.350000 0.300000 -0.400000
v -0.330866 -1.000000 -0.396194
v -0.330866 0.300000 -0.396194
v -0.314645 -1.000000 -0.385355
v -0.314645 0.300000 -0.385355
v -0.303806 -1.000000 -0.369134
v -0.303806 0.300000 -0.369134
v -0.300000 -1.000000 -0.350000
v -0.300000 0.300000 -0.350000
v -0.303806 -1.000000 -0.330866
v -0.303806 0.300000 -0.330866
v -0.314645 -1.000000 -0.314645
v -0.314645 0.300000 -0.314645
v -0.330866 -1.000000 -0.303806
v -0.330866 0.300000 -0.303806
v -0.350000 -1.000000 -0.300000
v -0.350000 0.300000 -0.300000
v -0.369134 -1.000000 -0.303806
v -0.369134 0.300000 -0.303806
v -0.385355 -1.000000 -0.314645
v -0.385355 0.300000 -0.314645
v -0.396194 -1.000000 -0.330866
v -0.396194 0.300000 -0.330866
v -0.400000 -1.000000 -0.350000
v -0.400000 0.300000 -0.350000
v -0.396194 -1.000000 -0.369134
v -0.396194 0.300000 -0.369134
v -0.385355 -1.000000 -0.385355
v -0.385355 0.300000 -0.385355
v -0.369134 -1.000000 -0.396194
v -0.369134 0.300000 -0.396194
v -0.350000 -1.000000 -0.400000
v -0.330866 -1.000000 -0.396194
v -0.330866 0.300000 -0.396194
v -0.350000 0.300000 -0.400000
v -0.314645 -1.000000 -0.385355
v -0.314645 0.300000 -0.385355
v -0.303806 -1.000000 -0.369134
v -0.303806 0.300000 -0.369134
v -0.300000 -1.000000 -0.350000
v -0.300000 0.300000 -0.350000
v -0.303806 -1.000000 -0.330866
v -0.303806 0.300000 -0.330866
v -0.314645 -1.000000 -0.314645
v -0.314645 0.300000 -0.314645
v -0.330866 -1.000000 -0.303806
v -0.330866 0.300000 -0.303806
v -0.350000 -1.000000 -0.300000
v -0.350000 0.300000 -0.300000
v -0.369134 -1.000000 -0.303806
v -0.369134 0.300000 -0.303806
v -0.385355 -1.000000 -0.314645
v -0.385355 0.300000 -0.314645
v -0.396194 -1.000000 -0.330866
v -0.396194 0.300000 -0.330866
v -0.400000 -1.000000 -0.350000
v -0.400000 0.300000 -0.350000
v -0.396194 -1.000000 -0.369134
v -0.396194 0.300000 -0.369134
v -0.385355 -1.000000 -0.385355
v -0.385355 0.300000 -0.385355
v -0.369134 -1.000000 -0.396194
v -0.369134 0.300000 -0.396194
v 0.350000 -1.000000 -0.400000
v 0.350000 0.300000 -0.400000
v 0.369134 -1.000000 -0.396194
v 0.369134 0.300000 -0.396194
v 0.385355 -1.000000 -0.385355
v 0.385355 0.300000 -0.385355
v 0.396194 -1.000000 -0.369134
v 0.396194 0.300000 -0.369134
v 0.400000 -1.000000 -0.350000
v 0.400000 0.300000 -0.350000
v 0.396194 -1.000000 -0.330866
v 0.396194 0.300000 -0.330866
v 0.385355 -1.000000 -0.314645
v 0.385355 0.300000 -0.314645
v 0.369134 -1.000000 -0.303806
v 0.369134 0.300000 -0.303806
v 0.350000 -1.000000 -0.300000
v 0.350000 0.300000 -0.300000
v 0.330866 -1.000000 -0.303806
v 0.330866 0.300000 -0.303806
v 0.314645 -1.000000 -0.314645
v 0.314645 0.300000 -0.314645
v 0.303806 -1.000000 -0.330866
v 0.303806 0.300000 -0.330866
v 0.300000 -1.000000 -0.350000
v 0.300000 0.300000 -0.350000
v 0.303806 -1.000000 -0.369134
v 0.303806 0.300000 -0.369134
v 0.314645 -1.000000 -0.385355
v 0.314645 0.300000 -0.385355
v 0.330866 -1.000000 -0.396194
v 0.330866 0.300000 -0.396194
v 0.350000 -1.000000 -0.400000
v 0.369134 -1.000000 -0.396194
v 0.369134 0.300000 -0.396194
v 0.350000 0.300000 -0.400000
v 0.385355 -1.000000 -0.385355
v 0.385355 0.300000 -0.385355
v 0.396194 -1.000000 -0.369134
v 0.396194 0.300000 -0.369134
v 0.400000 -1.000000 -0.350000
v 0.400000 0.300000 -0.350000
v 0.396194 -1.000000 -0.330866
v 0.396194 0.300000 -0.330866
v 0.385355 -1.000000 -0.314645
v 0.385355 0.300000 -0.314645
v 0.369134 -1.000000 -0.303806
v 0.369134 0.300000 -0.303806
v 0.350000 -1.000000 -0.300000
v 0.350000 0.300000 -0.300000
v 0.330866 -1.000000 -0.303806
v 0.330866 0.300000 -0.303806
v 0.314645 -1.000000 -0.314645
v 0.314645 0.300000 -0.314645
v 0.303806 -1.000000 -0.330866
v 0.303806 0.300000 -0.330866
v 0.300000 -1.000000 -0.350000
v 0.300000 0.300000 -0.350000
v 0.303806 -1.000000 -0.369134
v 0.303806 0.300000 -0.369134
v 0.314645 -1.000000 -0.385355
v 0.314645 0.300000 -0.385355
v 0.330866 -1.000000 -0.396194
v 0.330866 0.300000 -0.396194
v 0.350000 -1.000000 0.300000
v 0.350000 0.300000 0.300000
v 0.369134 -1.000000 0.303806
v 0.369134 0.300000 0.303806
v 0.385355 -1.000000 0.314645
v 0.385355 0.300000 0.314645
v 0.396194 -1.000000 0.330866
v 0.396194 0.300000 0.330866
v 0.400000 -1.000000 0.350000
v 0.400000 0.300000 0.350000
v 0.396194 -1.000000 0.369134
v 0.396194 0.300000 0.369134
v 0.385355 -1.000000 0.385355
v 0.385355 0.300000 0.385355
v 0.369134 -1.000000 0.396194
v 0.369134 0.300000 0.396194
v 0.350000 -1.000000 0.400000
v 0.350000 0.300000 0.400000
v 0.330866 -1.000000 0.396194
v 0.330866 0.300000 0.396194
v 0.314645 -1.000000 0.385355
v 0.314645 0.300000 0.385355
v 0.303806 -1.000000 0.369134
v 0.303806 0.300000 0.369134
v 0.300000 -1.000000 0.350000
v 0.300000 0.300000 0.350000
v 0.303806 -1.000000 0.330866
v 0.303806 0.300000 0.330866
v 0.314645 -1.000000 0.314645
v 0.314645 0.300000 0.314645
v 0.330866 -1.000000 0.303806
v 0.330866 0.300000 0.303806
v 0.350000 -1.000000 0.300000
v 0.369134 -1.000000 0.303806
v 0.369134 0.300000 0.303806
v 0.350000 0.300000 0.300000
v 0.385355 -1.000000 0.314645
v 0.385355 0.300000 0.314645
v 0.396194 -1.000000 0.330866
v 0.396194 0.300000 0.330866
v 0.400000 -1.000000 0.350000
v 0.400000 0.300000 0.350000
v 0.396194 -1.000000 0.369134
v 0.396194 0.300000 0.369134
v 0.385355 -1.000000 0.385355
v 0.385355 0.300000 0.385355
v 0.369134 -1.000000 0.396194
v 0.369134 0.300000 0.396194
v 0.350000 -1.000000 0.400000
v 0.350000 0.300000 0.400000
v 0.330866 -1.000000 0.396194
v 0.330866 0.300000 0.396194
v 0.314645 -1.000000 0.385355
v 0.314645 0.300000 0.385355
v 0.303806 -1.000000 0.369134
v 0.303806 0.300000 0.369134
v 0.300000 -1.000000 0.350000
v 0.300000 0.300000 0.350000
v 0.303806 -1.000000 0.330866
v 0.303806 0.300000 0.330866
v 0.314645 -1.000000 0.314645
v 0.314645 0.300000 0.314645
v 0.330866 -1.000000 0.303806
v 0.330866 0.300000 0.303806
v -0.500000 0.250000 0.500000
v -0.500000 0.350000 0.500000
v -0.500000 0.250000 -0.500000
v -0.500000 0.350000 -0.500000
v 0.500000 0.250000 0.500000
v 0.500000 0.350000 0.500000
v 0.500000 0.250000 -0.500000
v 0.500000 0.350000 -0.500000
v -0.500000 0.250000 0.500000
v -0.500000 0.250000 0.500000
v -0.500000 0.350000 0.500000
v -0.500000 0.350000 0.500000
v -0.500000 0.350000 -0.500000
v -0.500000 0.350000 -0.500000
v -0.500000 0.250000 -0.500000
v -0.500000 0.250000 -0.500000
v 0.500000 0.350000 -0.500000
v 0.500000 0.350000 -0.500000
v 0.500000 0.250000 -0.500000
v 0.500000 0.250000 -0.500000
v 0.500000 0.350000 0.500000
v 0.500000 0.350000 0.500000
v 0.500000 0.250000 0.500000
v 0.500000 0.250000 0.500000
v -0.350000 0.295038 -0.400000
v -0.350000 1.595038 -0.400000
v -0.350000 1.595038 -0.300000
v -0.350000 0.295038 -0.300000
v 0.350000 0.295038 -0.400000
v 0.350000 1.595038 -0.400000
v 0.350000 1.595038 -0.300000
v 0.350000 0.295038 -0.300000
v -0.350000 -1.000000 0.300000
v -0.350000 0.300000 0.300000
v -0.350000 0.300000 0.400000
v -0.350000 -1.000000 0.400000
v -0.350000 -1.000000 -0.400000
v -0.350000 0.300000 -0.400000
v -0.350000 0.300000 -0.300000
v -0.350000 -1.000000 -0.300000
v 0.350000 -1.000000 -0.400000
v 0.350000 0.300000 -0.400000
v 0.350000 0.300000 -0.300000
v 0.350000 -1.000000 -0.300000
v 0.350000 -1.000000 0.300000
v 0.350000 0.300000 0.300000
v 0.350000 0.300000 0.400000
v 0.350000 -1.000000 0.400000
vn 0.1951 0.0000 -0.9808
vn 0.5556 0.0000 -0.8315
vn 0.8315 0.0000 -0.5556
vn 0.9808 0.0000 -0.1951
vn 0.9808 0.0000 0.1951
vn 0.8315 0.0000 0.5556
vn 0.5556 0.0000 0.8315
vn 0.1951 0.0000 0.9808
vn -0.1951 0.0000 0.9808
vn -0.5556 0.0000 0.8315
vn -0.8315 0.0000 0.5556
vn -0.9808 0.0000 0.1951
vn -0.9808 0.0000 -0.1951
vn -0.8315 0.0000 -0.5556
vn 0.0000 1.0000 0.0000
vn -0.1951 0.0000 -0.9808
vn -0.5556 0.0000 -0.8315
vn 0.0000 -1.0000 0.0000
vn -1.0000 0.0000 0.0000
vn 0.0000 0.0000 -1.0000
vn 1.0000 0.0000 0.0000
vn 0.0000 0.0000 1.0000
usemtl None
s off
f 434//1 34//1 433//1
f 35//2 37//2 34//2
f 38//3 39//3 37//3
f 40//4 41//4 39//4
f 42//5 43//5 41//5
f 44//6 45//6 43//6
f 46//7 47//7 45//7
f 48//8 436//8 47//8
f 50//9 51//9 49//9
f 52//10 53//10 51//10
f 54//11 55//11 53//11
f 56//12 57//12 55//12
f 58//13 59//13 57//13
f 60//14 61//14 59//14
f 22//15 14//15 30//15
f 32//16 33//16 63//16
f 62//17 63//17 61//17
f 15//18 23//18 31//18
f 438//1 98//1 437//1
f 99//2 101//2 98//2
f 102//3 103//3 101//3
f 104//4 105//4 103//4
f 106//5 107//5 105//5
f 108//6 109//6 107//6
f 110//7 111//7 109//7
f 112//8 440//8 111//8
f 114//9 115//9 113//9
f 116//10 117//10 115//10
f 118//11 119//11 117//11
f 120//12 121//12 119//12
f 122//13 123//13 121//13
f 124//14 125//14 123//14
f 86//15 78//15 94//15
f 96//16 97//16 127//16
f 126//17 127//17 125//17
f 79//18 87//18 95//18
f 141//19 137//19 139//19
f 145//20 144//20 142//20
f 149//21 148//21 146//21
f 140//22 152//22 150//22
f 131//18 133//18 129//18
f 136//15 130//15 134//15
f 442//1 186//1 441//1
f 187//2 189//2 186//2
f 190//3 191//3 189//3
f 192//4 193//4 191//4
f 194//5 195//5 193//5
f 196//6 197//6 195//6
f 198//7 199//7 197//7
f 200//8 444//8 199//8
f 202//9 203//9 201//9
f 204//10 205//10 203//10
f 206//11 207//11 205//11
f 208//12 209//12 207//12
f 210//13 211//13 209//13
f 212//14 213//14 211//14
f 174//15 166//15 158//15
f 184//16 185//16 215//16
f 214//17 215//17 213//17
f 167//18 175//18 183//18
f 446//1 250//1 445//1
f 251//2 253//2 250//2
f 254//3 255//3 253//3
f 256//4 257//4 255//4
f 258//5 259//5 257//5
f 260//6 261//6 259//6
f 262//7 263//7 261//7
f 264//8 448//8 263//8
f 266//9 267//9 265//9
f 268//10 269//10 267//10
f 270//11 271//11 269//11
f 272//12 273//12 271//12
f 274//13 275//13 273//13
f 276//14 277//14 275//14
f 238//15 230//15 246//15
f 248//16 249//16 279//16
f 278//17 279//17 277//17
f 231//18 239//18 247//18
f 450//1 314//1 449//1
f 315//2 317//2 314//2
f 318//3 319//3 317//3
f 320//4 321//4 319//4
f 322//5 323//5 321//5
f 324//6 325//6 323//6
f 326//7 327//7 325//7
f 328//8 452//8 327//8
f 330//9 331//9 329//9
f 332//10 333//10 331//10
f 334//11 335//11 333//11
f 336//12 337//12 335//12
f 338//13 339//13 337//13
f 340//14 341//14 339//14
f 302//15 294//15 310//15
f 312//16 313//16 343//16
f 342//17 343//17 341//17
f 295//18 303//18 311//18
f 454//1 378//1 453//1
f 379//2 381//2 378//2
f 382//3 383//3 381//3
f 384//4 385//4 383//4
f 386//5 387//5 385//5
f 388//6 389//6 387//6
f 390//7 391//7 389//7
f 392//8 456//8 391//8
f 394//9 395//9 393//9
f 396//10 397//10 395//10
f 398//11 399//11 397//11
f 400//12 401//12 399//12
f 402//13 403//13 401//13
f 404//14 405//14 403//14
f 366//15 358//15 350//15
f 376//16 377//16 407//16
f 406//17 407//17 405//17
f 359//18 367//18 375//18
f 421//19 417//19 419//19
f 425//20 424//20 422//20
f 429//21 428//21 426//21
f 420//22 432//22 430//22
f 411//18 413//18 409//18
f 416//15 410//15 414//15
f 434//1 35//1 34//1
f 35//2 38//2 37//2
f 38//3 40//3 39//3
f 40//4 42//4 41//4
f 42//5 44//5 43//5
f 44//6 46//6 45//6
f 46//7 48//7 47//7
f 48//8 435//8 436//8
f 50//9 52//9 51//9
f 52//10 54//10 53//10
f 54//11 56//11 55//11
f 56//12 58//12 57//12
f 58//13 60//13 59//13
f 60//14 62//14 61//14
f 6//15 4//15 30//15
f 2//15 64//15 30//15
f 30//15 28//15 26//15
f 26//15 24//15 22//15
f 22//15 20//15 14//15
f 18//15 16//15 14//15
f 14//15 12//15 10//15
f 10//15 8//15 6//15
f 4//15 2//15 30//15
f 30//15 26//15 22//15
f 20//15 18//15 14//15
f 14//15 10//15 6//15
f 6//15 30//15 14//15
f 32//16 36//16 33//16
f 62//17 32//17 63//17
f 31//18 1//18 3//18
f 3//18 5//18 7//18
f 7//18 9//18 11//18
f 11//18 13//18 7//18
f 15//18 17//18 19//18
f 19//18 21//18 23//18
f 23//18 25//18 27//18
f 27//18 29//18 23//18
f 31//18 3//18 15//18
f 7//18 13//18 15//18
f 15//18 19//18 23//18
f 23//18 29//18 31//18
f 3//18 7//18 15//18
f 438//1 99//1 98//1
f 99//2 102//2 101//2
f 102//3 104//3 103//3
f 104//4 106//4 105//4
f 106//5 108//5 107//5
f 108//6 110//6 109//6
f 110//7 112//7 111//7
f 112//8 439//8 440//8
f 114//9 116//9 115//9
f 116//10 118//10 117//10
f 118//11 120//11 119//11
f 120//12 122//12 121//12
f 122//13 124//13 123//13
f 124//14 126//14 125//14
f 70//15 68//15 94//15
f 66//15 128//15 94//15
f 94//15 92//15 90//15
f 90//15 88//15 86//15
f 86//15 84//15 78//15
f 82//15 80//15 78//15
f 78//15 76//15 74//15
f 74//15 72//15 70//15
f 68//15 66//15 94//15
f 94//15 90//15 86//15
f 84//15 82//15 78//15
f 78//15 74//15 70//15
f 70//15 94//15 78//15
f 96//16 100//16 97//16
f 126//17 96//17 127//17
f 95//18 65//18 67//18
f 67//18 69//18 71//18
f 71//18 73//18 75//18
f 75//18 77//18 71//18
f 79//18 81//18 83//18
f 83//18 85//18 87//18
f 87//18 89//18 91//18
f 91//18 93//18 87//18
f 95//18 67//18 79//18
f 71//18 77//18 79//18
f 79//18 83//18 87//18
f 87//18 93//18 95//18
f 67//18 71//18 79//18
f 141//19 143//19 137//19
f 145//20 147//20 144//20
f 149//21 151//21 148//21
f 140//22 138//22 152//22
f 131//18 135//18 133//18
f 136//15 132//15 130//15
f 442//1 187//1 186//1
f 187//2 190//2 189//2
f 190//3 192//3 191//3
f 192//4 194//4 193//4
f 194//5 196//5 195//5
f 196//6 198//6 197//6
f 198//7 200//7 199//7
f 200//8 443//8 444//8
f 202//9 204//9 203//9
f 204//10 206//10 205//10
f 206//11 208//11 207//11
f 208//12 210//12 209//12
f 210//13 212//13 211//13
f 212//14 214//14 213//14
f 158//15 156//15 154//15
f 154//15 216//15 182//15
f 182//15 180//15 178//15
f 178//15 176//15 174//15
f 174//15 172//15 170//15
f 170//15 168//15 166//15
f 166//15 164//15 162//15
f 162//15 160//15 158//15
f 158//15 154//15 174//15
f 182//15 178//15 174//15
f 174//15 170//15 166//15
f 166//15 162//15 158//15
f 154//15 182//15 174//15
f 184//16 188//16 185//16
f 214//17 184//17 215//17
f 183//18 153//18 159//18
f 155//18 157//18 159//18
f 159//18 161//18 163//18
f 163//18 165//18 159//18
f 167//18 169//18 171//18
f 171//18 173//18 167//18
f 175//18 177//18 183//18
f 179//18 181//18 183//18
f 153//18 155//18 159//18
f 159//18 165//18 167//18
f 167//18 173//18 175//18
f 177//18 179//18 183//18
f 183//18 159//18 167//18
f 446//1 251//1 250//1
f 251//2 254//2 253//2
f 254//3 256//3 255//3
f 256//4 258//4 257//4
f 258//5 260//5 259//5
f 260//6 262//6 261//6
f 262//7 264//7 263//7
f 264//8 447//8 448//8
f 266//9 268//9 267//9
f 268//10 270//10 269//10
f 270//11 272//11 271//11
f 272//12 274//12 273//12
f 274//13 276//13 275//13
f 276//14 278//14 277//14
f 222//15 220//15 246//15
f 218//15 280//15 246//15
f 246//15 244//15 242//15
f 242//15 240//15 238//15
f 238//15 236//15 230//15
f 234//15 232//15 230//15
f 230//15 228//15 226//15
f 226//15 224//15 222//15
f 220//15 218//15 246//15
f 246//15 242//15 238//15
f 236//15 234//15 230//15
f 230//15 226//15 222//15
f 222//15 246//15 230//15
f 248//16 252//16 249//16
f 278//17 248//17 279//17
f 247//18 217//18 219//18
f 219//18 221//18 223//18
f 223//18 225//18 227//18
f 227//18 229//18 223//18
f 231//18 233//18 235//18
f 235//18 237//18 239//18
f 239//18 241//18 243//18
f 243//18 245//18 239//18
f 247//18 219//18 231//18
f 223//18 229//18 231//18
f 231//18 235//18 239//18
f 239//18 245//18 247//18
f 219//18 223//18 231//18
f 450//1 315//1 314//1
f 315//2 318//2 317//2
f 318//3 320//3 319//3
f 320//4 322//4 321//4
f 322//5 324//5 323//5
f 324//6 326//6 325//6
f 326//7 328//7 327//7
f 328//8 451//8 452//8
f 330//9 332//9 331//9
f 332//10 334//10 333//10
f 334//11 336//11 335//11
f 336//12 338//12 337//12
f 338//13 340//13 339//13
f 340//14 342//14 341//14
f 286//15 284//15 310//15
f 282//15 344//15 310//15
f 310//15 308//15 306//15
f 306//15 304//15 302//15
f 302//15 300//15 294//15
f 298//15 296//15 294//15
f 294//15 292//15 290//15
f 290//15 288//15 286//15
f 284//15 282//15 310//15
f 310//15 306//15 302//15
f 300//15 298//15 294//15
f 294//15 290//15 286//15
f 286//15 310//15 294//15
f 312//16 316//16 313//16
f 342//17 312//17 343//17
f 311//18 281//18 283//18
f 283//18 285//18 287//18
f 287//18 289//18 291//18
f 291//18 293//18 287//18
f 295//18 297//18 299//18
f 299//18 301//18 303//18
f 303//18 305//18 307//18
f 307//18 309//18 303//18
f 311//18 283//18 295//18
f 287//18 293//18 295//18
f 295//18 299//18 303//18
f 303//18 309//18 311//18
f 283//18 287//18 295//18
f 454//1 379//1 378//1
f 379//2 382//2 381//2
f 382//3 384//3 383//3
f 384//4 386//4 385//4
f 386//5 388//5 387//5
f 388//6 390//6 389//6
f 390//7 392//7 391//7
f 392//8 455//8 456//8
f 394//9 396//9 395//9
f 396//10 398//10 397//10
f 398//11 400//11 399//11
f 400//12 402//12 401//12
f 402//13 404//13 403//13
f 404//14 406//14 405//14
f 350//15 348//15 346//15
f 346//15 408//15 374//15
f 374//15 372//15 370//15
f 370//15 368//15 366//15
f 366//15 364//15 362//15
f 362//15 360//15 358//15
f 358//15 356//15 354//15
f 354//15 352//15 350//15
f 350//15 346//15 366//15
f 374//15 370//15 366//15
f 366//15 362//15 358//15
f 358//15 354//15 350//15
f 346//15 374//15 366//15
f 376//16 380//16 377//16
f 406//17 376//17 407//17
f 375//18 345//18 351//18
f 347//18 349//18 351//18
f 351//18 353//18 355//18
f 355//18 357//18 351//18
f 359//18 361//18 363//18
f 363//18 365//18 359//18
f 367//18 369//18 375//18
f 371//18 373//18 375//18
f 345//18 347//18 351//18
f 351//18 357//18 359//18
f 359//18 365//18 367//18
f 369//18 371//18 375//18
f 375//18 351//18 359//18
f 421//19 423//19 417//19
f 425//20 427//20 424//20
f 429//21 431//21 428//21
f 420//22 418//22 432//22
f 411//18 415//18 413//18
f 416//15 412//15 410//15
