# Blender v2.75 (sub 0) OBJ File: 'table.blend'
# www.blender.org
mtllib chair.mtl
o Cube.001_Cube.002
v -0.500000 0.250000 0.500000
v -0.500000 0.350000 0.500000
v -0.500000 0.250000 -0.500000
v -0.500000 0.350000 -0.500000
v 0.500000 0.250000 0.500000
v 0.500000 0.350000 0.500000
v 0.500000 0.250000 -0.500000
v 0.500000 0.350000 -0.500000
v -0.350000 0.327309 -0.400000
v -0.350000 1.627309 -0.400000
v -0.330866 0.327309 -0.396194
v -0.330866 1.627309 -0.396194
v -0.314645 0.327309 -0.385355
v -0.314645 1.627309 -0.385355
v -0.303806 0.327309 -0.369134
v -0.303806 1.627309 -0.369134
v -0.300000 0.327309 -0.350000
v -0.300000 1.627309 -0.350000
v -0.303806 0.327309 -0.330866
v -0.303806 1.627309 -0.330866
v -0.314645 0.327309 -0.314645
v -0.314645 1.627309 -0.314645
v -0.330866 0.327309 -0.303806
v -0.330866 1.627309 -0.303806
v -0.350000 0.327309 -0.300000
v -0.350000 1.627309 -0.300000
v -0.369134 0.327309 -0.303806
v -0.369134 1.627309 -0.303806
v -0.385355 0.327309 -0.314645
v -0.385355 1.627309 -0.314645
v -0.396194 0.327309 -0.330866
v -0.396194 1.627309 -0.330866
v -0.400000 0.327309 -0.350000
v -0.400000 1.627309 -0.350000
v -0.396194 0.327309 -0.369134
v -0.396194 1.627309 -0.369134
v -0.385355 0.327309 -0.385355
v -0.385355 1.627309 -0.385355
v -0.369134 0.327309 -0.396194
v -0.369134 1.627309 -0.396194
v 0.350000 0.327309 -0.400000
v 0.350000 1.627309 -0.400000
v 0.369134 0.327309 -0.396194
v 0.369134 1.627309 -0.396194
v 0.385355 0.327309 -0.385355
v 0.385355 1.627309 -0.385355
v 0.396194 0.327309 -0.369134
v 0.396194 1.627309 -0.369134
v 0.400000 0.327309 -0.350000
v 0.400000 1.627309 -0.350000
v 0.396194 0.327309 -0.330866
v 0.396194 1.627309 -0.330866
v 0.385355 0.327309 -0.314645
v 0.385355 1.627309 -0.314645
v 0.369134 0.327309 -0.303806
v 0.369134 1.627309 -0.303806
v 0.350000 0.327309 -0.300000
v 0.350000 1.627309 -0.300000
v 0.330866 0.327309 -0.303806
v 0.330866 1.627309 -0.303806
v 0.314645 0.327309 -0.314645
v 0.314645 1.627309 -0.314645
v 0.303806 0.327309 -0.330866
v 0.303806 1.627309 -0.330866
v 0.300000 0.327309 -0.350000
v 0.300000 1.627309 -0.350000
v 0.303806 0.327309 -0.369134
v 0.303806 1.627309 -0.369134
v 0.314645 0.327309 -0.385355
v 0.314645 1.627309 -0.385355
v 0.330866 0.327309 -0.396194
v 0.330866 1.627309 -0.396194
v -0.500000 1.450000 -0.300000
v -0.500000 1.550000 -0.300000
v -0.500000 1.450000 -0.400000
v -0.500000 1.550000 -0.400000
v 0.500000 1.450000 -0.300000
v 0.500000 1.550000 -0.300000
v 0.500000 1.450000 -0.400000
v 0.500000 1.550000 -0.400000
v -0.350000 -1.000000 0.300000
v -0.350000 0.300000 0.300000
v -0.330866 -1.000000 0.303806
v -0.330866 0.300000 0.303806
v -0.314645 -1.000000 0.314645
v -0.314645 0.300000 0.314645
v -0.303806 -1.000000 0.330866
v -0.303806 0.300000 0.330866
v -0.300000 -1.000000 0.350000
v -0.300000 0.300000 0.350000
v -0.303806 -1.000000 0.369134
v -0.303806 0.300000 0.369134
v -0.314645 -1.000000 0.385355
v -0.314645 0.300000 0.385355
v -0.330866 -1.000000 0.396194
v -0.330866 0.300000 0.396194
v -0.350000 -1.000000 0.400000
v -0.350000 0.300000 0.400000
v -0.369134 -1.000000 0.396194
v -0.369134 0.300000 0.396194
v -0.385355 -1.000000 0.385355
v -0.385355 0.300000 0.385355
v -0.396194 -1.000000 0.369134
v -0.396194 0.300000 0.369134
v -0.400000 -1.000000 0.350000
v -0.400000 0.300000 0.350000
v -0.396194 -1.000000 0.330866
v -0.396194 0.300000 0.330866
v -0.385355 -1.000000 0.314645
v -0.385355 0.300000 0.314645
v -0.369134 -1.000000 0.303806
v -0.369134 0.300000 0.303806
v -0.350000 -1.000000 -0.400000
v -0.350000 0.300000 -0.400000
v -0.330866 -1.000000 -0.396194
v -0.330866 0.300000 -0.396194
v -0.314645 -1.000000 -0.385355
v -0.314645 0.300000 -0.385355
v -0.303806 -1.000000 -0.369134
v -0.303806 0.300000 -0.369134
v -0.300000 -1.000000 -0.350000
v -0.300000 0.300000 -0.350000
v -0.303806 -1.000000 -0.330866
v -0.303806 0.300000 -0.330866
v -0.314645 -1.000000 -0.314645
v -0.314645 0.300000 -0.314645
v -0.330866 -1.000000 -0.303806
v -0.330866 0.300000 -0.303806
v -0.350000 -1.000000 -0.300000
v -0.350000 0.300000 -0.300000
v -0.369134 -1.000000 -0.303806
v -0.369134 0.300000 -0.303806
v -0.385355 -1.000000 -0.314645
v -0.385355 0.300000 -0.314645
v -0.396194 -1.000000 -0.330866
v -0.396194 0.300000 -0.330866
v -0.400000 -1.000000 -0.350000
v -0.400000 0.300000 -0.350000
v -0.396194 -1.000000 -0.369134
v -0.396194 0.300000 -0.369134
v -0.385355 -1.000000 -0.385355
v -0.385355 0.300000 -0.385355
v -0.369134 -1.000000 -0.396194
v -0.369134 0.300000 -0.396194
v 0.350000 -1.000000 -0.400000
v 0.350000 0.300000 -0.400000
v 0.369134 -1.000000 -0.396194
v 0.369134 0.300000 -0.396194
v 0.385355 -1.000000 -0.385355
v 0.385355 0.300000 -0.385355
v 0.396194 -1.000000 -0.369134
v 0.396194 0.300000 -0.369134
v 0.400000 -1.000000 -0.350000
v 0.400000 0.300000 -0.350000
v 0.396194 -1.000000 -0.330866
v 0.396194 0.300000 -0.330866
v 0.385355 -1.000000 -0.314645
v 0.385355 0.300000 -0.314645
v 0.369134 -1.000000 -0.303806
v 0.369134 0.300000 -0.303806
v 0.350000 -1.000000 -0.300000
v 0.350000 0.300000 -0.300000
v 0.330866 -1.000000 -0.303806
v 0.330866 0.300000 -0.303806
v 0.314645 -1.000000 -0.314645
v 0.314645 0.300000 -0.314645
v 0.303806 -1.000000 -0.330866
v 0.303806 0.300000 -0.330866
v 0.300000 -1.000000 -0.350000
v 0.300000 0.300000 -0.350000
v 0.303806 -1.000000 -0.369134
v 0.303806 0.300000 -0.369134
v 0.314645 -1.000000 -0.385355
v 0.314645 0.300000 -0.385355
v 0.330866 -1.000000 -0.396194
v 0.330866 0.300000 -0.396194
v 0.350000 -1.000000 0.300000
v 0.350000 0.300000 0.300000
v 0.369134 -1.000000 0.303806
v 0.369134 0.300000 0.303806
v 0.385355 -1.000000 0.314645
v 0.385355 0.300000 0.314645
v 0.396194 -1.000000 0.330866
v 0.396194 0.300000 0.330866
v 0.400000 -1.000000 0.350000
v 0.400000 0.300000 0.350000
v 0.396194 -1.000000 0.369134
v 0.396194 0.300000 0.369134
v 0.385355 -1.000000 0.385355
v 0.385355 0.300000 0.385355
v 0.369134 -1.000000 0.396194
v 0.369134 0.300000 0.396194
v 0.350000 -1.000000 0.400000
v 0.350000 0.300000 0.400000
v 0.330866 -1.000000 0.396194
v 0.330866 0.300000 0.396194
v 0.314645 -1.000000 0.385355
v 0.314645 0.300000 0.385355
v 0.303806 -1.000000 0.369134
v 0.303806 0.300000 0.369134
v 0.300000 -1.000000 0.350000
v 0.300000 0.300000 0.350000
v 0.303806 -1.000000 0.330866
v 0.303806 0.300000 0.330866
v 0.314645 -1.000000 0.314645
v 0.314645 0.300000 0.314645
v 0.330866 -1.000000 0.303806
v 0.330866 0.300000 0.303806
vn -1.000000 0.000000 0.000000
vn 0.000000 0.000000 -1.000000
vn 1.000000 0.000000 0.000000
vn 0.000000 0.000000 1.000000
vn 0.000000 -1.000000 0.000000
vn 0.000000 1.000000 0.000000
vn 0.195100 0.000000 -0.980800
vn 0.555600 0.000000 -0.831500
vn 0.831500 0.000000 -0.555600
vn 0.980800 0.000000 -0.195100
vn 0.980800 0.000000 0.195100
vn 0.831500 0.000000 0.555600
vn 0.555600 0.000000 0.831500
vn 0.195100 0.000000 0.980800
vn -0.195100 0.000000 0.980800
vn -0.555600 0.000000 0.831500
vn -0.831500 0.000000 0.555600
vn -0.980800 0.000000 0.195100
vn -0.980800 0.000000 -0.195100
vn -0.831500 0.000000 -0.555600
vn -0.195100 0.000000 -0.980800
vn -0.555600 0.000000 -0.831500
usemtl None
s off
f 4//1 3//1 1//1
f 8//2 7//2 3//2
f 6//3 5//3 7//3
f 2//4 1//4 5//4
f 3//5 7//5 5//5
f 8//6 4//6 2//6
f 10//7 12//7 11//7
f 12//8 14//8 13//8
f 14//9 16//9 15//9
f 16//10 18//10 17//10
f 18//11 20//11 19//11
f 20//12 22//12 21//12
f 22//13 24//13 23//13
f 24//14 26//14 25//14
f 26//15 28//15 27//15
f 28//16 30//16 29//16
f 30//17 32//17 31//17
f 32//18 34//18 33//18
f 34//19 36//19 35//19
f 36//20 38//20 37//20
f 12//6 40//6 28//6
f 40//21 10//21 9//21
f 38//22 40//22 39//22
f 9//5 13//5 25//5
f 42//7 44//7 43//7
f 44//8 46//8 45//8
f 46//9 48//9 47//9
f 48//10 50//10 49//10
f 50//11 52//11 51//11
f 52//12 54//12 53//12
f 54//13 56//13 55//13
f 56//14 58//14 57//14
f 58//15 60//15 59//15
f 60//16 62//16 61//16
f 62//17 64//17 63//17
f 64//18 66//18 65//18
f 66//19 68//19 67//19
f 68//20 70//20 69//20
f 44//6 72//6 60//6
f 72//21 42//21 41//21
f 70//22 72//22 71//22
f 41//5 45//5 57//5
f 76//1 75//1 73//1
f 80//2 79//2 75//2
f 78//3 77//3 79//3
f 74//4 73//4 77//4
f 75//5 79//5 77//5
f 80//6 76//6 74//6
f 82//7 84//7 83//7
f 84//8 86//8 85//8
f 86//9 88//9 87//9
f 88//10 90//10 89//10
f 90//11 92//11 91//11
f 92//12 94//12 93//12
f 94//13 96//13 95//13
f 96//14 98//14 97//14
f 98//15 100//15 99//15
f 100//16 102//16 101//16
f 102//17 104//17 103//17
f 104//18 106//18 105//18
f 106//19 108//19 107//19
f 108//20 110//20 109//20
f 84//6 112//6 100//6
f 112//21 82//21 81//21
f 110//22 112//22 111//22
f 81//5 85//5 97//5
f 114//7 116//7 115//7
f 116//8 118//8 117//8
f 118//9 120//9 119//9
f 120//10 122//10 121//10
f 122//11 124//11 123//11
f 124//12 126//12 125//12
f 126//13 128//13 127//13
f 128//14 130//14 129//14
f 130//15 132//15 131//15
f 132//16 134//16 133//16
f 134//17 136//17 135//17
f 136//18 138//18 137//18
f 138//19 140//19 139//19
f 140//20 142//20 141//20
f 116//6 144//6 132//6
f 144//21 114//21 113//21
f 142//22 144//22 143//22
f 113//5 117//5 129//5
f 146//7 148//7 147//7
f 148//8 150//8 149//8
f 150//9 152//9 151//9
f 152//10 154//10 153//10
f 154//11 156//11 155//11
f 156//12 158//12 157//12
f 158//13 160//13 159//13
f 160//14 162//14 161//14
f 162//15 164//15 163//15
f 164//16 166//16 165//16
f 166//17 168//17 167//17
f 168//18 170//18 169//18
f 170//19 172//19 171//19
f 172//20 174//20 173//20
f 148//6 176//6 164//6
f 176//21 146//21 145//21
f 174//22 176//22 175//22
f 145//5 149//5 161//5
f 178//7 180//7 179//7
f 180//8 182//8 181//8
f 182//9 184//9 183//9
f 184//10 186//10 185//10
f 186//11 188//11 187//11
f 188//12 190//12 189//12
f 190//13 192//13 191//13
f 192//14 194//14 193//14
f 194//15 196//15 195//15
f 196//16 198//16 197//16
f 198//17 200//17 199//17
f 200//18 202//18 201//18
f 202//19 204//19 203//19
f 204//20 206//20 205//20
f 180//6 208//6 196//6
f 208//21 178//21 177//21
f 206//22 208//22 207//22
f 177//5 181//5 193//5
f 2//1 4//1 1//1
f 4//2 8//2 3//2
f 8//3 6//3 7//3
f 6//4 2//4 5//4
f 1//5 3//5 5//5
f 6//6 8//6 2//6
f 9//7 10//7 11//7
f 11//8 12//8 13//8
f 13//9 14//9 15//9
f 15//10 16//10 17//10
f 17//11 18//11 19//11
f 19//12 20//12 21//12
f 21//13 22//13 23//13
f 23//14 24//14 25//14
f 25//15 26//15 27//15
f 27//16 28//16 29//16
f 29//17 30//17 31//17
f 31//18 32//18 33//18
f 33//19 34//19 35//19
f 35//20 36//20 37//20
f 20//6 14//6 12//6
f 20//6 18//6 16//6
f 28//6 22//6 20//6
f 28//6 26//6 24//6
f 32//6 30//6 28//6
f 28//6 34//6 32//6
f 40//6 38//6 36//6
f 12//6 10//6 40//6
f 20//6 16//6 14//6
f 28//6 24//6 22//6
f 36//6 34//6 28//6
f 28//6 40//6 36//6
f 28//6 20//6 12//6
f 39//21 40//21 9//21
f 37//22 38//22 39//22
f 33//5 39//5 9//5
f 33//5 35//5 37//5
f 29//5 31//5 33//5
f 25//5 27//5 29//5
f 21//5 23//5 25//5
f 17//5 19//5 21//5
f 13//5 15//5 17//5
f 9//5 11//5 13//5
f 33//5 37//5 39//5
f 9//5 29//5 33//5
f 17//5 21//5 25//5
f 25//5 13//5 17//5
f 25//5 29//5 9//5
f 41//7 42//7 43//7
f 43//8 44//8 45//8
f 45//9 46//9 47//9
f 47//10 48//10 49//10
f 49//11 50//11 51//11
f 51//12 52//12 53//12
f 53//13 54//13 55//13
f 55//14 56//14 57//14
f 57//15 58//15 59//15
f 59//16 60//16 61//16
f 61//17 62//17 63//17
f 63//18 64//18 65//18
f 65//19 66//19 67//19
f 67//20 68//20 69//20
f 52//6 46//6 44//6
f 52//6 50//6 48//6
f 60//6 54//6 52//6
f 60//6 58//6 56//6
f 64//6 62//6 60//6
f 60//6 66//6 64//6
f 72//6 70//6 68//6
f 44//6 42//6 72//6
f 52//6 48//6 46//6
f 60//6 56//6 54//6
f 68//6 66//6 60//6
f 60//6 72//6 68//6
f 60//6 52//6 44//6
f 71//21 72//21 41//21
f 69//22 70//22 71//22
f 65//5 71//5 41//5
f 65//5 67//5 69//5
f 61//5 63//5 65//5
f 57//5 59//5 61//5
f 53//5 55//5 57//5
f 49//5 51//5 53//5
f 45//5 47//5 49//5
f 41//5 43//5 45//5
f 65//5 69//5 71//5
f 41//5 61//5 65//5
f 49//5 53//5 57//5
f 57//5 45//5 49//5
f 57//5 61//5 41//5
f 74//1 76//1 73//1
f 76//2 80//2 75//2
f 80//3 78//3 79//3
f 78//4 74//4 77//4
f 73//5 75//5 77//5
f 78//6 80//6 74//6
f 81//7 82//7 83//7
f 83//8 84//8 85//8
f 85//9 86//9 87//9
f 87//10 88//10 89//10
f 89//11 90//11 91//11
f 91//12 92//12 93//12
f 93//13 94//13 95//13
f 95//14 96//14 97//14
f 97//15 98//15 99//15
f 99//16 100//16 101//16
f 101//17 102//17 103//17
f 103//18 104//18 105//18
f 105//19 106//19 107//19
f 107//20 108//20 109//20
f 92//6 86//6 84//6
f 92//6 90//6 88//6
f 100//6 94//6 92//6
f 100//6 98//6 96//6
f 104//6 102//6 100//6
f 100//6 106//6 104//6
f 112//6 110//6 108//6
f 84//6 82//6 112//6
f 92//6 88//6 86//6
f 100//6 96//6 94//6
f 108//6 106//6 100//6
f 100//6 112//6 108//6
f 100//6 92//6 84//6
f 111//21 112//21 81//21
f 109//22 110//22 111//22
f 105//5 111//5 81//5
f 105//5 107//5 109//5
f 101//5 103//5 105//5
f 97//5 99//5 101//5
f 93//5 95//5 97//5
f 89//5 91//5 93//5
f 85//5 87//5 89//5
f 81//5 83//5 85//5
f 105//5 109//5 111//5
f 81//5 101//5 105//5
f 89//5 93//5 97//5
f 97//5 85//5 89//5
f 97//5 101//5 81//5
f 113//7 114//7 115//7
f 115//8 116//8 117//8
f 117//9 118//9 119//9
f 119//10 120//10 121//10
f 121//11 122//11 123//11
f 123//12 124//12 125//12
f 125//13 126//13 127//13
f 127//14 128//14 129//14
f 129//15 130//15 131//15
f 131//16 132//16 133//16
f 133//17 134//17 135//17
f 135//18 136//18 137//18
f 137//19 138//19 139//19
f 139//20 140//20 141//20
f 124//6 118//6 116//6
f 124//6 122//6 120//6
f 132//6 126//6 124//6
f 132//6 130//6 128//6
f 136//6 134//6 132//6
f 132//6 138//6 136//6
f 144//6 142//6 140//6
f 116//6 114//6 144//6
f 124//6 120//6 118//6
f 132//6 128//6 126//6
f 140//6 138//6 132//6
f 132//6 144//6 140//6
f 132//6 124//6 116//6
f 143//21 144//21 113//21
f 141//22 142//22 143//22
f 137//5 143//5 113//5
f 137//5 139//5 141//5
f 133//5 135//5 137//5
f 129//5 131//5 133//5
f 125//5 127//5 129//5
f 121//5 123//5 125//5
f 117//5 119//5 121//5
f 113//5 115//5 117//5
f 137//5 141//5 143//5
f 113//5 133//5 137//5
f 121//5 125//5 129//5
f 129//5 117//5 121//5
f 129//5 133//5 113//5
f 145//7 146//7 147//7
f 147//8 148//8 149//8
f 149//9 150//9 151//9
f 151//10 152//10 153//10
f 153//11 154//11 155//11
f 155//12 156//12 157//12
f 157//13 158//13 159//13
f 159//14 160//14 161//14
f 161//15 162//15 163//15
f 163//16 164//16 165//16
f 165//17 166//17 167//17
f 167//18 168//18 169//18
f 169//19 170//19 171//19
f 171//20 172//20 173//20
f 156//6 150//6 148//6
f 156//6 154//6 152//6
f 164//6 158//6 156//6
f 164//6 162//6 160//6
f 168//6 166//6 164//6
f 164//6 170//6 168//6
f 176//6 174//6 172//6
f 148//6 146//6 176//6
f 156//6 152//6 150//6
f 164//6 160//6 158//6
f 172//6 170//6 164//6
f 164//6 176//6 172//6
f 164//6 156//6 148//6
f 175//21 176//21 145//21
f 173//22 174//22 175//22
f 169//5 175//5 145//5
f 169//5 171//5 173//5
f 165//5 167//5 169//5
f 161//5 163//5 165//5
f 157//5 159//5 161//5
f 153//5 155//5 157//5
f 149//5 151//5 153//5
f 145//5 147//5 149//5
f 169//5 173//5 175//5
f 145//5 165//5 169//5
f 153//5 157//5 161//5
f 161//5 149//5 153//5
f 161//5 165//5 145//5
f 177//7 178//7 179//7
f 179//8 180//8 181//8
f 181//9 182//9 183//9
f 183//10 184//10 185//10
f 185//11 186//11 187//11
f 187//12 188//12 189//12
f 189//13 190//13 191//13
f 191//14 192//14 193//14
f 193//15 194//15 195//15
f 195//16 196//16 197//16
f 197//17 198//17 199//17
f 199//18 200//18 201//18
f 201//19 202//19 203//19
f 203//20 204//20 205//20
f 188//6 182//6 180//6
f 188//6 186//6 184//6
f 196//6 190//6 188//6
f 196//6 194//6 192//6
f 200//6 198//6 196//6
f 196//6 202//6 200//6
f 208//6 206//6 204//6
f 180//6 178//6 208//6
f 188//6 184//6 182//6
f 196//6 192//6 190//6
f 204//6 202//6 196//6
f 196//6 208//6 204//6
f 196//6 188//6 180//6
f 207//21 208//21 177//21
f 205//22 206//22 207//22
f 201//5 207//5 177//5
f 201//5 203//5 205//5
f 197//5 199//5 201//5
f 193//5 195//5 197//5
f 189//5 191//5 193//5
f 185//5 187//5 189//5
f 181//5 183//5 185//5
f 177//5 179//5 181//5
f 201//5 205//5 207//5
f 177//5 197//5 201//5
f 185//5 189//5 193//5
f 193//5 181//5 185//5
f 193//5 197//5 177//5
