# Blender v2.78 (sub 0) OBJ File: 'fridge.blend'
# www.blender.org
o handle_collider_Cube.002
v 0.950000 0.500000 0.850000
v 0.950000 1.500000 0.850000
v 0.950000 0.500000 0.750000
v 0.950000 1.500000 0.750000
v 1.050000 0.500000 0.850000
v 1.050000 1.500000 0.850000
v 1.050000 0.500000 0.750000
v 1.050000 1.500000 0.750000
vn -1.0000 0.0000 0.0000
vn 0.0000 0.0000 -1.0000
vn 1.0000 0.0000 0.0000
vn 0.0000 0.0000 1.0000
vn 0.0000 -1.0000 0.0000
vn 0.0000 1.0000 0.0000
s off
f 4//1 1//1 2//1
f 8//2 3//2 4//2
f 6//3 7//3 8//3
f 2//4 5//4 6//4
f 3//5 5//5 1//5
f 8//6 2//6 6//6
f 4//1 3//1 1//1
f 8//2 7//2 3//2
f 6//3 5//3 7//3
f 2//4 1//4 5//4
f 3//5 7//5 5//5
f 8//6 4//6 2//6
o Door_collider_Cube.001
v 0.900000 -1.000000 1.000000
v 0.900000 3.000000 1.000000
v 0.900000 -1.000000 -1.000000
v 0.900000 3.000000 -1.000000
v 1.000000 -1.000000 1.000000
v 1.000000 3.000000 1.000000
v 1.000000 -1.000000 -1.000000
v 1.000000 3.000000 -1.000000
vn -1.0000 0.0000 0.0000
vn 0.0000 0.0000 -1.0000
vn 1.0000 0.0000 0.0000
vn 0.0000 0.0000 1.0000
vn 0.0000 -1.0000 0.0000
vn 0.0000 1.0000 0.0000
s off
f 12//7 9//7 10//7
f 16//8 11//8 12//8
f 14//9 15//9 16//9
f 10//10 13//10 14//10
f 11//11 13//11 9//11
f 16//12 10//12 14//12
f 12//7 11//7 9//7
f 16//8 15//8 11//8
f 14//9 13//9 15//9
f 10//10 9//10 13//10
f 11//11 15//11 13//11
f 16//12 12//12 10//12
