# Blender v2.78 (sub 0) OBJ File: 'fridge.blend'
# www.blender.org
mtllib fridge_door_open.mtl
o Cube_Cube.002
v 2.175121 0.500000 0.239281
v 2.175121 1.500000 0.239281
v 2.104410 0.500000 0.168570
v 2.104410 1.500000 0.168570
v 2.245831 0.500000 0.168570
v 2.245831 1.500000 0.168570
v 2.175121 0.500000 0.097860
v 2.175121 1.500000 0.097860
vn -0.7071 0.0000 0.7071
vn -0.7071 0.0000 -0.7071
vn 0.7071 0.0000 -0.7071
vn 0.7071 0.0000 0.7071
vn 0.0000 -1.0000 0.0000
vn 0.0000 1.0000 0.0000
usemtl None
s off
f 2//1 4//1 3//1 1//1
f 4//2 8//2 7//2 3//2
f 8//3 6//3 5//3 7//3
f 6//4 2//4 1//4 5//4
f 1//5 3//5 7//5 5//5
f 6//6 8//6 4//6 2//6
o Cube.005_Cube.001
v 2.264508 -1.000000 0.442739
v 2.264508 3.000000 0.442739
v 0.804453 -1.000000 -0.924096
v 0.804453 3.000000 -0.924096
v 2.332850 -1.000000 0.369736
v 2.332850 3.000000 0.369736
v 0.872794 -1.000000 -0.997099
v 0.872794 3.000000 -0.997099
vn -0.6834 0.0000 0.7300
vn -0.7300 0.0000 -0.6834
vn 0.6834 0.0000 -0.7300
vn 0.7300 0.0000 0.6834
vn 0.0000 -1.0000 0.0000
vn 0.0000 1.0000 0.0000
usemtl None
s off
f 10//7 12//7 11//7 9//7
f 12//8 16//8 15//8 11//8
f 16//9 14//9 13//9 15//9
f 14//10 10//10 9//10 13//10
f 9//11 11//11 15//11 13//11
f 14//12 16//12 12//12 10//12
