# Blender v2.78 (sub 0) OBJ File: 'fridge.blend'
# www.blender.org
o Fridge_Door_Cube.003
v 0.903614 -0.986185 0.988137
v 0.903614 2.991008 0.988137
v 0.903614 -0.986185 -0.993283
v 0.903614 2.991008 -0.993283
v 0.998404 -0.986185 0.988137
v 0.998404 2.991008 0.988137
v 0.998404 -0.986185 -0.993283
v 0.998404 2.991008 -0.993283
v 0.948796 0.504414 0.848690
v 0.948796 1.500783 0.848690
v 1.051208 0.504414 0.848690
v 1.051208 1.500783 0.848690
v 1.051208 0.504414 0.750680
v 1.051208 1.500783 0.750680
v 1.031363 0.504414 0.750680
v 1.031363 1.500783 0.750680
v 0.968641 1.500783 0.824340
v 0.968641 0.504414 0.824340
v 1.031363 0.504414 0.824340
v 1.031363 1.500783 0.824340
vt 0.9761 0.7725
vt 0.8479 0.2114
vt 0.9761 0.2114
vt 0.8047 0.8183
vt 0.7947 0.2220
vt 0.8047 0.2220
vt 0.5228 0.9962
vt 0.3590 0.1714
vt 0.5228 0.1714
vt 0.8047 0.2220
vt 0.8147 0.8183
vt 0.8047 0.8183
vt 0.8247 0.4839
vt 0.8147 0.5964
vt 0.8147 0.4839
vt 0.8147 0.4839
vt 0.8247 0.3714
vt 0.8247 0.4839
vt 0.8246 0.6196
vt 0.8244 0.7162
vt 0.8244 0.5964
vt 0.8239 0.7458
vt 0.8234 0.5964
vt 0.8239 0.5964
vt 0.8147 0.2220
vt 0.8255 0.3714
vt 0.8147 0.3714
vt 0.8244 0.7162
vt 0.8243 0.6196
vt 0.8244 0.5964
vt 0.8234 0.7458
vt 0.8213 0.5964
vt 0.8234 0.5964
vt 0.8249 0.7162
vt 0.8246 0.6930
vt 0.8249 0.6930
vt 0.8213 0.7458
vt 0.8147 0.5964
vt 0.8213 0.5964
vt 0.9916 0.5010
vt 0.9843 0.2505
vt 0.9916 0.2505
vt 0.8239 0.7162
vt 0.8243 0.6930
vt 0.8479 0.7725
vt 0.7947 0.8183
vt 0.3590 0.9962
vt 0.8147 0.2220
vt 0.8247 0.5964
vt 0.8147 0.3714
vt 0.8234 0.7458
vt 0.8255 0.2220
vt 0.8213 0.7458
vt 0.8147 0.7458
vt 0.9843 0.5010
vt 0.8239 0.6930
vn -1.0000 0.0000 0.0000
vn 0.0000 0.0000 -1.0000
vn 1.0000 0.0000 0.0000
vn 0.0000 0.0000 1.0000
vn 0.0000 -1.0000 0.0000
vn 0.0000 1.0000 0.0000
s off
f 2/1/1 3/2/1 1/3/1
f 4/4/2 7/5/2 3/6/2
f 8/7/3 5/8/3 7/9/3
f 6/10/4 1/11/4 5/12/4
f 7/13/5 1/14/5 3/15/5
f 4/16/6 6/17/6 8/18/6
f 18/19/5 11/20/5 9/21/5
f 14/22/3 11/23/3 13/24/3
f 12/25/4 9/26/4 11/27/4
f 12/28/6 17/29/6 10/30/6
f 16/31/2 13/32/2 15/33/2
f 13/34/5 19/35/5 15/36/5
f 17/37/2 19/38/2 18/39/2
f 15/40/1 20/41/1 16/42/1
f 14/43/6 20/44/6 12/28/6
f 2/1/1 4/45/1 3/2/1
f 4/4/2 8/46/2 7/5/2
f 8/7/3 6/47/3 5/8/3
f 6/10/4 2/48/4 1/11/4
f 7/13/5 5/49/5 1/14/5
f 4/16/6 2/50/6 6/17/6
f 18/19/5 19/35/5 11/20/5
f 14/22/3 12/51/3 11/23/3
f 12/25/4 10/52/4 9/26/4
f 12/28/6 20/44/6 17/29/6
f 16/31/2 14/53/2 13/32/2
f 13/34/5 11/20/5 19/35/5
f 17/37/2 20/54/2 19/38/2
f 15/40/1 19/55/1 20/41/1
f 14/43/6 16/56/6 20/44/6
o Fridge_Cube
v -0.989570 -0.986826 1.000005
v -0.989570 2.992241 1.000005
v -0.989570 -0.986826 -0.999995
v -0.989570 2.992241 -0.999995
v 0.873980 -0.986826 1.000005
v 0.873980 2.992241 1.000005
v 0.873980 -0.986826 -0.999995
v 0.873980 2.992241 -0.999995
v 0.873980 -0.908096 0.915532
v 0.873980 2.913701 0.915532
v 0.873980 -0.908096 -0.915521
v 0.873980 2.913701 -0.915521
v -0.876599 -0.908096 0.915532
v -0.876599 2.913701 0.915532
v -0.876599 -0.908096 -0.915521
v -0.876599 2.913701 -0.915521
vt 0.0050 0.4939
vt 0.2185 0.9926
vt 0.0050 0.9926
vt 0.2178 1.0000
vt 0.4168 0.4987
vt 0.2178 0.4987
vt 0.8266 0.1048
vt 0.8250 0.5936
vt 0.8250 0.1147
vt 0.0074 0.5031
vt 0.2064 1.0018
vt 0.0074 1.0018
vt 0.2178 0.7493
vt 0.4168 0.7493
vt 0.4168 1.0000
vt 0.9013 0.5359
vt 0.9618 0.4438
vt 0.9607 0.5388
vt 0.7900 0.6035
vt 0.8266 0.6035
vt 0.7915 0.1147
vt 0.7900 0.1048
vt 0.7915 0.5936
vt 0.9024 0.4409
vt 0.9629 0.3444
vt 0.9618 0.4438
vt 0.9285 0.8512
vt 0.9581 0.7576
vt 0.9570 0.8526
vt 0.9001 0.8498
vt 0.9297 0.7562
vt 0.9285 0.8512
vt 0.9592 0.6626
vt 0.8987 0.7547
vt 0.8998 0.6597
vt 0.2185 0.4939
vt 0.2064 0.5031
vt 0.4168 0.7493
vt 0.2178 0.7493
vt 0.9024 0.4409
vt 0.9035 0.3416
vt 0.9297 0.7562
vt 0.9012 0.7548
vt 0.9581 0.7576
vn -1.0000 0.0000 0.0000
vn 0.0000 0.0000 -1.0000
vn 1.0000 0.0000 0.0000
vn 0.0000 0.0000 1.0000
vn 0.0000 -1.0000 0.0000
vn 0.0000 1.0000 0.0000
s off
f 22/57/7 23/58/7 21/59/7
f 24/60/8 27/61/8 23/62/8
f 26/63/9 29/64/9 30/65/9
f 26/66/10 21/67/10 25/68/10
f 27/61/11 21/69/11 23/62/11
f 24/60/12 26/70/12 28/71/12
f 29/72/8 34/73/8 30/74/8
f 27/75/9 29/64/9 25/76/9
f 26/63/9 32/77/9 28/78/9
f 28/78/9 31/79/9 27/75/9
f 36/80/9 33/81/9 35/82/9
f 31/83/12 33/84/12 29/85/12
f 30/86/11 36/87/11 32/88/11
f 32/89/10 35/90/10 31/91/10
f 22/57/7 24/92/7 23/58/7
f 24/60/8 28/71/8 27/61/8
f 26/63/9 25/76/9 29/64/9
f 26/66/10 22/93/10 21/67/10
f 27/61/11 25/94/11 21/69/11
f 24/60/12 22/95/12 26/70/12
f 29/72/8 33/96/8 34/73/8
f 27/75/9 31/79/9 29/64/9
f 26/63/9 30/65/9 32/77/9
f 28/78/9 32/77/9 31/79/9
f 36/80/9 34/97/9 33/81/9
f 31/83/12 35/98/12 33/84/12
f 30/86/11 34/99/11 36/87/11
f 32/89/10 36/100/10 35/90/10
o Cube_Cube.002
v 0.950000 0.500000 0.850000
v 0.950000 1.500000 0.850000
v 0.950000 0.500000 0.750000
v 0.950000 1.500000 0.750000
v 1.050000 0.500000 0.850000
v 1.050000 1.500000 0.850000
v 1.050000 0.500000 0.750000
v 1.050000 1.500000 0.750000
vn -1.0000 0.0000 0.0000
vn 0.0000 0.0000 -1.0000
vn 1.0000 0.0000 0.0000
vn 0.0000 0.0000 1.0000
vn 0.0000 -1.0000 0.0000
vn 0.0000 1.0000 0.0000
s off
f 40//13 37//13 38//13
f 44//14 39//14 40//14
f 42//15 43//15 44//15
f 38//16 41//16 42//16
f 39//17 41//17 37//17
f 44//18 38//18 42//18
f 40//13 39//13 37//13
f 44//14 43//14 39//14
f 42//15 41//15 43//15
f 38//16 37//16 41//16
f 39//17 43//17 41//17
f 44//18 40//18 38//18
o Cube.005_Cube.001
v 0.900000 -1.000000 1.000000
v 0.900000 3.000000 1.000000
v 0.900000 -1.000000 -1.000000
v 0.900000 3.000000 -1.000000
v 1.000000 -1.000000 1.000000
v 1.000000 3.000000 1.000000
v 1.000000 -1.000000 -1.000000
v 1.000000 3.000000 -1.000000
vn -1.0000 0.0000 0.0000
vn 0.0000 0.0000 -1.0000
vn 1.0000 0.0000 0.0000
vn 0.0000 0.0000 1.0000
vn 0.0000 -1.0000 0.0000
vn 0.0000 1.0000 0.0000
s off
f 48//19 45//19 46//19
f 52//20 47//20 48//20
f 50//21 51//21 52//21
f 46//22 49//22 50//22
f 47//23 49//23 45//23
f 52//24 46//24 50//24
f 48//19 47//19 45//19
f 52//20 51//20 47//20
f 50//21 49//21 51//21
f 46//22 45//22 49//22
f 47//23 51//23 49//23
f 52//24 48//24 46//24
o Cube.004_Cube.001
v -0.997083 -1.000000 1.000000
v -0.997083 3.000000 1.000000
v -0.997083 -1.000000 0.900000
v -0.997083 3.000000 0.900000
v 0.882917 -1.000000 1.000000
v 0.882917 3.000000 1.000000
v 0.882917 -1.000000 0.900000
v 0.882917 3.000000 0.900000
vn -1.0000 0.0000 0.0000
vn 0.0000 0.0000 -1.0000
vn 1.0000 0.0000 0.0000
vn 0.0000 0.0000 1.0000
vn 0.0000 -1.0000 0.0000
vn 0.0000 1.0000 0.0000
s off
f 56//25 53//25 54//25
f 60//26 55//26 56//26
f 58//27 59//27 60//27
f 54//28 57//28 58//28
f 55//29 57//29 53//29
f 60//30 54//30 58//30
f 56//25 55//25 53//25
f 60//26 59//26 55//26
f 58//27 57//27 59//27
f 54//28 53//28 57//28
f 55//29 59//29 57//29
f 60//30 56//30 54//30
o Cube.003_Cube.001
v -1.000000 -1.000000 1.000000
v -1.000000 3.000000 1.000000
v -1.000000 -1.000000 -1.000000
v -1.000000 3.000000 -1.000000
v -0.900000 -1.000000 1.000000
v -0.900000 3.000000 1.000000
v -0.900000 -1.000000 -1.000000
v -0.900000 3.000000 -1.000000
vn -1.0000 0.0000 0.0000
vn 0.0000 0.0000 -1.0000
vn 1.0000 0.0000 0.0000
vn 0.0000 0.0000 1.0000
vn 0.0000 -1.0000 0.0000
vn 0.0000 1.0000 0.0000
s off
f 64//31 61//31 62//31
f 68//32 63//32 64//32
f 66//33 67//33 68//33
f 62//34 65//34 66//34
f 63//35 65//35 61//35
f 68//36 62//36 66//36
f 64//31 63//31 61//31
f 68//32 67//32 63//32
f 66//33 65//33 67//33
f 62//34 61//34 65//34
f 63//35 67//35 65//35
f 68//36 64//36 62//36
o Cube.002_Cube.001
v -1.000000 -1.000000 1.000000
v -1.000000 -0.900000 1.000000
v -1.000000 -1.000000 -1.000000
v -1.000000 -0.900000 -1.000000
v 0.880000 -1.000000 1.000000
v 0.880000 -0.900000 1.000000
v 0.880000 -1.000000 -1.000000
v 0.880000 -0.900000 -1.000000
vn -1.0000 0.0000 0.0000
vn 0.0000 0.0000 -1.0000
vn 1.0000 0.0000 0.0000
vn 0.0000 0.0000 1.0000
vn 0.0000 -1.0000 0.0000
vn 0.0000 1.0000 0.0000
s off
f 72//37 69//37 70//37
f 76//38 71//38 72//38
f 74//39 75//39 76//39
f 70//40 73//40 74//40
f 71//41 73//41 69//41
f 76//42 70//42 74//42
f 72//37 71//37 69//37
f 76//38 75//38 71//38
f 74//39 73//39 75//39
f 70//40 69//40 73//40
f 71//41 75//41 73//41
f 76//42 72//42 70//42
o Cube.000_Cube.001
v -1.000000 2.900000 1.000000
v -1.000000 3.000000 1.000000
v -1.000000 2.900000 -1.000000
v -1.000000 3.000000 -1.000000
v 0.880000 2.900000 1.000000
v 0.880000 3.000000 1.000000
v 0.880000 2.900000 -1.000000
v 0.880000 3.000000 -1.000000
vn -1.0000 0.0000 0.0000
vn 0.0000 0.0000 -1.0000
vn 1.0000 0.0000 0.0000
vn 0.0000 0.0000 1.0000
vn 0.0000 -1.0000 0.0000
vn 0.0000 1.0000 0.0000
s off
f 80//43 77//43 78//43
f 84//44 79//44 80//44
f 82//45 83//45 84//45
f 78//46 81//46 82//46
f 79//47 81//47 77//47
f 84//48 78//48 82//48
f 80//43 79//43 77//43
f 84//44 83//44 79//44
f 82//45 81//45 83//45
f 78//46 77//46 81//46
f 79//47 83//47 81//47
f 84//48 80//48 78//48
o Cube.001
v -1.000000 -1.000000 -0.900000
v -1.000000 3.000000 -0.900000
v -1.000000 -1.000000 -1.000000
v -1.000000 3.000000 -1.000000
v 0.880000 -1.000000 -0.900000
v 0.880000 3.000000 -0.900000
v 0.880000 -1.000000 -1.000000
v 0.880000 3.000000 -1.000000
vn -1.0000 0.0000 0.0000
vn 0.0000 0.0000 -1.0000
vn 1.0000 0.0000 0.0000
vn 0.0000 0.0000 1.0000
vn 0.0000 -1.0000 0.0000
vn 0.0000 1.0000 0.0000
s off
f 88//49 85//49 86//49
f 92//50 87//50 88//50
f 90//51 91//51 92//51
f 86//52 89//52 90//52
f 87//53 89//53 85//53
f 92//54 86//54 90//54
f 88//49 87//49 85//49
f 92//50 91//50 87//50
f 90//51 89//51 91//51
f 86//52 85//52 89//52
f 87//53 91//53 89//53
f 92//54 88//54 86//54
