# Blender v2.78 (sub 0) OBJ File: 'fridge.blend'
# www.blender.org
mtllib fridge_body.mtl
o fridge_body_Cube
v -1.004204 -0.991228 0.991327
v -1.004204 2.991353 0.991327
v -1.004204 -0.991228 -0.997358
v -1.004204 2.991353 -0.997358
v 0.868119 -0.991228 0.991327
v 0.868119 2.991353 0.991327
v 0.868119 -0.991228 -0.997358
v 0.868119 2.991353 -0.997358
v 0.868119 -0.885975 0.886384
v 0.868119 2.886100 0.886384
v 0.868119 -0.885975 -0.892416
v 0.868119 2.886100 -0.892416
v -0.894954 -0.885975 0.886384
v -0.894954 2.886100 0.886384
v -0.894954 -0.885975 -0.892416
v -0.894954 2.886100 -0.892416
v -1.004204 -0.991228 -0.997358
v -1.004204 -0.991228 -0.997358
v -1.004204 -0.991228 0.991327
v -1.004204 -0.991228 0.991327
v -1.004204 2.991353 0.991327
v -1.004204 2.991353 0.991327
v -1.004204 2.991353 -0.997358
v -1.004204 2.991353 -0.997358
v 0.868119 -0.991228 -0.997358
v 0.868119 -0.991228 -0.997358
v 0.868119 2.991353 -0.997358
v 0.868119 2.991353 -0.997358
v 0.868119 -0.991228 0.991327
v 0.868119 -0.991228 0.991327
v 0.868119 2.991353 0.991327
v 0.868119 2.991353 0.991327
v 0.868119 2.886100 -0.892416
v 0.868119 2.886100 -0.892416
v 0.868119 -0.885975 -0.892416
v 0.868119 -0.885975 -0.892416
v 0.868119 -0.885975 0.886384
v 0.868119 -0.885975 0.886384
v 0.868119 2.886100 0.886384
v 0.868119 2.886100 0.886384
v -0.894954 2.886100 -0.892416
v -0.894954 2.886100 -0.892416
v -0.894954 -0.885975 -0.892416
v -0.894954 -0.885975 -0.892416
v -0.894954 -0.885975 0.886384
v -0.894954 -0.885975 0.886384
v -0.894954 2.886100 0.886384
v -0.894954 2.886100 0.886384
vn -1.0000 0.0000 0.0000
vn 0.0000 0.0000 -1.0000
vn 1.0000 0.0000 0.0000
vn 0.0000 0.0000 1.0000
vn 0.0000 -1.0000 0.0000
vn 0.0000 1.0000 0.0000
usemtl None
s off
f 21//1 17//1 19//1
f 24//2 25//2 18//2
f 30//3 39//3 32//3
f 6//4 20//4 5//4
f 26//5 1//5 3//5
f 4//6 31//6 28//6
f 36//6 45//6 37//6
f 7//3 38//3 30//3
f 32//3 33//3 8//3
f 8//3 35//3 7//3
f 41//3 46//3 43//3
f 40//5 42//5 34//5
f 12//4 15//4 11//4
f 9//2 14//2 10//2
f 21//1 23//1 17//1
f 24//2 27//2 25//2
f 30//3 38//3 39//3
f 6//4 22//4 20//4
f 26//5 29//5 1//5
f 4//6 2//6 31//6
f 36//6 44//6 45//6
f 7//3 35//3 38//3
f 32//3 39//3 33//3
f 8//3 33//3 35//3
f 41//3 47//3 46//3
f 40//5 48//5 42//5
f 12//4 16//4 15//4
f 9//2 13//2 14//2
