# Blender v2.78 (sub 0) OBJ File: 'fridge_open.blend'
# www.blender.org
o Fridge_Door_Cube.003
v 2.251893 -0.986185 0.427355
v 2.251893 2.991008 0.427355
v 0.805394 -0.986185 -0.926775
v 0.805394 2.991008 -0.926775
v 2.316673 -0.986185 0.358156
v 2.316673 2.991008 0.358156
v 0.870175 -0.986185 -0.995975
v 0.870175 2.991008 -0.995975
v 2.165989 0.501567 0.248701
v 2.165989 1.497937 0.248701
v 2.235978 0.501567 0.173937
v 2.235978 1.497937 0.173937
v 2.164427 0.501567 0.106955
v 2.164427 1.497937 0.106955
v 2.150865 0.501567 0.121443
v 2.150865 1.497937 0.121443
v 2.161775 1.497937 0.217572
v 2.161775 0.501567 0.217572
v 2.204639 0.501567 0.171783
v 2.204639 1.497937 0.171783
vt 0.7122 0.9047
vt 0.6317 0.8251
vt 0.7122 0.8251
vt 0.7901 0.3330
vt 0.7721 0.0431
vt 0.7901 0.0431
vt 0.2934 0.3147
vt 0.0996 0.0431
vt 0.2934 0.0431
vt 0.7901 0.0431
vt 0.8082 0.3330
vt 0.7901 0.3330
vt 0.8082 0.1704
vt 0.8263 0.2251
vt 0.8082 0.2251
vt 0.8082 0.1704
vt 0.8263 0.1157
vt 0.8263 0.1704
vt 0.8257 0.5084
vt 0.8285 0.5312
vt 0.8349 0.5040
vt 0.8010 0.6488
vt 0.7906 0.5699
vt 0.7985 0.5738
vt 0.7773 0.4011
vt 0.7889 0.4706
vt 0.7773 0.4706
vt 0.8331 0.6321
vt 0.8187 0.5817
vt 0.8365 0.5753
vt 0.7867 0.5753
vt 0.7716 0.6399
vt 0.7711 0.5763
vt 0.8291 0.5538
vt 0.8208 0.5282
vt 0.8212 0.5514
vt 0.7473 0.5748
vt 0.7514 0.6330
vt 0.7473 0.6444
vt 0.7885 0.5401
vt 0.7880 0.4706
vt 0.7885 0.4706
vt 0.8232 0.6473
vt 0.8132 0.6247
vt 0.6317 0.9047
vt 0.7721 0.3330
vt 0.0996 0.3147
vt 0.8082 0.0431
vt 0.8263 0.1704
vt 0.8082 0.1157
vt 0.7906 0.6458
vt 0.7889 0.4011
vt 0.7867 0.6448
vt 0.7514 0.5635
vt 0.7880 0.5401
vt 0.8064 0.6380
vn -0.6834 0.0000 0.7300
vn -0.7300 0.0000 -0.6834
vn 0.6834 0.0000 -0.7300
vn 0.7300 0.0000 0.6834
vn 0.0000 -1.0000 0.0000
vn 0.0000 1.0000 0.0000
s off
f 2/1/1 3/2/1 1/3/1
f 4/4/2 7/5/2 3/6/2
f 8/7/3 5/8/3 7/9/3
f 6/10/4 1/11/4 5/12/4
f 3/13/5 5/14/5 1/15/5
f 4/16/6 6/17/6 8/18/6
f 18/19/5 11/20/5 9/21/5
f 14/22/3 11/23/3 13/24/3
f 12/25/4 9/26/4 11/27/4
f 12/28/6 17/29/6 10/30/6
f 15/31/2 14/32/2 13/33/2
f 13/34/5 19/35/5 15/36/5
f 17/37/2 19/38/2 18/39/2
f 15/40/1 20/41/1 16/42/1
f 14/43/6 20/44/6 12/28/6
f 2/1/1 4/45/1 3/2/1
f 4/4/2 8/46/2 7/5/2
f 8/7/3 6/47/3 5/8/3
f 6/10/4 2/48/4 1/11/4
f 3/13/5 7/49/5 5/14/5
f 4/16/6 2/50/6 6/17/6
f 18/19/5 19/35/5 11/20/5
f 14/22/3 12/51/3 11/23/3
f 12/25/4 10/52/4 9/26/4
f 12/28/6 20/44/6 17/29/6
f 15/31/2 16/53/2 14/32/2
f 13/34/5 11/20/5 19/35/5
f 17/37/2 20/54/2 19/38/2
f 15/40/1 19/55/1 20/41/1
f 14/43/6 16/56/6 20/44/6
