# Blender v2.78 (sub 0) OBJ File: 'fridge.blend'
# www.blender.org
o Cube.004_Cube.001
v -0.997083 -1.000000 1.000000
v -0.997083 3.000000 1.000000
v -0.997083 -1.000000 0.900000
v -0.997083 3.000000 0.900000
v 0.882917 -1.000000 1.000000
v 0.882917 3.000000 1.000000
v 0.882917 -1.000000 0.900000
v 0.882917 3.000000 0.900000
vn -1.0000 0.0000 0.0000
vn 0.0000 0.0000 -1.0000
vn 1.0000 0.0000 0.0000
vn 0.0000 0.0000 1.0000
vn 0.0000 -1.0000 0.0000
vn 0.0000 1.0000 0.0000
s off
f 4//1 1//1 2//1
f 8//2 3//2 4//2
f 6//3 7//3 8//3
f 2//4 5//4 6//4
f 3//5 5//5 1//5
f 8//6 2//6 6//6
f 4//1 3//1 1//1
f 8//2 7//2 3//2
f 6//3 5//3 7//3
f 2//4 1//4 5//4
f 3//5 7//5 5//5
f 8//6 4//6 2//6
o Cube.003_Cube.001
v -1.000000 -1.000000 1.000000
v -1.000000 3.000000 1.000000
v -1.000000 -1.000000 -1.000000
v -1.000000 3.000000 -1.000000
v -0.900000 -1.000000 1.000000
v -0.900000 3.000000 1.000000
v -0.900000 -1.000000 -1.000000
v -0.900000 3.000000 -1.000000
vn -1.0000 0.0000 0.0000
vn 0.0000 0.0000 -1.0000
vn 1.0000 0.0000 0.0000
vn 0.0000 0.0000 1.0000
vn 0.0000 -1.0000 0.0000
vn 0.0000 1.0000 0.0000
s off
f 12//7 9//7 10//7
f 16//8 11//8 12//8
f 14//9 15//9 16//9
f 10//10 13//10 14//10
f 11//11 13//11 9//11
f 16//12 10//12 14//12
f 12//7 11//7 9//7
f 16//8 15//8 11//8
f 14//9 13//9 15//9
f 10//10 9//10 13//10
f 11//11 15//11 13//11
f 16//12 12//12 10//12
o Cube.002_Cube.001
v -1.000000 -1.000000 1.000000
v -1.000000 -0.900000 1.000000
v -1.000000 -1.000000 -1.000000
v -1.000000 -0.900000 -1.000000
v 0.880000 -1.000000 1.000000
v 0.880000 -0.900000 1.000000
v 0.880000 -1.000000 -1.000000
v 0.880000 -0.900000 -1.000000
vn -1.0000 0.0000 0.0000
vn 0.0000 0.0000 -1.0000
vn 1.0000 0.0000 0.0000
vn 0.0000 0.0000 1.0000
vn 0.0000 -1.0000 0.0000
vn 0.0000 1.0000 0.0000
s off
f 20//13 17//13 18//13
f 24//14 19//14 20//14
f 22//15 23//15 24//15
f 18//16 21//16 22//16
f 19//17 21//17 17//17
f 24//18 18//18 22//18
f 20//13 19//13 17//13
f 24//14 23//14 19//14
f 22//15 21//15 23//15
f 18//16 17//16 21//16
f 19//17 23//17 21//17
f 24//18 20//18 18//18
o Cube.000_Cube.001
v -1.000000 2.900000 1.000000
v -1.000000 3.000000 1.000000
v -1.000000 2.900000 -1.000000
v -1.000000 3.000000 -1.000000
v 0.880000 2.900000 1.000000
v 0.880000 3.000000 1.000000
v 0.880000 2.900000 -1.000000
v 0.880000 3.000000 -1.000000
vn -1.0000 0.0000 0.0000
vn 0.0000 0.0000 -1.0000
vn 1.0000 0.0000 0.0000
vn 0.0000 0.0000 1.0000
vn 0.0000 -1.0000 0.0000
vn 0.0000 1.0000 0.0000
s off
f 28//19 25//19 26//19
f 32//20 27//20 28//20
f 30//21 31//21 32//21
f 26//22 29//22 30//22
f 27//23 29//23 25//23
f 32//24 26//24 30//24
f 28//19 27//19 25//19
f 32//20 31//20 27//20
f 30//21 29//21 31//21
f 26//22 25//22 29//22
f 27//23 31//23 29//23
f 32//24 28//24 26//24
o Cube.001
v -1.000000 -1.000000 -0.900000
v -1.000000 3.000000 -0.900000
v -1.000000 -1.000000 -1.000000
v -1.000000 3.000000 -1.000000
v 0.880000 -1.000000 -0.900000
v 0.880000 3.000000 -0.900000
v 0.880000 -1.000000 -1.000000
v 0.880000 3.000000 -1.000000
vn -1.0000 0.0000 0.0000
vn 0.0000 0.0000 -1.0000
vn 1.0000 0.0000 0.0000
vn 0.0000 0.0000 1.0000
vn 0.0000 -1.0000 0.0000
vn 0.0000 1.0000 0.0000
s off
f 36//25 33//25 34//25
f 40//26 35//26 36//26
f 38//27 39//27 40//27
f 34//28 37//28 38//28
f 35//29 37//29 33//29
f 40//30 34//30 38//30
f 36//25 35//25 33//25
f 40//26 39//26 35//26
f 38//27 37//27 39//27
f 34//28 33//28 37//28
f 35//29 39//29 37//29
f 40//30 36//30 34//30
