# Blender v2.78 (sub 0) OBJ File: 'fridge.blend'
# www.blender.org
o Fridge_Cube
v -0.989570 -0.986826 1.000005
v -0.989570 2.992241 1.000005
v -0.989570 -0.986826 -0.999995
v -0.989570 2.992241 -0.999995
v 0.873980 -0.986826 1.000005
v 0.873980 2.992241 1.000005
v 0.873980 -0.986826 -0.999995
v 0.873980 2.992241 -0.999995
v 0.873980 -0.908096 0.915532
v 0.873980 2.913701 0.915532
v 0.873980 -0.908096 -0.915521
v 0.873980 2.913701 -0.915521
v -0.876599 -0.908096 0.915532
v -0.876599 2.913701 0.915532
v -0.876599 -0.908096 -0.915521
v -0.876599 2.913701 -0.915521
vt 0.3081 0.1838
vt 0.3770 0.2871
vt 0.3081 0.2871
vt 0.4449 0.1288
vt 0.5092 0.2321
vt 0.4449 0.2321
vt 0.7864 0.3827
vt 0.7849 0.6596
vt 0.7849 0.3883
vt 0.3800 0.1838
vt 0.4443 0.2871
vt 0.3800 0.2871
vt 0.4449 0.2376
vt 0.4449 0.2895
vt 0.5092 0.2376
vt 0.5092 0.2895
vt 0.8181 0.9060
vt 0.7710 0.7537
vt 0.8181 0.7537
vt 0.7504 0.6651
vt 0.7864 0.6651
vt 0.7519 0.3883
vt 0.7504 0.3827
vt 0.7519 0.6596
vt 0.7710 0.9060
vt 0.7216 0.7537
vt 0.7710 0.7537
vt 0.8570 0.8256
vt 0.8098 0.7527
vt 0.8570 0.7527
vt 0.8570 0.8986
vt 0.8098 0.8256
vt 0.8570 0.8256
vt 0.7626 0.7527
vt 0.8098 0.9050
vt 0.7626 0.9050
vt 0.3770 0.1838
vt 0.5092 0.1288
vt 0.4443 0.1838
vt 0.5092 0.2376
vt 0.4449 0.2376
vt 0.7710 0.9060
vt 0.7216 0.9060
vt 0.8098 0.8256
vt 0.8098 0.8986
vt 0.8098 0.7527
vn -1.0000 0.0000 0.0000
vn 0.0000 0.0000 -1.0000
vn 1.0000 0.0000 0.0000
vn 0.0000 0.0000 1.0000
vn 0.0000 -1.0000 0.0000
vn 0.0000 1.0000 0.0000
s off
f 2/1/1 3/2/1 1/3/1
f 4/4/2 7/5/2 3/6/2
f 6/7/3 9/8/3 10/9/3
f 6/10/4 1/11/4 5/12/4
f 7/5/5 1/13/5 3/6/5
f 4/14/6 6/15/6 8/16/6
f 9/17/2 14/18/2 10/19/2
f 7/20/3 9/8/3 5/21/3
f 6/7/3 12/22/3 8/23/3
f 8/23/3 11/24/3 7/20/3
f 16/25/3 13/26/3 15/27/3
f 11/28/6 13/29/6 9/30/6
f 10/31/5 16/32/5 12/33/5
f 12/34/4 15/35/4 11/36/4
f 2/1/1 4/37/1 3/2/1
f 4/4/2 8/38/2 7/5/2
f 6/7/3 5/21/3 9/8/3
f 6/10/4 2/39/4 1/11/4
f 7/5/5 5/40/5 1/13/5
f 4/14/6 2/41/6 6/15/6
f 9/17/2 13/42/2 14/18/2
f 7/20/3 11/24/3 9/8/3
f 6/7/3 10/9/3 12/22/3
f 8/23/3 12/22/3 11/24/3
f 16/25/3 14/43/3 13/26/3
f 11/28/6 15/44/6 13/29/6
f 10/31/5 14/45/5 16/32/5
f 12/34/4 16/46/4 15/35/4
