# Blender v2.78 (sub 0) OBJ File: 'fridge.blend'
# www.blender.org
mtllib fridge_body.mtl
o Fridge_Cube
v -0.989570 -0.986826 1.000005
v -0.989570 2.992241 1.000005
v -0.989570 -0.986826 -0.999995
v -0.989570 2.992241 -0.999995
v 0.873980 -0.986826 1.000005
v 0.873980 2.992241 1.000005
v 0.873980 -0.986826 -0.999995
v 0.873980 2.992241 -0.999995
v 0.873980 -0.908096 0.915532
v 0.873980 2.913701 0.915532
v 0.873980 -0.908096 -0.915521
v 0.873980 2.913701 -0.915521
v -0.876599 -0.908096 0.915532
v -0.876599 2.913701 0.915532
v -0.876599 -0.908096 -0.915521
v -0.876599 2.913701 -0.915521
vt 0.0050 0.4939
vt 0.2185 0.9926
vt 0.0050 0.9926
vt 0.2178 1.0000
vt 0.4168 0.4987
vt 0.2178 0.4987
vt 0.8266 0.1048
vt 0.8250 0.5936
vt 0.8250 0.1147
vt 0.0074 0.5031
vt 0.2064 1.0018
vt 0.0074 1.0018
vt 0.2178 0.7493
vt 0.4168 0.7493
vt 0.4168 1.0000
vt 0.9013 0.5359
vt 0.9618 0.4438
vt 0.9607 0.5388
vt 0.7900 0.6035
vt 0.8266 0.6035
vt 0.7915 0.1147
vt 0.7900 0.1048
vt 0.7915 0.5936
vt 0.9024 0.4409
vt 0.9629 0.3444
vt 0.9618 0.4438
vt 0.9285 0.8512
vt 0.9581 0.7576
vt 0.9570 0.8526
vt 0.9001 0.8498
vt 0.9297 0.7562
vt 0.9285 0.8512
vt 0.9592 0.6626
vt 0.8987 0.7547
vt 0.8998 0.6597
vt 0.2185 0.4939
vt 0.2064 0.5031
vt 0.4168 0.7493
vt 0.2178 0.7493
vt 0.9024 0.4409
vt 0.9035 0.3416
vt 0.9297 0.7562
vt 0.9012 0.7548
vt 0.9581 0.7576
vn -1.0000 0.0000 0.0000
vn 0.0000 0.0000 -1.0000
vn 1.0000 0.0000 0.0000
vn 0.0000 0.0000 1.0000
vn 0.0000 -1.0000 0.0000
vn 0.0000 1.0000 0.0000
usemtl None
s off
f 2/1/1 3/2/1 1/3/1
f 4/4/2 7/5/2 3/6/2
f 6/7/3 9/8/3 10/9/3
f 6/10/4 1/11/4 5/12/4
f 7/5/5 1/13/5 3/6/5
f 4/4/6 6/14/6 8/15/6
f 9/16/2 14/17/2 10/18/2
f 7/19/3 9/8/3 5/20/3
f 6/7/3 12/21/3 8/22/3
f 8/22/3 11/23/3 7/19/3
f 16/24/3 13/25/3 15/26/3
f 11/27/6 13/28/6 9/29/6
f 10/30/5 16/31/5 12/32/5
f 12/33/4 15/34/4 11/35/4
f 2/1/1 4/36/1 3/2/1
f 4/4/2 8/15/2 7/5/2
f 6/7/3 5/20/3 9/8/3
f 6/10/4 2/37/4 1/11/4
f 7/5/5 5/38/5 1/13/5
f 4/4/6 2/39/6 6/14/6
f 9/16/2 13/40/2 14/17/2
f 7/19/3 11/23/3 9/8/3
f 6/7/3 10/9/3 12/21/3
f 8/22/3 12/21/3 11/23/3
f 16/24/3 14/41/3 13/25/3
f 11/27/6 15/42/6 13/28/6
f 10/30/5 14/43/5 16/31/5
f 12/33/4 16/44/4 15/34/4
