# Blender v2.78 (sub 0) OBJ File: 'fridge.blend'
# www.blender.org
mtllib fridge_door_open.mtl
o Cube_Cube.002
v 1.138186 0.500000 0.853772
v 1.138186 1.500000 0.853772
v 1.224414 0.500000 0.803127
v 1.224414 1.500000 0.803127
v 1.188831 0.500000 0.939999
v 1.188831 1.500000 0.939999
v 1.275058 0.500000 0.889354
v 1.275058 1.500000 0.889354
vn -0.5064 0.0000 -0.8623
vn 0.8623 0.0000 -0.5064
vn 0.5064 0.0000 0.8623
vn -0.8623 0.0000 0.5064
vn 0.0000 -1.0000 0.0000
vn 0.0000 1.0000 0.0000
usemtl None
s off
f 2//1 4//1 3//1 1//1
f 4//2 8//2 7//2 3//2
f 8//3 6//3 5//3 7//3
f 6//4 2//4 1//4 5//4
f 1//5 3//5 7//5 5//5
f 6//6 8//6 4//6 2//6
o Cube.005_Cube.001
v 0.830181 -1.000000 0.913674
v 0.830181 3.000000 0.913674
v 2.562232 -1.000000 -0.086326
v 2.562232 3.000000 -0.086326
v 0.880181 -1.000000 1.000277
v 0.880181 3.000000 1.000277
v 2.612232 -1.000000 0.000277
v 2.612232 3.000000 0.000277
vn -0.5000 0.0000 -0.8660
vn 0.8660 0.0000 -0.5000
vn 0.5000 0.0000 0.8660
vn -0.8660 0.0000 0.5000
vn 0.0000 -1.0000 0.0000
vn 0.0000 1.0000 0.0000
usemtl None
s off
f 10//7 12//7 11//7 9//7
f 12//8 16//8 15//8 11//8
f 16//9 14//9 13//9 15//9
f 14//10 10//10 9//10 13//10
f 9//11 11//11 15//11 13//11
f 14//12 16//12 12//12 10//12
