# Blender v2.78 (sub 0) OBJ File: 'fridge_open.blend'
# www.blender.org
o Fridge_Door_Cube.003
v 2.251893 -0.986185 0.427355
v 2.251893 2.991008 0.427355
v 0.805394 -0.986185 -0.926775
v 0.805394 2.991008 -0.926775
v 2.316673 -0.986185 0.358156
v 2.316673 2.991008 0.358156
v 0.870175 -0.986185 -0.995975
v 0.870175 2.991008 -0.995975
v 2.165989 0.501567 0.248701
v 2.165989 1.497937 0.248701
v 2.235978 0.501567 0.173937
v 2.235978 1.497937 0.173937
v 2.164427 0.501567 0.106955
v 2.164427 1.497937 0.106955
v 2.150865 0.501567 0.121443
v 2.150865 1.497937 0.121443
v 2.161775 1.497937 0.217572
v 2.161775 0.501567 0.217572
v 2.204639 0.501567 0.171783
v 2.204639 1.497937 0.171783
vt 0.9761 0.7725
vt 0.8479 0.2114
vt 0.9761 0.2114
vt 0.8047 0.8183
vt 0.7947 0.2220
vt 0.8047 0.2220
vt 0.5228 0.9962
vt 0.3590 0.1714
vt 0.5228 0.1714
vt 0.8047 0.2220
vt 0.8147 0.8183
vt 0.8047 0.8183
vt 0.8147 0.4839
vt 0.8247 0.5964
vt 0.8147 0.5964
vt 0.8147 0.4839
vt 0.8247 0.3714
vt 0.8247 0.4839
vt 0.8246 0.6196
vt 0.8244 0.7162
vt 0.8244 0.5964
vt 0.8239 0.7458
vt 0.8234 0.5964
vt 0.8239 0.5964
vt 0.8147 0.2220
vt 0.8255 0.3714
vt 0.8147 0.3714
vt 0.8244 0.7162
vt 0.8243 0.6196
vt 0.8244 0.5964
vt 0.8234 0.5964
vt 0.8213 0.7458
vt 0.8213 0.5964
vt 0.8249 0.7162
vt 0.8246 0.6930
vt 0.8249 0.6930
vt 0.8213 0.7458
vt 0.8147 0.5964
vt 0.8213 0.5964
vt 0.9916 0.5010
vt 0.9843 0.2505
vt 0.9916 0.2505
vt 0.8239 0.7162
vt 0.8243 0.6930
vt 0.8479 0.7725
vt 0.7947 0.8183
vt 0.3590 0.9962
vt 0.8147 0.2220
vt 0.8247 0.4839
vt 0.8147 0.3714
vt 0.8234 0.7458
vt 0.8255 0.2220
vt 0.8234 0.7458
vt 0.8147 0.7458
vt 0.9843 0.5010
vt 0.8239 0.6930
vn -0.6834 0.0000 0.7300
vn -0.7300 0.0000 -0.6834
vn 0.6834 0.0000 -0.7300
vn 0.7300 0.0000 0.6834
vn 0.0000 -1.0000 0.0000
vn 0.0000 1.0000 0.0000
s off
f 2/1/1 3/2/1 1/3/1
f 4/4/2 7/5/2 3/6/2
f 8/7/3 5/8/3 7/9/3
f 6/10/4 1/11/4 5/12/4
f 3/13/5 5/14/5 1/15/5
f 4/16/6 6/17/6 8/18/6
f 18/19/5 11/20/5 9/21/5
f 14/22/3 11/23/3 13/24/3
f 12/25/4 9/26/4 11/27/4
f 12/28/6 17/29/6 10/30/6
f 15/31/2 14/32/2 13/33/2
f 13/34/5 19/35/5 15/36/5
f 17/37/2 19/38/2 18/39/2
f 15/40/1 20/41/1 16/42/1
f 14/43/6 20/44/6 12/28/6
f 2/1/1 4/45/1 3/2/1
f 4/4/2 8/46/2 7/5/2
f 8/7/3 6/47/3 5/8/3
f 6/10/4 2/48/4 1/11/4
f 3/13/5 7/49/5 5/14/5
f 4/16/6 2/50/6 6/17/6
f 18/19/5 19/35/5 11/20/5
f 14/22/3 12/51/3 11/23/3
f 12/25/4 10/52/4 9/26/4
f 12/28/6 20/44/6 17/29/6
f 15/31/2 16/53/2 14/32/2
f 13/34/5 11/20/5 19/35/5
f 17/37/2 20/54/2 19/38/2
f 15/40/1 19/55/1 20/41/1
f 14/43/6 16/56/6 20/44/6
