# Blender v2.78 (sub 0) OBJ File: 'microwave.blend'
# www.blender.org
mtllib microwave_body.mtl
o Microwave_Cube
v -0.401583 -0.402224 0.799182
v -0.401583 0.400561 0.799182
v -0.401583 -0.402224 -0.803507
v -0.401583 0.400561 -0.803507
v 0.278097 -0.402224 0.799182
v 0.278097 0.400561 0.799182
v 0.278097 -0.402224 -0.803507
v 0.278097 0.400561 -0.803507
v 0.278097 -0.341286 0.738245
v 0.278097 0.339624 0.738245
v 0.278097 -0.341286 -0.742570
v 0.278097 0.339624 -0.742570
v -0.317567 -0.341286 0.738245
v -0.317567 0.339624 0.738245
v -0.317567 -0.341286 -0.742570
v -0.317567 0.339624 -0.742570
v -0.401583 -0.402224 -0.803507
v -0.401583 -0.402224 -0.803507
v -0.401583 -0.402224 0.799182
v -0.401583 -0.402224 0.799182
v -0.401583 0.400561 0.799182
v -0.401583 0.400561 0.799182
v -0.401583 0.400561 -0.803507
v -0.401583 0.400561 -0.803507
v 0.278097 -0.402224 -0.803507
v 0.278097 -0.402224 -0.803507
v 0.278097 0.400561 -0.803507
v 0.278097 0.400561 -0.803507
v 0.278097 -0.402224 0.799182
v 0.278097 -0.402224 0.799182
v 0.278097 0.400561 0.799182
v 0.278097 0.400561 0.799182
v 0.278097 0.339624 -0.742570
v 0.278097 0.339624 -0.742570
v 0.278097 -0.341286 -0.742570
v 0.278097 -0.341286 -0.742570
v 0.278097 -0.341286 0.738245
v 0.278097 -0.341286 0.738245
v 0.278097 0.339624 0.738245
v 0.278097 0.339624 0.738245
v -0.317567 0.339624 -0.742570
v -0.317567 0.339624 -0.742570
v -0.317567 -0.341286 -0.742570
v -0.317567 -0.341286 -0.742570
v -0.317567 -0.341286 0.738245
v -0.317567 -0.341286 0.738245
v -0.317567 0.339624 0.738245
v -0.317567 0.339624 0.738245
vn -1.0000 0.0000 0.0000
vn 0.0000 0.0000 -1.0000
vn 1.0000 0.0000 0.0000
vn 0.0000 0.0000 1.0000
vn 0.0000 -1.0000 0.0000
vn 0.0000 1.0000 0.0000
usemtl None
s off
f 21//1 17//1 19//1
f 24//2 25//2 18//2
f 31//3 33//3 28//3
f 32//4 20//4 30//4
f 26//5 1//5 3//5
f 4//6 6//6 8//6
f 40//5 42//5 34//5
f 28//3 35//3 7//3
f 5//3 39//3 31//3
f 7//3 37//3 5//3
f 41//3 45//3 43//3
f 12//4 44//4 36//4
f 38//2 14//2 10//2
f 11//6 13//6 9//6
f 21//1 23//1 17//1
f 24//2 27//2 25//2
f 31//3 39//3 33//3
f 32//4 22//4 20//4
f 26//5 29//5 1//5
f 4//6 2//6 6//6
f 40//5 47//5 42//5
f 28//3 33//3 35//3
f 5//3 37//3 39//3
f 7//3 35//3 37//3
f 41//3 48//3 45//3
f 12//4 16//4 44//4
f 38//2 46//2 14//2
f 11//6 15//6 13//6
