# Blender v2.78 (sub 0) OBJ File: 'microwave_open.blend'
# www.blender.org
o Door_Cube.003
v 0.220873 -0.399217 0.711400
v 0.221011 0.399024 0.711640
v 1.605464 -0.399216 -0.087674
v 1.433585 0.399023 0.011560
v 0.269383 -0.399217 0.795422
v 0.269384 0.399024 0.795423
v 1.653836 -0.399217 -0.003892
v 1.481957 0.399023 0.095343
v 1.481066 0.197582 0.095857
v 0.441451 -0.199884 0.696079
v 0.441451 0.197582 0.696079
v 1.432694 0.197582 0.012074
v 0.393080 -0.199884 0.612296
v 0.393080 0.197582 0.612296
v 1.608566 0.399023 -0.089465
v 1.656938 0.399023 -0.005682
v 1.656274 0.197583 -0.005299
v 1.607902 0.197583 -0.089082
v 1.432555 -0.399216 0.011835
v 1.481065 -0.399217 0.095857
v 1.481065 -0.199884 0.095857
v 1.432693 -0.199884 0.012075
v 1.606284 -0.199885 -0.088148
v 1.654656 -0.199885 -0.004365
vt 0.4856 0.8253
vt 0.3613 0.9497
vt 0.3613 0.8253
vt 0.2627 0.1625
vt 0.4144 0.4659
vt 0.2627 0.4659
vt 0.0514 0.2170
vt 0.3548 0.5205
vt 0.0514 0.5205
vt 0.1109 0.1625
vt 0.4144 0.4659
vt 0.1109 0.4659
vt 0.4144 0.3142
vt 0.1109 0.3142
vt 0.4144 0.1625
vt 0.1109 0.4659
vt 0.1109 0.1625
vt 0.5713 0.5803
vt 0.4256 0.7259
vt 0.4256 0.5803
vt 0.1109 0.1625
vt 0.3548 0.2170
vt 0.0514 0.5205
vt 0.0514 0.2170
vt 0.1868 0.1625
vt 0.1489 0.4659
vt 0.1489 0.1625
vt 0.4256 0.5803
vt 0.5713 0.7259
vt 0.4256 0.7259
vt 0.5108 0.5828
vt 0.4256 0.7259
vt 0.4256 0.5803
vt 0.4234 0.8253
vt 0.4856 0.9497
vt 0.4234 0.9497
vt 0.3613 0.8253
vt 0.4856 0.9497
vt 0.3613 0.9497
vt 0.2031 0.2170
vt 0.0514 0.5205
vt 0.0514 0.2170
vt 0.1868 0.4659
vt 0.1109 0.4659
vt 0.0082 0.2436
vt 0.2173 0.0250
vt 0.2181 0.2441
vt 0.4805 0.7826
vt 0.5184 0.7826
vt 0.7839 0.7826
vt 0.5564 0.7826
vt 0.4856 0.9497
vt 0.0826 0.3816
vt 0.1390 0.5254
vt 0.6784 0.5324
vt 0.9473 0.0094
vt 0.9469 0.5317
vt 0.3664 0.7141
vt 0.1134 0.5899
vt 0.2798 0.7364
vt 0.3548 0.2170
vt 0.4144 0.1625
vt 0.4144 0.4659
vt 0.5713 0.7259
vt 0.4144 0.1625
vt 0.3548 0.5205
vt 0.5713 0.5803
vt 0.4984 0.7259
vt 0.4856 0.8253
vt 0.4856 0.8253
vt 0.2031 0.5205
vt 0.0073 0.0255
vt 0.6322 0.7826
vt 0.1758 0.4163
vt 0.6784 0.0095
vn -0.5000 -0.0000 -0.8660
vn 0.0000 1.0000 0.0000
vn 0.5000 0.0000 0.8660
vn -0.8660 -0.0000 0.5000
vn -0.0000 -1.0000 -0.0000
vn 0.8660 0.0000 -0.5000
vn 0.8660 -0.0047 -0.5000
vn -0.5000 0.0014 -0.8660
vn -0.4988 0.0000 -0.8667
vn 0.8660 -0.0038 -0.5000
vn 0.8660 -0.0048 -0.5000
vn -0.4997 0.0003 -0.8662
vn -0.4988 0.0014 -0.8667
s off
f 4/1/1 14/2/1 2/3/1
f 15/4/2 8/5/2 16/6/2
f 8/7/3 11/8/3 9/9/3
f 5/10/4 2/11/4 1/12/4
f 20/13/5 1/12/5 19/14/5
f 4/15/2 6/16/2 8/17/2
f 10/18/6 14/19/6 11/20/6
f 3/21/5 20/13/5 19/14/5
f 5/22/3 11/23/3 6/24/3
f 18/25/7 24/26/7 23/27/7
f 9/28/5 14/29/5 12/30/5
f 21/31/2 13/32/2 10/33/2
f 19/34/8 13/35/8 22/36/8
f 1/37/9 14/38/9 13/39/9
f 20/40/3 10/41/3 5/42/3
f 15/4/10 17/43/10 18/25/10
f 3/21/11 24/26/11 7/44/11
f 21/45/3 7/46/3 24/47/3
f 3/48/1 22/36/1 23/49/1
f 4/50/1 18/51/1 12/52/1
f 17/53/3 8/54/3 9/9/3
f 9/55/3 24/56/3 17/57/3
f 23/49/1 12/52/1 18/51/1
f 22/58/4 9/59/4 12/60/4
f 4/1/1 12/52/1 14/2/1
f 15/4/2 4/15/2 8/5/2
f 8/7/3 6/61/3 11/8/3
f 5/10/4 6/62/4 2/11/4
f 20/13/5 5/63/5 1/12/5
f 4/15/2 2/11/2 6/16/2
f 10/18/6 13/64/6 14/19/6
f 3/21/5 7/65/5 20/13/5
f 5/22/3 10/66/3 11/23/3
f 18/25/7 17/43/7 24/26/7
f 9/28/5 11/67/5 14/29/5
f 21/31/2 22/68/2 13/32/2
f 19/34/8 1/69/8 13/35/8
f 1/37/12 2/70/12 14/38/12
f 20/40/3 21/71/3 10/41/3
f 15/4/10 16/6/10 17/43/10
f 3/21/7 23/27/7 24/26/7
f 21/45/3 20/72/3 7/46/3
f 3/48/13 19/34/13 22/36/13
f 4/50/1 15/73/1 18/51/1
f 17/53/3 16/74/3 8/54/3
f 9/55/3 21/75/3 24/56/3
f 23/49/1 22/36/1 12/52/1
f 22/58/4 21/31/4 9/59/4
