# Blender v2.78 (sub 0) OBJ File: 'microwave.blend'
# www.blender.org
mtllib microwave_door.mtl
o Door_Cube.002
v 0.300384 -0.399788 0.798085
v 0.300661 0.398452 0.798085
v 0.300384 -0.399787 -0.800544
v 0.300661 0.398452 -0.800544
v 0.399516 -0.399788 0.798085
v 0.397406 0.398452 0.798085
v 0.399516 -0.399788 -0.800544
v 0.397406 0.398452 -0.800544
v 0.393948 0.197011 -0.601046
v 0.393948 -0.200455 -0.601046
v 0.393948 -0.200455 0.599398
v 0.393948 0.197011 0.599398
v 0.306745 0.197011 -0.601046
v 0.306745 -0.200455 -0.601046
v 0.306745 -0.200455 0.599398
v 0.306745 0.197011 0.599398
v 0.300384 -0.399787 -0.800544
v 0.300384 -0.399787 -0.800544
v 0.300384 -0.399788 0.798085
v 0.300384 -0.399788 0.798085
v 0.300661 0.398452 0.798085
v 0.300661 0.398452 0.798085
v 0.300661 0.398452 -0.800544
v 0.300661 0.398452 -0.800544
v 0.399516 -0.399788 -0.800544
v 0.399516 -0.399788 -0.800544
v 0.397406 0.398452 -0.800544
v 0.397406 0.398452 -0.800544
v 0.399516 -0.399788 0.798085
v 0.399516 -0.399788 0.798085
v 0.397406 0.398452 0.798085
v 0.397406 0.398452 0.798085
v 0.393948 0.197011 -0.601046
v 0.393948 0.197011 -0.601046
v 0.393948 -0.200455 -0.601046
v 0.393948 -0.200455 -0.601046
v 0.393948 -0.200455 0.599398
v 0.393948 -0.200455 0.599398
v 0.393948 0.197011 0.599398
v 0.393948 0.197011 0.599398
v 0.306745 0.197011 -0.601046
v 0.306745 0.197011 -0.601046
v 0.306745 -0.200455 -0.601046
v 0.306745 -0.200455 -0.601046
v 0.306745 -0.200455 0.599398
v 0.306745 -0.200455 0.599398
v 0.306745 0.197011 0.599398
v 0.306745 0.197011 0.599398
vn -0.9995 -0.0302 0.0000
vn 0.0000 0.0000 -1.0000
vn 0.9999 -0.0172 0.0000
vn 0.0000 0.0000 1.0000
vn -0.0000 -1.0000 -0.0000
vn 0.0000 1.0000 0.0000
vn 0.9996 0.0000 0.0279
vn 0.9998 0.0026 -0.0201
vn 0.9996 0.0279 0.0000
vn -0.9995 0.0003 0.0308
vn -0.9995 0.0319 0.0000
vn -0.9995 0.0000 -0.0320
vn 0.9998 0.0026 0.0200
vn 0.9996 0.0000 -0.0280
vn -0.9995 0.0000 0.0319
vn -0.9995 0.0003 -0.0310
usemtl None
s off
f 22//1 41//1 47//1
f 18//2 27//2 25//2
f 31//3 33//3 28//3
f 32//4 20//4 30//4
f 26//5 19//5 17//5
f 4//6 6//6 8//6
f 38//2 48//2 40//2
f 7//7 33//7 35//7
f 5//8 39//8 31//8
f 5//9 35//9 37//9
f 3//10 41//10 23//10
f 36//6 45//6 11//6
f 12//5 42//5 34//5
f 9//4 14//4 10//4
f 1//11 43//11 3//11
f 1//12 47//12 15//12
f 22//1 23//1 41//1
f 18//2 24//2 27//2
f 31//3 39//3 33//3
f 32//4 21//4 20//4
f 26//5 29//5 19//5
f 4//6 2//6 6//6
f 38//2 46//2 48//2
f 7//13 28//13 33//13
f 5//14 37//14 39//14
f 5//9 7//9 35//9
f 3//15 43//15 41//15
f 36//6 44//6 45//6
f 12//5 16//5 42//5
f 9//4 13//4 14//4
f 1//11 15//11 43//11
f 1//16 22//16 47//16
