# Blender v2.78 (sub 0) OBJ File: 'oven_open.blend'
# www.blender.org
o oven_Door_Cube.001
v 0.983996 -0.935408 -0.672520
v 0.983996 -0.092840 -2.131890
v 0.983996 -0.770210 -0.577143
v 0.983996 0.072358 -2.036513
v -0.993295 -0.935407 -0.672519
v -0.993295 -0.092839 -2.131889
v -0.993295 -0.770209 -0.577142
v -0.993295 0.072359 -2.036512
v 0.609054 -0.587247 -0.906452
v 0.609054 -0.741699 -0.995624
v 0.609054 -0.275802 -1.802581
v 0.609054 -0.121351 -1.713408
v -0.618353 -0.587247 -0.906451
v -0.618354 -0.121350 -1.713408
v -0.618354 -0.741698 -0.995624
v -0.618354 -0.275802 -1.802581
v 0.530223 -0.370193 -1.986228
v 0.530223 -0.309960 -2.090554
v 0.530223 -0.214819 -1.896523
v 0.530223 -0.154586 -2.000849
v 0.461998 -0.370193 -1.986228
v 0.461998 -0.309960 -2.090554
v 0.461998 -0.214819 -1.896523
v 0.461998 -0.154586 -2.000849
v -0.509191 -0.370193 -1.986228
v -0.509191 -0.309960 -2.090554
v -0.509191 -0.214818 -1.896522
v -0.509191 -0.154586 -2.000848
v -0.577416 -0.370193 -1.986228
v -0.577416 -0.309960 -2.090554
v -0.577416 -0.214818 -1.896522
v -0.577416 -0.154586 -2.000848
v -0.529705 -0.283576 -2.009275
v 0.493035 -0.283577 -2.009275
v -0.529705 -0.285944 -2.005971
v 0.493034 -0.285944 -2.005972
v -0.529705 -0.288910 -2.003193
v 0.493035 -0.288910 -2.003193
v -0.529705 -0.292361 -2.001047
v 0.493034 -0.292362 -2.001047
v -0.529705 -0.296165 -1.999615
v 0.493034 -0.296165 -1.999616
v -0.529705 -0.300175 -1.998953
v 0.493034 -0.300175 -1.998954
v -0.529705 -0.304237 -1.999086
v 0.493034 -0.304237 -1.999087
v -0.529705 -0.308195 -2.000009
v 0.493034 -0.308195 -2.000010
v -0.529705 -0.311896 -2.001687
v 0.493034 -0.311897 -2.001687
v -0.529705 -0.315200 -2.004054
v 0.493034 -0.315200 -2.004054
v -0.529705 -0.317978 -2.007020
v 0.493034 -0.317978 -2.007020
v -0.529705 -0.320124 -2.010471
v 0.493034 -0.320125 -2.010471
v -0.529705 -0.321556 -2.014275
v 0.493034 -0.321556 -2.014275
v -0.529705 -0.322218 -2.018285
v 0.493034 -0.322218 -2.018285
v -0.529705 -0.322085 -2.022346
v 0.493033 -0.322085 -2.022347
v -0.529705 -0.321162 -2.026305
v 0.493034 -0.321162 -2.026305
v -0.529705 -0.319485 -2.030006
v 0.493034 -0.319485 -2.030007
v -0.529705 -0.317118 -2.033310
v 0.493034 -0.317118 -2.033310
v -0.529705 -0.314151 -2.036088
v 0.493035 -0.314152 -2.036088
v -0.529705 -0.310700 -2.038234
v 0.493034 -0.310700 -2.038235
v -0.529705 -0.306896 -2.039666
v 0.493034 -0.306897 -2.039666
v -0.529705 -0.302887 -2.040328
v 0.493034 -0.302887 -2.040328
v -0.529705 -0.298825 -2.040195
v 0.493034 -0.298825 -2.040195
v -0.529705 -0.294867 -2.039272
v 0.493034 -0.294867 -2.039272
v -0.529705 -0.291165 -2.037595
v 0.493034 -0.291165 -2.037595
v -0.529705 -0.287861 -2.035228
v 0.493035 -0.287862 -2.035228
v -0.529705 -0.285083 -2.032261
v 0.493034 -0.285083 -2.032261
v -0.529705 -0.282937 -2.028810
v 0.493034 -0.282937 -2.028810
v -0.529705 -0.281505 -2.025006
v 0.493034 -0.281506 -2.025007
v -0.529705 -0.280843 -2.020997
v 0.493034 -0.280844 -2.020997
v -0.529705 -0.280976 -2.016934
v 0.493034 -0.280977 -2.016935
v -0.529705 -0.281899 -2.012977
v 0.493034 -0.281900 -2.012977
vt 0.6462 0.4438
vt 0.7718 0.3109
vt 0.7718 0.4438
vt 0.4029 0.4856
vt 0.4361 0.3419
vt 0.4361 0.4442
vt 0.0745 0.3191
vt 0.2130 0.4656
vt 0.0745 0.4656
vt 0.5446 0.4442
vt 0.5778 0.4856
vt 0.5779 0.3547
vt 0.4855 0.4524
vt 0.4855 0.3547
vt 0.4587 0.4786
vt 0.3131 0.3245
vt 0.4587 0.3245
vt 0.1659 0.4916
vt 0.0580 0.2986
vt 0.1659 0.2986
vt 0.7270 0.4752
vt 0.6282 0.2984
vt 0.7270 0.2984
vt 0.3742 0.4782
vt 0.2531 0.2852
vt 0.3742 0.2852
vt 0.6282 0.4752
vt 0.5173 0.2984
vt 0.5778 0.3006
vt 0.5446 0.3419
vt 0.4029 0.3006
vt 0.4747 0.4313
vt 0.5115 0.2903
vt 0.5115 0.4643
vt 0.3470 0.4643
vt 0.3837 0.3233
vt 0.3470 0.2903
vt 0.4747 0.3233
vt 0.3876 0.9577
vt 0.4102 0.7994
vt 0.4102 0.9577
vt 0.0550 0.9397
vt 0.0442 0.9159
vt 0.0550 0.9159
vt 0.4327 0.9577
vt 0.4552 0.7994
vt 0.4552 0.9577
vt 0.0550 0.9397
vt 0.0659 0.9159
vt 0.0659 0.9397
vt 0.4770 0.9577
vt 0.4878 0.7994
vt 0.4878 0.9577
vt 0.2533 0.7838
vt 0.2425 0.9314
vt 0.2425 0.7838
vt 0.7214 0.9400
vt 0.7440 0.7816
vt 0.7440 0.9400
vt 0.3554 0.6779
vt 0.3445 0.6540
vt 0.3554 0.6540
vt 0.7890 0.9400
vt 0.7665 0.7816
vt 0.7890 0.7816
vt 0.4222 0.9220
vt 0.4331 0.8981
vt 0.4331 0.9220
vt 0.8224 0.7816
vt 0.8115 0.9400
vt 0.8115 0.7816
vt 0.8333 0.7816
vt 0.8224 0.9400
vt 0.8224 0.7816
vt 0.6220 0.7052
vt 0.6228 0.5328
vt 0.6228 0.7052
vt 0.5526 0.5328
vt 0.5545 0.7052
vt 0.5526 0.7052
vt 0.5577 0.5328
vt 0.5577 0.7052
vt 0.5619 0.7052
vt 0.5619 0.5328
vt 0.5671 0.7052
vt 0.5730 0.5328
vt 0.5730 0.7052
vt 0.5795 0.7052
vt 0.5795 0.5328
vt 0.5861 0.7052
vt 0.5861 0.5328
vt 0.5928 0.7052
vt 0.5992 0.5328
vt 0.5992 0.7052
vt 0.6052 0.7052
vt 0.6052 0.5328
vt 0.6104 0.7052
vt 0.6104 0.5328
vt 0.6146 0.7052
vt 0.6178 0.5328
vt 0.6178 0.7052
vt 0.6197 0.7052
vt 0.6205 0.5328
vt 0.6205 0.7052
vt 0.6212 0.7052
vt 0.4854 0.5328
vt 0.4873 0.7052
vt 0.4854 0.7052
vt 0.4905 0.5328
vt 0.4905 0.7052
vt 0.4948 0.5328
vt 0.4948 0.7052
vt 0.4999 0.7052
vt 0.4999 0.5328
vt 0.5059 0.7052
vt 0.5059 0.5328
vt 0.5123 0.7052
vt 0.5123 0.5328
vt 0.5190 0.7052
vt 0.5190 0.5328
vt 0.5256 0.7052
vt 0.5321 0.5328
vt 0.5321 0.7052
vt 0.5380 0.7052
vt 0.5380 0.5328
vt 0.5432 0.7052
vt 0.5432 0.5328
vt 0.5474 0.7052
vt 0.5506 0.5328
vt 0.5506 0.7052
vt 0.5021 0.9088
vt 0.4975 0.8614
vt 0.4998 0.8418
vt 0.5526 0.7052
vt 0.6212 0.5328
vt 0.6212 0.7052
vt 0.4921 0.8398
vt 0.4969 0.8682
vt 0.4943 0.9108
vt 0.6462 0.3109
vt 0.2130 0.3191
vt 0.5779 0.4524
vt 0.3131 0.4786
vt 0.0580 0.4916
vt 0.2531 0.4782
vt 0.5173 0.4752
vt 0.3837 0.4313
vt 0.3876 0.7994
vt 0.0442 0.9397
vt 0.4327 0.7994
vt 0.0550 0.9159
vt 0.4770 0.7994
vt 0.2533 0.9314
vt 0.7214 0.7816
vt 0.3445 0.6779
vt 0.7665 0.9400
vt 0.4222 0.8981
vt 0.8224 0.9400
vt 0.8333 0.9400
vt 0.6220 0.5328
vt 0.5545 0.5328
vt 0.5671 0.5328
vt 0.5928 0.5328
vt 0.6146 0.5328
vt 0.6197 0.5328
vt 0.6212 0.5328
vt 0.4873 0.5328
vt 0.5256 0.5328
vt 0.5474 0.5328
vt 0.5006 0.8398
vt 0.5028 0.8419
vt 0.5013 0.8391
vt 0.5021 0.8398
vt 0.5034 0.8452
vt 0.5040 0.8497
vt 0.5044 0.8552
vt 0.5047 0.8615
vt 0.5048 0.8683
vt 0.5048 0.8754
vt 0.5047 0.8824
vt 0.5044 0.8892
vt 0.5040 0.8955
vt 0.5034 0.9010
vt 0.5028 0.9055
vt 0.5013 0.9108
vt 0.4991 0.9088
vt 0.5006 0.9115
vt 0.4998 0.9108
vt 0.4985 0.9054
vt 0.4979 0.9009
vt 0.4975 0.8954
vt 0.4972 0.8891
vt 0.4971 0.8823
vt 0.4971 0.8753
vt 0.4972 0.8682
vt 0.4979 0.8551
vt 0.4985 0.8497
vt 0.4991 0.8452
vt 0.5526 0.5328
vt 0.4936 0.9115
vt 0.4928 0.9108
vt 0.4921 0.9088
vt 0.4914 0.9055
vt 0.4907 0.9010
vt 0.4902 0.8955
vt 0.4898 0.8892
vt 0.4895 0.8824
vt 0.4893 0.8754
vt 0.4898 0.8552
vt 0.4893 0.8683
vt 0.4895 0.8615
vt 0.4902 0.8497
vt 0.4907 0.8452
vt 0.4914 0.8419
vt 0.4928 0.8391
vt 0.4950 0.8452
vt 0.4936 0.8398
vt 0.4943 0.8418
vt 0.4957 0.8497
vt 0.4962 0.8551
vt 0.4966 0.8614
vt 0.4971 0.8753
vt 0.4966 0.8954
vt 0.4971 0.8823
vt 0.4969 0.8891
vt 0.4962 0.9009
vt 0.4957 0.9054
vt 0.4950 0.9088
vn 1.0000 -0.0000 -0.0000
vn 0.0165 -0.8659 -0.4999
vn -1.0000 0.0000 0.0000
vn -0.0000 -0.8577 -0.5142
vn 0.0000 -0.5000 0.8660
vn -0.0000 0.5000 -0.8660
vn -0.0165 -0.8659 -0.4999
vn -0.0000 -0.8741 -0.4857
vn 0.0000 0.8741 0.4857
vn -0.0165 0.8659 0.4999
vn 0.0000 0.8577 0.5142
vn 0.0165 0.8659 0.4999
vn 0.0000 0.8660 0.5000
vn 0.0000 -0.8660 -0.5000
vn -0.0000 -0.8128 -0.5825
vn -0.0000 -0.6836 -0.7298
vn -0.0000 -0.5280 -0.8492
vn -0.0000 -0.3522 -0.9359
vn -0.0000 -0.1629 -0.9866
vn -0.0000 0.0327 -0.9995
vn -0.0000 0.2270 -0.9739
vn -0.0000 0.4128 -0.9108
vn 0.0000 0.5824 -0.8129
vn -0.0000 0.7299 -0.6836
vn 0.0000 0.8492 -0.5281
vn 0.0000 0.9359 -0.3522
vn 0.0000 0.9866 -0.1629
vn 0.0000 0.9995 0.0327
vn 0.0000 0.9739 0.2271
vn 0.0000 0.9109 0.4127
vn 0.0000 0.8128 0.5825
vn 0.0000 0.6836 0.7299
vn 0.0000 0.5281 0.8492
vn 0.0000 0.3523 0.9359
vn 0.0000 0.1629 0.9866
vn 0.0000 -0.0327 0.9995
vn 0.0000 -0.2271 0.9739
vn -0.0000 -0.4127 0.9109
vn -0.0000 -0.5825 0.8128
vn -0.0000 -0.7299 0.6836
vn -0.0000 -0.8492 0.5281
vn -0.0000 -0.9359 0.3522
vn -0.0000 -0.9866 0.1629
vn -0.0000 -0.9995 -0.0327
vn -0.0000 -0.9739 -0.2271
vn -0.0000 -0.9109 -0.4127
vn -0.0000 -0.6836 -0.7299
vn -0.0000 -0.5281 -0.8492
vn 0.0000 0.2271 -0.9739
vn -0.0000 0.4127 -0.9109
vn -0.0000 0.5825 -0.8128
vn 0.0000 0.7298 -0.6836
vn 0.0000 0.3522 0.9359
vn -0.0000 0.1629 0.9867
vn -1.0000 -0.0003 -0.0001
vn -1.0000 -0.0007 -0.0001
vn -1.0000 0.0009 -0.0010
vn -1.0000 0.0000 0.0001
vn -1.0000 0.0002 0.0006
vn -1.0000 0.0001 0.0000
vn -1.0000 -0.0008 -0.0003
vn -1.0000 -0.0010 0.0001
vn -1.0000 -0.0002 -0.0006
vn -1.0000 0.0006 0.0003
vn -1.0000 0.0000 0.0002
vn -1.0000 -0.0002 -0.0002
vn -1.0000 0.0003 0.0001
vn -1.0000 -0.0000 -0.0002
vn 1.0000 0.0001 0.0000
vn 1.0000 -0.0006 0.0003
vn 1.0000 0.0000 -0.0001
vn 1.0000 -0.0001 0.0000
vn 1.0000 0.0005 -0.0004
s off
f 2/1/1 3/2/1 1/3/1
f 5/4/2 16/5/2 15/6/2
f 7/7/3 6/8/3 5/9/3
f 5/4/4 10/10/4 1/11/4
f 7/12/5 1/13/5 3/14/5
f 6/15/5 4/16/5 8/17/5
f 9/18/3 11/19/3 10/20/3
f 15/21/1 14/22/1 13/23/1
f 10/24/6 13/25/6 9/26/6
f 16/27/5 12/28/5 14/22/5
f 2/29/7 10/10/7 11/30/7
f 11/30/8 6/31/8 2/29/8
f 9/32/9 7/33/9 3/34/9
f 4/35/10 9/32/10 3/34/10
f 14/36/11 4/35/11 8/37/11
f 13/38/12 8/37/12 7/33/12
f 18/39/1 19/40/1 17/41/1
f 20/42/13 23/43/13 19/44/13
f 24/45/3 21/46/3 23/47/3
f 21/48/14 18/49/14 17/50/14
f 23/51/5 17/52/5 19/53/5
f 20/54/6 22/55/6 24/56/6
f 26/57/1 27/58/1 25/59/1
f 28/60/13 31/61/13 27/62/13
f 31/63/3 30/64/3 29/65/3
f 29/66/14 26/67/14 25/68/14
f 31/69/5 25/70/5 27/71/5
f 28/72/6 30/73/6 32/74/6
f 33/75/15 36/76/15 35/77/15
f 36/78/16 37/79/16 35/80/16
f 37/79/17 40/81/17 39/82/17
f 40/81/18 41/83/18 39/82/18
f 42/84/19 43/85/19 41/83/19
f 43/85/20 46/86/20 45/87/20
f 46/86/21 47/88/21 45/87/21
f 48/89/22 49/90/22 47/88/22
f 50/91/23 51/92/23 49/90/23
f 51/92/24 54/93/24 53/94/24
f 54/93/25 55/95/25 53/94/25
f 56/96/26 57/97/26 55/95/26
f 58/98/27 59/99/27 57/97/27
f 59/99/28 62/100/28 61/101/28
f 62/100/29 63/102/29 61/101/29
f 63/102/30 66/103/30 65/104/30
f 66/103/31 67/105/31 65/104/31
f 68/106/32 69/107/32 67/108/32
f 69/107/33 72/109/33 71/110/33
f 71/110/34 74/111/34 73/112/34
f 74/111/35 75/113/35 73/112/35
f 76/114/36 77/115/36 75/113/36
f 78/116/37 79/117/37 77/115/37
f 80/118/38 81/119/38 79/117/38
f 82/120/39 83/121/39 81/119/39
f 83/121/40 86/122/40 85/123/40
f 86/122/41 87/124/41 85/123/41
f 88/125/42 89/126/42 87/124/42
f 90/127/43 91/128/43 89/126/43
f 91/128/44 94/129/44 93/130/44
f 70/131/3 46/132/3 38/133/3
f 94/129/45 95/134/45 93/130/45
f 96/135/46 33/75/46 95/136/46
f 63/137/1 79/138/1 95/139/1
f 2/1/1 4/140/1 3/2/1
f 5/4/2 6/31/2 16/5/2
f 7/7/3 8/141/3 6/8/3
f 5/4/4 15/6/4 10/10/4
f 7/12/5 5/142/5 1/13/5
f 6/15/5 2/143/5 4/16/5
f 9/18/3 12/144/3 11/19/3
f 15/21/1 16/27/1 14/22/1
f 10/24/6 15/145/6 13/25/6
f 16/27/5 11/146/5 12/28/5
f 2/29/7 1/11/7 10/10/7
f 11/30/8 16/5/8 6/31/8
f 9/32/9 13/38/9 7/33/9
f 4/35/10 12/147/10 9/32/10
f 14/36/11 12/147/11 4/35/11
f 13/38/12 14/36/12 8/37/12
f 18/39/1 20/148/1 19/40/1
f 20/42/13 24/149/13 23/43/13
f 24/45/3 22/150/3 21/46/3
f 21/48/14 22/151/14 18/49/14
f 23/51/5 21/152/5 17/52/5
f 20/54/6 18/153/6 22/55/6
f 26/57/1 28/154/1 27/58/1
f 28/60/13 32/155/13 31/61/13
f 31/63/3 32/156/3 30/64/3
f 29/66/14 30/157/14 26/67/14
f 31/69/5 29/158/5 25/70/5
f 28/72/6 26/159/6 30/73/6
f 33/75/15 34/160/15 36/76/15
f 36/78/47 38/161/47 37/79/47
f 37/79/48 38/161/48 40/81/48
f 40/81/18 42/84/18 41/83/18
f 42/84/19 44/162/19 43/85/19
f 43/85/20 44/162/20 46/86/20
f 46/86/49 48/89/49 47/88/49
f 48/89/50 50/91/50 49/90/50
f 50/91/51 52/163/51 51/92/51
f 51/92/52 52/163/52 54/93/52
f 54/93/25 56/96/25 55/95/25
f 56/96/26 58/98/26 57/97/26
f 58/98/27 60/164/27 59/99/27
f 59/99/28 60/164/28 62/100/28
f 62/100/29 64/165/29 63/102/29
f 63/102/30 64/165/30 66/103/30
f 66/103/31 68/166/31 67/105/31
f 68/106/32 70/167/32 69/107/32
f 69/107/33 70/167/33 72/109/33
f 71/110/53 72/109/53 74/111/53
f 74/111/54 76/114/54 75/113/54
f 76/114/36 78/116/36 77/115/36
f 78/116/37 80/118/37 79/117/37
f 80/118/38 82/120/38 81/119/38
f 82/120/39 84/168/39 83/121/39
f 83/121/40 84/168/40 86/122/40
f 86/122/41 88/125/41 87/124/41
f 88/125/42 90/127/42 89/126/42
f 90/127/43 92/169/43 91/128/43
f 91/128/44 92/169/44 94/129/44
f 38/133/55 36/170/55 94/171/55
f 34/172/56 96/173/56 94/171/56
f 94/171/3 92/174/3 90/175/3
f 90/175/3 88/176/3 86/177/3
f 86/177/57 84/178/57 82/179/57
f 82/179/3 80/180/3 86/177/3
f 78/181/58 76/182/58 70/131/58
f 74/183/59 72/184/59 70/131/59
f 70/131/60 68/185/60 62/186/60
f 66/187/61 64/188/61 62/186/61
f 62/186/62 60/189/62 58/190/62
f 58/190/3 56/191/3 54/192/3
f 54/192/3 52/193/3 46/132/3
f 50/194/3 48/195/3 46/132/3
f 46/132/3 44/196/3 42/197/3
f 42/197/63 40/198/63 38/133/63
f 36/170/64 34/172/64 94/171/64
f 94/171/3 90/175/3 86/177/3
f 86/177/3 80/180/3 78/181/3
f 76/182/65 74/183/65 70/131/65
f 68/185/66 66/187/66 62/186/66
f 62/186/67 58/190/67 70/131/67
f 52/193/3 50/194/3 46/132/3
f 46/132/68 42/197/68 38/133/68
f 38/133/3 94/171/3 86/177/3
f 86/177/3 78/181/3 70/131/3
f 70/131/3 58/190/3 54/192/3
f 54/192/3 46/132/3 70/131/3
f 38/133/3 86/177/3 70/131/3
f 94/129/45 96/199/45 95/134/45
f 96/135/46 34/160/46 33/75/46
f 95/139/69 33/200/69 35/201/69
f 35/201/1 37/202/1 39/203/1
f 39/203/1 41/204/1 43/205/1
f 43/205/1 45/206/1 39/203/1
f 47/207/1 49/208/1 55/209/1
f 51/210/70 53/211/70 55/209/70
f 55/209/1 57/212/1 63/137/1
f 59/213/1 61/214/1 63/137/1
f 63/137/1 65/215/1 71/216/1
f 67/217/1 69/218/1 71/216/1
f 71/216/1 73/219/1 75/220/1
f 75/220/1 77/221/1 79/138/1
f 79/138/1 81/222/1 87/223/1
f 83/224/71 85/225/71 87/223/71
f 87/223/1 89/226/1 95/139/1
f 91/227/72 93/228/72 95/139/72
f 95/139/1 35/201/1 47/207/1
f 39/203/1 45/206/1 47/207/1
f 49/208/73 51/210/73 55/209/73
f 57/212/1 59/213/1 63/137/1
f 65/215/1 67/217/1 71/216/1
f 71/216/1 75/220/1 63/137/1
f 81/222/1 83/224/1 87/223/1
f 89/226/1 91/227/1 95/139/1
f 35/201/1 39/203/1 47/207/1
f 47/207/1 55/209/1 95/139/1
f 63/137/1 75/220/1 79/138/1
f 79/138/1 87/223/1 95/139/1
f 95/139/1 55/209/1 63/137/1
