# Blender v2.75 (sub 0) OBJ File: 'oven.blend'
# www.blender.org
o Body_Cube.001
v 0.800000 0.600000 -0.750000
v 1.000000 -1.000000 1.000000
v -1.000000 1.000000 1.000000
v -1.000000 0.800000 -1.000000
v -1.000000 1.000000 -1.000000
v 1.000000 1.000000 1.000000
v 1.000000 0.800000 -1.000000
v 1.000000 1.000000 -1.000000
v -1.000000 -1.000000 1.000000
v -1.000000 0.800000 -0.750000
v -0.800000 0.600000 -0.750000
v -0.800000 -0.800000 0.800000
v -0.800000 0.600000 0.800000
v 0.800000 -0.800000 0.800000
v 0.800000 0.600000 0.800000
v -1.000000 -1.000000 -0.750000
v -0.800000 -0.800000 -0.750000
v 1.000000 -1.000000 -0.750000
v 0.800000 -0.800000 -0.750000
v 1.000000 0.800000 -0.750000
v -1.000000 1.000000 1.000000
v -1.000000 1.000000 1.000000
v -1.000000 -1.000000 1.000000
v -1.000000 -1.000000 1.000000
v -1.000000 1.000000 -1.000000
v -1.000000 1.000000 -1.000000
v -1.000000 0.800000 -1.000000
v -1.000000 0.800000 -1.000000
v 1.000000 1.000000 1.000000
v 1.000000 1.000000 1.000000
v 1.000000 -1.000000 1.000000
v 1.000000 -1.000000 1.000000
v 1.000000 1.000000 -1.000000
v 1.000000 1.000000 -1.000000
v 1.000000 0.800000 -1.000000
v 1.000000 0.800000 -1.000000
v 1.000000 0.800000 -0.750000
v 1.000000 0.800000 -0.750000
v -0.800000 0.600000 -0.750000
v -0.800000 0.600000 -0.750000
v -0.800000 -0.800000 -0.750000
v -0.800000 -0.800000 -0.750000
v -1.000000 0.800000 -0.750000
v -1.000000 0.800000 -0.750000
v -0.800000 0.600000 0.800000
v -0.800000 0.600000 0.800000
v -0.800000 -0.800000 0.800000
v -0.800000 -0.800000 0.800000
v 0.800000 0.600000 0.800000
v 0.800000 0.600000 0.800000
v 0.800000 -0.800000 0.800000
v 0.800000 -0.800000 0.800000
v 0.800000 -0.800000 -0.750000
v 0.800000 -0.800000 -0.750000
v 1.000000 -1.000000 -0.750000
v 1.000000 -1.000000 -0.750000
v -1.000000 -1.000000 -0.750000
v -1.000000 -1.000000 -0.750000
v 0.800000 0.600000 -0.750000
v 0.800000 0.600000 -0.750000
vn 1.000000 0.000000 0.000000
vn 0.000000 0.000000 -1.000000
vn -1.000000 0.000000 -0.000000
vn 0.000000 -1.000000 0.000000
vn 0.000000 1.000000 0.000000
vn 0.000000 0.000000 1.000000
s off
f 39//1 45//1 47//1
f 33//2 35//2 27//2
f 59//3 53//3 51//3
f 57//2 44//2 40//2
f 60//4 49//4 46//4
f 34//5 25//5 22//5
f 21//3 5//3 43//3
f 15//2 52//2 48//2
f 31//6 29//6 3//6
f 54//5 17//5 12//5
f 32//1 37//1 6//1
f 19//2 55//2 57//2
f 38//2 1//2 40//2
f 16//4 18//4 2//4
f 55//2 19//2 1//2
f 20//4 10//4 4//4
f 41//1 39//1 47//1
f 26//2 33//2 27//2
f 50//3 59//3 51//3
f 42//2 57//2 40//2
f 11//4 60//4 46//4
f 30//5 34//5 22//5
f 43//3 58//3 23//3
f 5//3 28//3 43//3
f 43//3 23//3 21//3
f 13//2 15//2 48//2
f 24//6 31//6 3//6
f 14//5 54//5 12//5
f 37//1 8//1 6//1
f 37//1 32//1 56//1
f 37//1 36//1 8//1
f 42//2 19//2 57//2
f 44//2 38//2 40//2
f 9//4 16//4 2//4
f 38//2 55//2 1//2
f 7//4 20//4 4//4
