# Blender v2.78 (sub 0) OBJ File: 'oven.blend'
# www.blender.org
o oven_Door_Cube.001
v 0.983996 -0.944890 -0.895912
v 0.983996 0.740245 -0.895912
v 0.983996 -0.944890 -0.705158
v 0.983996 0.740245 -0.705158
v -0.993295 -0.944890 -0.895912
v -0.993295 0.740245 -0.895912
v -0.993295 -0.944890 -0.705158
v -0.993295 0.740245 -0.705158
v 0.609054 -0.568219 -0.711363
v 0.609054 -0.568219 -0.889708
v 0.609054 0.363574 -0.889708
v 0.609054 0.363574 -0.711363
v -0.618354 -0.568219 -0.711362
v -0.618354 0.363574 -0.711362
v -0.618354 -0.568219 -0.889707
v -0.618354 0.363574 -0.889707
v 0.530223 0.475422 -1.063276
v 0.530223 0.595887 -1.063276
v 0.530223 0.475422 -0.883865
v 0.530223 0.595887 -0.883865
v 0.461998 0.475422 -1.063276
v 0.461998 0.595887 -1.063276
v 0.461998 0.475422 -0.883865
v 0.461998 0.595887 -0.883865
v -0.509191 0.475422 -1.063276
v -0.509191 0.595887 -1.063276
v -0.509191 0.475422 -0.883865
v -0.509191 0.595887 -0.883865
v -0.577416 0.475422 -1.063276
v -0.577416 0.595887 -1.063276
v -0.577416 0.475422 -0.883865
v -0.577416 0.595887 -0.883865
v -0.529705 0.538689 -0.999788
v 0.493035 0.538689 -0.999788
v -0.529705 0.534645 -1.000186
v 0.493034 0.534645 -1.000186
v -0.529705 0.530755 -1.001366
v 0.493035 0.530755 -1.001366
v -0.529705 0.527171 -1.003282
v 0.493034 0.527171 -1.003282
v -0.529705 0.524030 -1.005860
v 0.493034 0.524030 -1.005860
v -0.529705 0.521451 -1.009001
v 0.493034 0.521451 -1.009002
v -0.529705 0.519536 -1.012586
v 0.493034 0.519536 -1.012586
v -0.529705 0.518356 -1.016475
v 0.493034 0.518356 -1.016475
v -0.529705 0.517958 -1.020519
v 0.493034 0.517958 -1.020520
v -0.529705 0.518356 -1.024564
v 0.493034 0.518356 -1.024564
v -0.529705 0.519536 -1.028453
v 0.493034 0.519536 -1.028453
v -0.529705 0.521451 -1.032037
v 0.493034 0.521451 -1.032038
v -0.529705 0.524030 -1.035179
v 0.493034 0.524030 -1.035179
v -0.529705 0.527171 -1.037757
v 0.493034 0.527171 -1.037758
v -0.529705 0.530755 -1.039673
v 0.493033 0.530755 -1.039673
v -0.529705 0.534645 -1.040853
v 0.493034 0.534645 -1.040853
v -0.529705 0.538689 -1.041251
v 0.493034 0.538689 -1.041251
v -0.529705 0.542734 -1.040853
v 0.493034 0.542734 -1.040853
v -0.529705 0.546623 -1.039673
v 0.493035 0.546623 -1.039673
v -0.529705 0.550207 -1.037757
v 0.493034 0.550207 -1.037758
v -0.529705 0.553349 -1.035179
v 0.493034 0.553349 -1.035179
v -0.529705 0.555927 -1.032037
v 0.493034 0.555927 -1.032038
v -0.529705 0.557843 -1.028453
v 0.493034 0.557843 -1.028453
v -0.529705 0.559022 -1.024564
v 0.493034 0.559022 -1.024564
v -0.529705 0.559421 -1.020519
v 0.493034 0.559421 -1.020520
v -0.529705 0.559022 -1.016475
v 0.493035 0.559022 -1.016475
v -0.529705 0.557843 -1.012586
v 0.493034 0.557843 -1.012586
v -0.529705 0.555927 -1.009001
v 0.493034 0.555927 -1.009002
v -0.529705 0.553349 -1.005860
v 0.493034 0.553349 -1.005860
v -0.529705 0.550207 -1.003282
v 0.493034 0.550207 -1.003282
v -0.529705 0.546623 -1.001366
v 0.493034 0.546623 -1.001366
v -0.529705 0.542734 -1.000186
v 0.493034 0.542734 -1.000186
vt 0.6462 0.3109
vt 0.7718 0.4438
vt 0.7718 0.3109
vt 0.4361 0.3419
vt 0.4029 0.4856
vt 0.4361 0.4442
vt 0.2130 0.4656
vt 0.0745 0.3191
vt 0.0745 0.4656
vt 0.5446 0.4442
vt 0.4029 0.4856
vt 0.5778 0.4856
vt 0.5779 0.4524
vt 0.4855 0.3547
vt 0.4855 0.4524
vt 0.3131 0.3245
vt 0.4587 0.4786
vt 0.3131 0.4786
vt 0.0580 0.4916
vt 0.1659 0.2986
vt 0.0580 0.2986
vt 0.6282 0.4752
vt 0.7270 0.2984
vt 0.6282 0.2984
vt 0.2531 0.4782
vt 0.3742 0.2852
vt 0.2531 0.2852
vt 0.5173 0.4752
vt 0.6282 0.2984
vt 0.5173 0.2984
vt 0.5446 0.4442
vt 0.5778 0.3006
vt 0.5446 0.3419
vt 0.4361 0.3419
vt 0.5778 0.3006
vt 0.4029 0.3006
vt 0.5115 0.2903
vt 0.4747 0.4313
vt 0.5115 0.4643
vt 0.3837 0.4313
vt 0.5115 0.4643
vt 0.4747 0.4313
vt 0.3470 0.4643
vt 0.3837 0.3233
vt 0.3470 0.2903
vt 0.3837 0.3233
vt 0.5115 0.2903
vt 0.3470 0.2903
vt 0.3876 0.7994
vt 0.4102 0.9577
vt 0.4102 0.7994
vt 0.0442 0.9397
vt 0.0550 0.9159
vt 0.0442 0.9159
vt 0.4327 0.7994
vt 0.4552 0.9577
vt 0.4552 0.7994
vt 0.0659 0.9159
vt 0.0550 0.9397
vt 0.0659 0.9397
vt 0.4878 0.7994
vt 0.4770 0.9577
vt 0.4878 0.9577
vt 0.2533 0.9314
vt 0.2425 0.7838
vt 0.2425 0.9314
vt 0.7214 0.7816
vt 0.7440 0.9400
vt 0.7440 0.7816
vt 0.3445 0.6779
vt 0.3554 0.6540
vt 0.3445 0.6540
vt 0.7665 0.7816
vt 0.7890 0.9400
vt 0.7890 0.7816
vt 0.4331 0.8981
vt 0.4222 0.9220
vt 0.4331 0.9220
vt 0.8224 0.9400
vt 0.8115 0.7816
vt 0.8115 0.9400
vt 0.8224 0.9400
vt 0.8333 0.7816
vt 0.8224 0.7816
vt 0.6228 0.7052
vt 0.6220 0.5328
vt 0.6228 0.5328
vt 0.5526 0.7052
vt 0.5545 0.5328
vt 0.5545 0.7052
vt 0.5577 0.7052
vt 0.5545 0.5328
vt 0.5577 0.5328
vt 0.5619 0.7052
vt 0.5577 0.5328
vt 0.5619 0.5328
vt 0.5619 0.7052
vt 0.5671 0.5328
vt 0.5671 0.7052
vt 0.5671 0.7052
vt 0.5730 0.5328
vt 0.5730 0.7052
vt 0.5730 0.7052
vt 0.5795 0.5328
vt 0.5795 0.7052
vt 0.5795 0.7052
vt 0.5861 0.5328
vt 0.5861 0.7052
vt 0.5861 0.7052
vt 0.5928 0.5328
vt 0.5928 0.7052
vt 0.5992 0.7052
vt 0.5928 0.5328
vt 0.5992 0.5328
vt 0.5992 0.7052
vt 0.6052 0.5328
vt 0.6052 0.7052
vt 0.6052 0.7052
vt 0.6104 0.5328
vt 0.6104 0.7052
vt 0.6104 0.7052
vt 0.6146 0.5328
vt 0.6146 0.7052
vt 0.6178 0.7052
vt 0.6146 0.5328
vt 0.6178 0.5328
vt 0.6178 0.7052
vt 0.6197 0.5328
vt 0.6197 0.7052
vt 0.6197 0.7052
vt 0.6205 0.5328
vt 0.6205 0.7052
vt 0.6205 0.7052
vt 0.6212 0.5328
vt 0.6212 0.7052
vt 0.4854 0.7052
vt 0.4873 0.5328
vt 0.4873 0.7052
vt 0.4905 0.7052
vt 0.4873 0.5328
vt 0.4905 0.5328
vt 0.4905 0.7052
vt 0.4948 0.5328
vt 0.4948 0.7052
vt 0.4948 0.7052
vt 0.4999 0.5328
vt 0.4999 0.7052
vt 0.4999 0.7052
vt 0.5059 0.5328
vt 0.5059 0.7052
vt 0.5059 0.7052
vt 0.5123 0.5328
vt 0.5123 0.7052
vt 0.5123 0.7052
vt 0.5190 0.5328
vt 0.5190 0.7052
vt 0.5190 0.7052
vt 0.5256 0.5328
vt 0.5256 0.7052
vt 0.5321 0.7052
vt 0.5256 0.5328
vt 0.5321 0.5328
vt 0.5321 0.7052
vt 0.5380 0.5328
vt 0.5380 0.7052
vt 0.5380 0.7052
vt 0.5432 0.5328
vt 0.5432 0.7052
vt 0.5432 0.7052
vt 0.5474 0.5328
vt 0.5474 0.7052
vt 0.5474 0.7052
vt 0.5506 0.5328
vt 0.5506 0.7052
vt 0.5368 0.9023
vt 0.5312 0.8651
vt 0.5331 0.8420
vt 0.5506 0.7052
vt 0.5526 0.5328
vt 0.5526 0.7052
vt 0.6212 0.7052
vt 0.6220 0.5328
vt 0.6220 0.7052
vt 0.5253 0.8387
vt 0.5306 0.8583
vt 0.5290 0.9056
vt 0.6462 0.4438
vt 0.4029 0.3006
vt 0.2130 0.3191
vt 0.4361 0.4442
vt 0.5779 0.3547
vt 0.4587 0.3245
vt 0.1659 0.4916
vt 0.7270 0.4752
vt 0.3742 0.4782
vt 0.6282 0.4752
vt 0.5778 0.4856
vt 0.5446 0.3419
vt 0.4747 0.3233
vt 0.3470 0.4643
vt 0.3837 0.4313
vt 0.4747 0.3233
vt 0.3876 0.9577
vt 0.0550 0.9397
vt 0.4327 0.9577
vt 0.0550 0.9159
vt 0.4770 0.7994
vt 0.2533 0.7838
vt 0.7214 0.9400
vt 0.3554 0.6779
vt 0.7665 0.9400
vt 0.4222 0.8981
vt 0.8224 0.7816
vt 0.8333 0.9400
vt 0.6220 0.7052
vt 0.5526 0.5328
vt 0.5545 0.7052
vt 0.5577 0.7052
vt 0.5619 0.5328
vt 0.5671 0.5328
vt 0.5730 0.5328
vt 0.5795 0.5328
vt 0.5861 0.5328
vt 0.5928 0.7052
vt 0.5992 0.5328
vt 0.6052 0.5328
vt 0.6104 0.5328
vt 0.6146 0.7052
vt 0.6178 0.5328
vt 0.6197 0.5328
vt 0.6205 0.5328
vt 0.4854 0.5328
vt 0.4873 0.7052
vt 0.4905 0.5328
vt 0.4948 0.5328
vt 0.4999 0.5328
vt 0.5059 0.5328
vt 0.5123 0.5328
vt 0.5190 0.5328
vt 0.5256 0.7052
vt 0.5321 0.5328
vt 0.5380 0.5328
vt 0.5432 0.5328
vt 0.5474 0.5328
vt 0.5338 0.8387
vt 0.5361 0.8367
vt 0.5345 0.8366
vt 0.5353 0.8360
vt 0.5368 0.8387
vt 0.5374 0.8421
vt 0.5379 0.8466
vt 0.5384 0.8521
vt 0.5387 0.8584
vt 0.5388 0.8652
vt 0.5388 0.8722
vt 0.5387 0.8793
vt 0.5384 0.8861
vt 0.5379 0.8923
vt 0.5374 0.8978
vt 0.5361 0.9057
vt 0.5338 0.9077
vt 0.5353 0.9077
vt 0.5345 0.9084
vt 0.5331 0.9056
vt 0.5325 0.9023
vt 0.5319 0.8978
vt 0.5315 0.8923
vt 0.5312 0.8860
vt 0.5311 0.8792
vt 0.5311 0.8721
vt 0.5315 0.8583
vt 0.5319 0.8520
vt 0.5325 0.8465
vt 0.5506 0.5328
vt 0.6212 0.5328
vt 0.5283 0.9077
vt 0.5276 0.9084
vt 0.5268 0.9077
vt 0.5260 0.9057
vt 0.5253 0.9023
vt 0.5247 0.8978
vt 0.5242 0.8923
vt 0.5237 0.8861
vt 0.5235 0.8793
vt 0.5233 0.8722
vt 0.5233 0.8652
vt 0.5235 0.8584
vt 0.5237 0.8521
vt 0.5242 0.8466
vt 0.5247 0.8421
vt 0.5260 0.8367
vt 0.5268 0.8360
vt 0.5276 0.8366
vt 0.5283 0.8387
vt 0.5290 0.8420
vt 0.5296 0.8465
vt 0.5302 0.8520
vt 0.5309 0.8651
vt 0.5311 0.8721
vt 0.5311 0.8792
vt 0.5309 0.8860
vt 0.5306 0.8923
vt 0.5302 0.8978
vt 0.5296 0.9023
vn 1.0000 0.0000 -0.0000
vn 0.0165 0.0000 -0.9999
vn -1.0000 0.0000 0.0000
vn -0.0000 0.0165 -0.9999
vn 0.0000 -1.0000 -0.0000
vn 0.0000 1.0000 0.0000
vn -0.0165 0.0000 -0.9999
vn -0.0000 -0.0165 -0.9999
vn 0.0000 0.0165 0.9999
vn -0.0165 0.0000 0.9999
vn 0.0000 -0.0165 0.9999
vn 0.0165 0.0000 0.9999
vn 0.0000 0.0000 1.0000
vn 0.0000 0.0000 -1.0000
vn 0.0000 -0.0980 0.9952
vn 0.0000 -0.2903 0.9569
vn 0.0000 -0.4714 0.8819
vn 0.0000 -0.6344 0.7730
vn 0.0000 -0.7730 0.6344
vn 0.0000 -0.8819 0.4714
vn 0.0000 -0.9569 0.2903
vn 0.0000 -0.9952 0.0980
vn -0.0000 -0.9952 -0.0980
vn -0.0000 -0.9569 -0.2903
vn -0.0000 -0.8819 -0.4714
vn -0.0000 -0.7730 -0.6344
vn -0.0000 -0.6344 -0.7730
vn -0.0000 -0.4714 -0.8819
vn -0.0000 -0.2903 -0.9569
vn -0.0000 -0.0980 -0.9952
vn -0.0000 0.0980 -0.9952
vn -0.0000 0.2903 -0.9569
vn -0.0000 0.4714 -0.8819
vn -0.0000 0.6344 -0.7730
vn -0.0000 0.7730 -0.6344
vn -0.0000 0.8819 -0.4714
vn -0.0000 0.9569 -0.2903
vn 0.0000 0.9952 -0.0980
vn 0.0000 0.9952 0.0980
vn 0.0000 0.9569 0.2903
vn 0.0000 0.8819 0.4714
vn 0.0000 0.7730 0.6344
vn 0.0000 0.6344 0.7730
vn 0.0000 0.4714 0.8819
vn 0.0000 0.2903 0.9569
vn 0.0000 0.0980 0.9952
vn 1.0000 -0.0001 0.0003
vn 1.0000 -0.0003 0.0005
vn 1.0000 -0.0001 0.0000
vn 1.0000 0.0001 0.0000
vn 1.0000 0.0005 0.0006
vn 1.0000 -0.0004 -0.0007
vn 1.0000 0.0004 -0.0005
vn 1.0000 -0.0003 -0.0002
vn 1.0000 0.0002 -0.0006
vn 1.0000 -0.0003 0.0006
vn 1.0000 0.0003 0.0002
vn 1.0000 0.0001 0.0003
vn -1.0000 -0.0001 0.0000
vn -1.0000 0.0001 0.0001
vn -1.0000 0.0004 0.0003
vn -1.0000 0.0006 -0.0001
vn -1.0000 0.0001 0.0000
vn -1.0000 0.0002 0.0001
vn -1.0000 0.0001 -0.0001
s off
f 2/1/1 3/2/1 1/3/1
f 6/4/2 15/5/2 5/6/2
f 8/7/3 5/8/3 7/9/3
f 15/10/4 1/11/4 5/12/4
f 7/13/5 1/14/5 3/15/5
f 8/16/6 2/17/6 6/18/6
f 9/19/3 11/20/3 10/21/3
f 15/22/1 14/23/1 13/24/1
f 10/25/6 13/26/6 9/27/6
f 16/28/5 12/29/5 14/30/5
f 1/31/7 11/32/7 2/33/7
f 11/34/8 6/35/8 2/36/8
f 3/37/9 13/38/9 7/39/9
f 4/40/10 9/41/10 3/42/10
f 8/43/11 12/44/11 4/45/11
f 13/46/12 8/47/12 7/48/12
f 18/49/1 19/50/1 17/51/1
f 20/52/13 23/53/13 19/54/13
f 24/55/3 21/56/3 23/57/3
f 22/58/14 17/59/14 21/60/14
f 19/61/5 21/62/5 17/63/5
f 20/64/6 22/65/6 24/66/6
f 26/67/1 27/68/1 25/69/1
f 28/70/13 31/71/13 27/72/13
f 32/73/3 29/74/3 31/75/3
f 30/76/14 25/77/14 29/78/14
f 31/79/5 25/80/5 27/81/5
f 32/82/6 26/83/6 30/84/6
f 33/85/15 36/86/15 34/87/15
f 37/88/16 36/89/16 35/90/16
f 37/91/17 40/92/17 38/93/17
f 39/94/18 42/95/18 40/96/18
f 43/97/19 42/98/19 41/99/19
f 45/100/20 44/101/20 43/102/20
f 47/103/21 46/104/21 45/105/21
f 49/106/22 48/107/22 47/108/22
f 51/109/23 50/110/23 49/111/23
f 51/112/24 54/113/24 52/114/24
f 55/115/25 54/116/25 53/117/25
f 57/118/26 56/119/26 55/120/26
f 59/121/27 58/122/27 57/123/27
f 59/124/28 62/125/28 60/126/28
f 63/127/29 62/128/29 61/129/29
f 65/130/30 64/131/30 63/132/30
f 67/133/31 66/134/31 65/135/31
f 69/136/32 68/137/32 67/138/32
f 69/139/33 72/140/33 70/141/33
f 73/142/34 72/143/34 71/144/34
f 75/145/35 74/146/35 73/147/35
f 77/148/36 76/149/36 75/150/36
f 79/151/37 78/152/37 77/153/37
f 81/154/38 80/155/38 79/156/38
f 83/157/39 82/158/39 81/159/39
f 83/160/40 86/161/40 84/162/40
f 87/163/41 86/164/41 85/165/41
f 89/166/42 88/167/42 87/168/42
f 91/169/43 90/170/43 89/171/43
f 93/172/44 92/173/44 91/174/44
f 66/175/1 90/176/1 34/177/1
f 95/178/45 94/179/45 93/180/45
f 33/181/46 96/182/46 95/183/46
f 67/184/3 51/185/3 35/186/3
f 2/1/1 4/187/1 3/2/1
f 6/4/2 16/188/2 15/5/2
f 8/7/3 6/189/3 5/8/3
f 15/10/4 10/190/4 1/11/4
f 7/13/5 5/191/5 1/14/5
f 8/16/6 4/192/6 2/17/6
f 9/19/3 12/193/3 11/20/3
f 15/22/1 16/194/1 14/23/1
f 10/25/6 15/195/6 13/26/6
f 16/28/5 11/196/5 12/29/5
f 1/31/7 10/197/7 11/32/7
f 11/34/8 16/198/8 6/35/8
f 3/37/9 9/199/9 13/38/9
f 4/40/10 12/200/10 9/41/10
f 8/43/11 14/201/11 12/44/11
f 13/46/12 14/202/12 8/47/12
f 18/49/1 20/203/1 19/50/1
f 20/52/13 24/204/13 23/53/13
f 24/55/3 22/205/3 21/56/3
f 22/58/14 18/206/14 17/59/14
f 19/61/5 23/207/5 21/62/5
f 20/64/6 18/208/6 22/65/6
f 26/67/1 28/209/1 27/68/1
f 28/70/13 32/210/13 31/71/13
f 32/73/3 30/211/3 29/74/3
f 30/76/14 26/212/14 25/77/14
f 31/79/5 29/213/5 25/80/5
f 32/82/6 28/214/6 26/83/6
f 33/85/15 35/215/15 36/86/15
f 37/88/16 38/216/16 36/89/16
f 37/91/17 39/217/17 40/92/17
f 39/94/18 41/218/18 42/95/18
f 43/97/19 44/219/19 42/98/19
f 45/100/20 46/220/20 44/101/20
f 47/103/21 48/221/21 46/104/21
f 49/106/22 50/222/22 48/107/22
f 51/109/23 52/223/23 50/110/23
f 51/112/24 53/224/24 54/113/24
f 55/115/25 56/225/25 54/116/25
f 57/118/26 58/226/26 56/119/26
f 59/121/27 60/227/27 58/122/27
f 59/124/28 61/228/28 62/125/28
f 63/127/29 64/229/29 62/128/29
f 65/130/30 66/230/30 64/131/30
f 67/133/31 68/231/31 66/134/31
f 69/136/32 70/232/32 68/137/32
f 69/139/33 71/233/33 72/140/33
f 73/142/34 74/234/34 72/143/34
f 75/145/35 76/235/35 74/146/35
f 77/148/36 78/236/36 76/149/36
f 79/151/37 80/237/37 78/152/37
f 81/154/38 82/238/38 80/155/38
f 83/157/39 84/239/39 82/158/39
f 83/160/40 85/240/40 86/161/40
f 87/163/41 88/241/41 86/164/41
f 89/166/42 90/242/42 88/167/42
f 91/169/43 92/243/43 90/170/43
f 93/172/44 94/244/44 92/173/44
f 34/177/47 36/245/47 42/246/47
f 38/247/48 40/248/48 42/246/48
f 42/246/49 44/249/49 46/250/49
f 46/250/1 48/251/1 50/252/1
f 50/252/50 52/253/50 54/254/50
f 54/254/49 56/255/49 58/256/49
f 58/256/51 60/257/51 62/258/51
f 62/258/52 64/259/52 58/256/52
f 66/175/1 68/260/1 74/261/1
f 70/262/53 72/263/53 74/261/53
f 74/261/50 76/264/50 78/265/50
f 78/265/1 80/266/1 74/261/1
f 82/267/54 84/268/54 90/176/54
f 86/269/50 88/270/50 90/176/50
f 90/176/1 92/271/1 94/272/1
f 94/272/1 96/273/1 90/176/1
f 36/245/55 38/247/55 42/246/55
f 42/246/1 46/250/1 34/177/1
f 50/252/1 54/254/1 66/175/1
f 58/256/1 64/259/1 66/175/1
f 68/260/56 70/262/56 74/261/56
f 74/261/1 80/266/1 82/267/1
f 84/268/57 86/269/57 90/176/57
f 90/176/58 96/273/58 34/177/58
f 34/177/1 46/250/1 50/252/1
f 54/254/1 58/256/1 66/175/1
f 66/175/1 74/261/1 82/267/1
f 82/267/1 90/176/1 66/175/1
f 34/177/1 50/252/1 66/175/1
f 95/178/45 96/274/45 94/179/45
f 33/181/46 34/275/46 96/182/46
f 35/186/3 33/276/3 95/277/3
f 95/277/3 93/278/3 35/186/3
f 91/279/3 89/280/3 87/281/3
f 87/281/3 85/282/3 91/279/3
f 83/283/3 81/284/3 79/285/3
f 79/285/3 77/286/3 83/283/3
f 75/287/3 73/288/3 71/289/3
f 71/289/3 69/290/3 67/184/3
f 67/184/3 65/291/3 63/292/3
f 63/292/59 61/293/59 59/294/59
f 59/294/60 57/295/60 51/185/60
f 55/296/61 53/297/61 51/185/61
f 51/185/62 49/298/62 47/299/62
f 47/299/63 45/300/63 43/301/63
f 43/301/3 41/302/3 39/303/3
f 39/303/3 37/304/3 43/301/3
f 35/186/3 93/278/3 91/279/3
f 91/279/3 85/282/3 83/283/3
f 83/283/3 77/286/3 75/287/3
f 75/287/3 71/289/3 67/184/3
f 67/184/3 63/292/3 51/185/3
f 57/295/64 55/296/64 51/185/64
f 51/185/65 47/299/65 35/186/65
f 43/301/3 37/304/3 35/186/3
f 35/186/3 91/279/3 83/283/3
f 83/283/3 75/287/3 67/184/3
f 63/292/3 59/294/3 51/185/3
f 47/299/3 43/301/3 35/186/3
f 35/186/3 83/283/3 67/184/3
