# Blender v2.78 (sub 0) OBJ File: 'table.blend'
# www.blender.org
mtllib table.mtl
o Cube_Cube.001
v -1.000000 0.870660 1.000000
v -1.000000 0.991798 1.000000
v -1.000000 0.870660 -0.999999
v -1.000000 0.991798 -0.999999
v 1.000000 0.870660 1.000000
v 1.000000 0.991798 1.000000
v 1.000000 0.870660 -0.999999
v 1.000000 0.991798 -0.999999
v 0.700000 -1.008202 0.600000
v 0.700000 0.891798 0.600000
v 0.738268 -1.008202 0.607612
v 0.738268 0.891798 0.607612
v 0.770711 -1.008202 0.629290
v 0.770711 0.891798 0.629290
v 0.792388 -1.008202 0.661732
v 0.792388 0.891798 0.661732
v 0.800000 -1.008202 0.700000
v 0.800000 0.891798 0.700000
v 0.792388 -1.008202 0.738269
v 0.792388 0.891798 0.738269
v 0.770711 -1.008202 0.770711
v 0.770711 0.891798 0.770711
v 0.738268 -1.008202 0.792388
v 0.738268 0.891798 0.792388
v 0.700000 -1.008202 0.800000
v 0.700000 0.891798 0.800000
v 0.661732 -1.008202 0.792388
v 0.661732 0.891798 0.792388
v 0.629289 -1.008202 0.770711
v 0.629289 0.891798 0.770711
v 0.607612 -1.008202 0.738269
v 0.607612 0.891798 0.738269
v 0.600000 -1.008202 0.700000
v 0.600000 0.891798 0.700000
v 0.607612 -1.008202 0.661732
v 0.607612 0.891798 0.661732
v 0.629289 -1.008202 0.629290
v 0.629289 0.891798 0.629290
v 0.661732 -1.008202 0.607612
v 0.661732 0.891798 0.607612
v -0.700000 -1.008203 0.600000
v -0.700000 0.891798 0.600000
v -0.661732 -1.008203 0.607612
v -0.661732 0.891798 0.607612
v -0.629289 -1.008203 0.629290
v -0.629289 0.891798 0.629290
v -0.607612 -1.008203 0.661732
v -0.607612 0.891798 0.661732
v -0.600000 -1.008203 0.700000
v -0.600000 0.891798 0.700000
v -0.607612 -1.008203 0.738269
v -0.607612 0.891798 0.738269
v -0.629289 -1.008203 0.770711
v -0.629289 0.891798 0.770711
v -0.661732 -1.008203 0.792388
v -0.661732 0.891798 0.792388
v -0.700000 -1.008203 0.800000
v -0.700000 0.891798 0.800000
v -0.738268 -1.008203 0.792388
v -0.738268 0.891798 0.792388
v -0.770711 -1.008203 0.770711
v -0.770711 0.891798 0.770711
v -0.792388 -1.008203 0.738269
v -0.792388 0.891798 0.738269
v -0.800000 -1.008203 0.700000
v -0.800000 0.891798 0.700000
v -0.792388 -1.008203 0.661732
v -0.792388 0.891798 0.661732
v -0.770711 -1.008203 0.629289
v -0.770711 0.891798 0.629289
v -0.738268 -1.008203 0.607612
v -0.738268 0.891798 0.607612
v -0.700000 -1.008202 -0.800000
v -0.700000 0.891798 -0.800000
v -0.661732 -1.008202 -0.792387
v -0.661732 0.891798 -0.792387
v -0.629289 -1.008202 -0.770710
v -0.629289 0.891798 -0.770710
v -0.607612 -1.008202 -0.738268
v -0.607612 0.891798 -0.738268
v -0.600000 -1.008202 -0.700000
v -0.600000 0.891798 -0.700000
v -0.607612 -1.008202 -0.661731
v -0.607612 0.891798 -0.661731
v -0.629289 -1.008202 -0.629289
v -0.629289 0.891798 -0.629289
v -0.661732 -1.008202 -0.607611
v -0.661732 0.891798 -0.607611
v -0.700000 -1.008202 -0.600000
v -0.700000 0.891798 -0.600000
v -0.738268 -1.008202 -0.607611
v -0.738268 0.891798 -0.607611
v -0.770711 -1.008202 -0.629289
v -0.770711 0.891798 -0.629289
v -0.792388 -1.008202 -0.661731
v -0.792388 0.891798 -0.661731
v -0.800000 -1.008202 -0.700000
v -0.800000 0.891798 -0.700000
v -0.792388 -1.008202 -0.738268
v -0.792388 0.891798 -0.738268
v -0.770711 -1.008202 -0.770710
v -0.770711 0.891798 -0.770710
v -0.738268 -1.008202 -0.792387
v -0.738268 0.891798 -0.792387
v 0.700000 -1.008203 -0.800001
v 0.700000 0.891798 -0.800001
v 0.738268 -1.008203 -0.792389
v 0.738268 0.891798 -0.792389
v 0.770711 -1.008203 -0.770712
v 0.770711 0.891798 -0.770712
v 0.792388 -1.008203 -0.738269
v 0.792388 0.891798 -0.738269
v 0.800000 -1.008203 -0.700001
v 0.800000 0.891798 -0.700001
v 0.792388 -1.008203 -0.661733
v 0.792388 0.891798 -0.661733
v 0.770711 -1.008203 -0.629290
v 0.770711 0.891798 -0.629290
v 0.738268 -1.008203 -0.607613
v 0.738268 0.891798 -0.607613
v 0.700000 -1.008203 -0.600001
v 0.700000 0.891798 -0.600001
v 0.661732 -1.008203 -0.607613
v 0.661732 0.891798 -0.607613
v 0.629289 -1.008203 -0.629290
v 0.629289 0.891798 -0.629290
v 0.607612 -1.008203 -0.661733
v 0.607612 0.891798 -0.661733
v 0.600000 -1.008203 -0.700001
v 0.600000 0.891798 -0.700001
v 0.607612 -1.008203 -0.738269
v 0.607612 0.891798 -0.738269
v 0.629289 -1.008203 -0.770712
v 0.629289 0.891798 -0.770712
v 0.661732 -1.008203 -0.792389
v 0.661732 0.891798 -0.792389
v -1.000000 0.870660 1.000000
v -1.000000 0.870660 1.000000
v -1.000000 0.991798 1.000000
v -1.000000 0.991798 1.000000
v -1.000000 0.991798 -0.999999
v -1.000000 0.991798 -0.999999
v -1.000000 0.870660 -0.999999
v -1.000000 0.870660 -0.999999
v 1.000000 0.991798 -0.999999
v 1.000000 0.991798 -0.999999
v 1.000000 0.870660 -0.999999
v 1.000000 0.870660 -0.999999
v 1.000000 0.991798 1.000000
v 1.000000 0.991798 1.000000
v 1.000000 0.870660 1.000000
v 1.000000 0.870660 1.000000
v 0.700000 -1.008202 0.600000
v 0.738268 -1.008202 0.607612
v 0.738268 0.891798 0.607612
v 0.700000 0.891798 0.600000
v 0.770711 -1.008202 0.629290
v 0.770711 0.891798 0.629290
v 0.792388 -1.008202 0.661732
v 0.792388 0.891798 0.661732
v 0.800000 -1.008202 0.700000
v 0.800000 0.891798 0.700000
v 0.792388 -1.008202 0.738269
v 0.792388 0.891798 0.738269
v 0.770711 -1.008202 0.770711
v 0.770711 0.891798 0.770711
v 0.738268 -1.008202 0.792388
v 0.738268 0.891798 0.792388
v 0.700000 -1.008202 0.800000
v 0.700000 0.891798 0.800000
v 0.661732 -1.008202 0.792388
v 0.661732 0.891798 0.792388
v 0.629289 -1.008202 0.770711
v 0.629289 0.891798 0.770711
v 0.607612 -1.008202 0.738269
v 0.607612 0.891798 0.738269
v 0.600000 -1.008202 0.700000
v 0.600000 0.891798 0.700000
v 0.607612 -1.008202 0.661732
v 0.607612 0.891798 0.661732
v 0.629289 -1.008202 0.629290
v 0.629289 0.891798 0.629290
v 0.661732 -1.008202 0.607612
v 0.661732 0.891798 0.607612
v -0.700000 -1.008203 0.600000
v -0.661732 -1.008203 0.607612
v -0.661732 0.891798 0.607612
v -0.700000 0.891798 0.600000
v -0.629289 -1.008203 0.629290
v -0.629289 0.891798 0.629290
v -0.607612 -1.008203 0.661732
v -0.607612 0.891798 0.661732
v -0.600000 -1.008203 0.700000
v -0.600000 0.891798 0.700000
v -0.607612 -1.008203 0.738269
v -0.607612 0.891798 0.738269
v -0.629289 -1.008203 0.770711
v -0.629289 0.891798 0.770711
v -0.661732 -1.008203 0.792388
v -0.661732 0.891798 0.792388
v -0.700000 -1.008203 0.800000
v -0.700000 0.891798 0.800000
v -0.738268 -1.008203 0.792388
v -0.738268 0.891798 0.792388
v -0.770711 -1.008203 0.770711
v -0.770711 0.891798 0.770711
v -0.792388 -1.008203 0.738269
v -0.792388 0.891798 0.738269
v -0.800000 -1.008203 0.700000
v -0.800000 0.891798 0.700000
v -0.792388 -1.008203 0.661732
v -0.792388 0.891798 0.661732
v -0.770711 -1.008203 0.629289
v -0.770711 0.891798 0.629289
v -0.738268 -1.008203 0.607612
v -0.738268 0.891798 0.607612
v -0.700000 -1.008202 -0.800000
v -0.661732 -1.008202 -0.792387
v -0.661732 0.891798 -0.792387
v -0.700000 0.891798 -0.800000
v -0.629289 -1.008202 -0.770710
v -0.629289 0.891798 -0.770710
v -0.607612 -1.008202 -0.738268
v -0.607612 0.891798 -0.738268
v -0.600000 -1.008202 -0.700000
v -0.600000 0.891798 -0.700000
v -0.607612 -1.008202 -0.661731
v -0.607612 0.891798 -0.661731
v -0.629289 -1.008202 -0.629289
v -0.629289 0.891798 -0.629289
v -0.661732 -1.008202 -0.607611
v -0.661732 0.891798 -0.607611
v -0.700000 -1.008202 -0.600000
v -0.700000 0.891798 -0.600000
v -0.738268 -1.008202 -0.607611
v -0.738268 0.891798 -0.607611
v -0.770711 -1.008202 -0.629289
v -0.770711 0.891798 -0.629289
v -0.792388 -1.008202 -0.661731
v -0.792388 0.891798 -0.661731
v -0.800000 -1.008202 -0.700000
v -0.800000 0.891798 -0.700000
v -0.792388 -1.008202 -0.738268
v -0.792388 0.891798 -0.738268
v -0.770711 -1.008202 -0.770710
v -0.770711 0.891798 -0.770710
v -0.738268 -1.008202 -0.792387
v -0.738268 0.891798 -0.792387
v 0.700000 -1.008203 -0.800001
v 0.738268 -1.008203 -0.792389
v 0.738268 0.891798 -0.792389
v 0.700000 0.891798 -0.800001
v 0.770711 -1.008203 -0.770712
v 0.770711 0.891798 -0.770712
v 0.792388 -1.008203 -0.738269
v 0.792388 0.891798 -0.738269
v 0.800000 -1.008203 -0.700001
v 0.800000 0.891798 -0.700001
v 0.792388 -1.008203 -0.661733
v 0.792388 0.891798 -0.661733
v 0.770711 -1.008203 -0.629290
v 0.770711 0.891798 -0.629290
v 0.738268 -1.008203 -0.607613
v 0.738268 0.891798 -0.607613
v 0.700000 -1.008203 -0.600001
v 0.700000 0.891798 -0.600001
v 0.661732 -1.008203 -0.607613
v 0.661732 0.891798 -0.607613
v 0.629289 -1.008203 -0.629290
v 0.629289 0.891798 -0.629290
v 0.607612 -1.008203 -0.661733
v 0.607612 0.891798 -0.661733
v 0.600000 -1.008203 -0.700001
v 0.600000 0.891798 -0.700001
v 0.607612 -1.008203 -0.738269
v 0.607612 0.891798 -0.738269
v 0.629289 -1.008203 -0.770712
v 0.629289 0.891798 -0.770712
v 0.661732 -1.008203 -0.792389
v 0.661732 0.891798 -0.792389
vn -1.0000 0.0000 0.0000
vn 0.0000 0.0000 -1.0000
vn 1.0000 0.0000 0.0000
vn 0.0000 0.0000 1.0000
vn 0.0000 -1.0000 0.0000
vn 0.0000 1.0000 0.0000
vn 0.1951 0.0000 -0.9808
vn 0.5556 0.0000 -0.8315
vn 0.8315 0.0000 -0.5556
vn 0.9808 0.0000 -0.1951
vn 0.9808 0.0000 0.1951
vn 0.8315 0.0000 0.5556
vn 0.5556 0.0000 0.8315
vn 0.1951 0.0000 0.9808
vn -0.1951 0.0000 0.9808
vn -0.5556 0.0000 0.8315
vn -0.8315 0.0000 0.5556
vn -0.9808 0.0000 0.1951
vn -0.9808 0.0000 -0.1951
vn -0.8315 0.0000 -0.5556
vn -0.1951 0.0000 -0.9808
vn -0.5556 0.0000 -0.8315
usemtl None
s off
f 139//1 141//1 143//1 137//1
f 142//2 145//2 147//2 144//2
f 146//3 149//3 151//3 148//3
f 150//4 140//4 138//4 152//4
f 1//5 3//5 7//5 5//5
f 6//6 8//6 4//6 2//6
f 153//7 156//7 155//7 154//7
f 154//8 155//8 158//8 157//8
f 157//9 158//9 160//9 159//9
f 159//10 160//10 162//10 161//10
f 161//11 162//11 164//11 163//11
f 163//12 164//12 166//12 165//12
f 165//13 166//13 168//13 167//13
f 167//14 168//14 170//14 169//14
f 169//15 170//15 172//15 171//15
f 171//16 172//16 174//16 173//16
f 173//17 174//17 176//17 175//17
f 175//18 176//18 178//18 177//18
f 177//19 178//19 180//19 179//19
f 179//20 180//20 182//20 181//20
f 12//6 10//6 184//6 38//6 36//6 34//6 32//6 30//6 28//6 26//6 24//6 22//6 20//6 18//6 16//6 14//6
f 183//21 40//21 156//21 153//21
f 181//22 182//22 40//22 183//22
f 9//5 11//5 13//5 15//5 17//5 19//5 21//5 23//5 25//5 27//5 29//5 31//5 33//5 35//5 37//5 39//5
f 185//7 188//7 187//7 186//7
f 186//8 187//8 190//8 189//8
f 189//9 190//9 192//9 191//9
f 191//10 192//10 194//10 193//10
f 193//11 194//11 196//11 195//11
f 195//12 196//12 198//12 197//12
f 197//13 198//13 200//13 199//13
f 199//14 200//14 202//14 201//14
f 201//15 202//15 204//15 203//15
f 203//16 204//16 206//16 205//16
f 205//17 206//17 208//17 207//17
f 207//18 208//18 210//18 209//18
f 209//19 210//19 212//19 211//19
f 211//20 212//20 214//20 213//20
f 44//6 42//6 216//6 70//6 68//6 66//6 64//6 62//6 60//6 58//6 56//6 54//6 52//6 50//6 48//6 46//6
f 215//21 72//21 188//21 185//21
f 213//22 214//22 72//22 215//22
f 41//5 43//5 45//5 47//5 49//5 51//5 53//5 55//5 57//5 59//5 61//5 63//5 65//5 67//5 69//5 71//5
f 217//7 220//7 219//7 218//7
f 218//8 219//8 222//8 221//8
f 221//9 222//9 224//9 223//9
f 223//10 224//10 226//10 225//10
f 225//11 226//11 228//11 227//11
f 227//12 228//12 230//12 229//12
f 229//13 230//13 232//13 231//13
f 231//14 232//14 234//14 233//14
f 233//15 234//15 236//15 235//15
f 235//16 236//16 238//16 237//16
f 237//17 238//17 240//17 239//17
f 239//18 240//18 242//18 241//18
f 241//19 242//19 244//19 243//19
f 243//20 244//20 246//20 245//20
f 76//6 74//6 248//6 102//6 100//6 98//6 96//6 94//6 92//6 90//6 88//6 86//6 84//6 82//6 80//6 78//6
f 247//21 104//21 220//21 217//21
f 245//22 246//22 104//22 247//22
f 73//5 75//5 77//5 79//5 81//5 83//5 85//5 87//5 89//5 91//5 93//5 95//5 97//5 99//5 101//5 103//5
f 249//7 252//7 251//7 250//7
f 250//8 251//8 254//8 253//8
f 253//9 254//9 256//9 255//9
f 255//10 256//10 258//10 257//10
f 257//11 258//11 260//11 259//11
f 259//12 260//12 262//12 261//12
f 261//13 262//13 264//13 263//13
f 263//14 264//14 266//14 265//14
f 265//15 266//15 268//15 267//15
f 267//16 268//16 270//16 269//16
f 269//17 270//17 272//17 271//17
f 271//18 272//18 274//18 273//18
f 273//19 274//19 276//19 275//19
f 275//20 276//20 278//20 277//20
f 108//6 106//6 280//6 134//6 132//6 130//6 128//6 126//6 124//6 122//6 120//6 118//6 116//6 114//6 112//6 110//6
f 279//21 136//21 252//21 249//21
f 277//22 278//22 136//22 279//22
f 105//5 107//5 109//5 111//5 113//5 115//5 117//5 119//5 121//5 123//5 125//5 127//5 129//5 131//5 133//5 135//5
