# Blender v2.75 (sub 0) OBJ File: 'wash_collider.blend'
# www.blender.org
o Cube_Cube.008
v 1.000000 0.800000 -0.800000
v -0.900000 -0.700000 -0.800000
v -0.900000 0.700000 -0.800000
v -0.900000 -0.700000 -0.900000
v -0.900000 0.700000 -0.900000
v 0.900000 -0.700000 -0.800000
v 0.900000 0.700000 -0.800000
v 0.900000 -0.700000 -0.900000
v 0.900000 0.700000 -0.900000
v -0.600000 1.000000 -0.600000
v 1.000000 0.800000 -1.000000
v 1.000000 1.000000 1.000000
v -1.000000 1.000000 1.000000
v -1.000000 0.800000 -1.000000
v -1.000000 1.000000 -1.000000
v -0.600000 1.000000 0.600000
v 0.600000 1.000000 0.600000
v 0.600000 1.000000 -0.600000
v 1.000000 1.000000 -1.000000
v -1.000000 0.800000 -0.800000
v -1.000000 -1.000000 1.000000
v 1.000000 -1.000000 -0.800000
v -0.600000 0.400000 0.600000
v -1.000000 -1.000000 -0.800000
v -0.600000 0.400000 -0.600000
v 1.000000 -1.000000 1.000000
v 0.600000 0.400000 0.600000
v 0.600000 0.400000 -0.600000
vn -1.000000 0.000000 0.000000
vn 0.000000 0.000000 -1.000000
vn 1.000000 0.000000 0.000000
vn 0.000000 -1.000000 0.000000
vn 0.000000 1.000000 0.000000
vn 0.000000 0.000000 1.000000
s off
f 5//1 4//1 2//1
f 9//2 8//2 4//2
f 7//3 6//3 8//3
f 1//2 22//2 6//2
f 4//4 8//4 6//4
f 9//5 5//5 3//5
f 28//5 25//5 23//5
f 24//2 2//2 6//2
f 19//2 11//2 14//2
f 13//1 15//1 20//1
f 27//2 23//2 16//2
f 28//6 18//6 10//6
f 19//5 18//5 17//5
f 18//1 28//1 27//1
f 1//3 11//3 19//3
f 22//4 26//4 21//4
f 2//2 24//2 20//2
f 25//3 10//3 16//3
f 14//4 11//4 1//4
f 3//2 20//2 1//2
f 10//5 15//5 13//5
f 21//6 26//6 12//6
f 19//5 15//5 10//5
f 17//5 16//5 13//5
f 3//1 5//1 2//1
f 5//2 9//2 4//2
f 9//3 7//3 8//3
f 7//2 1//2 6//2
f 2//4 4//4 6//4
f 7//5 9//5 3//5
f 27//5 28//5 23//5
f 22//2 24//2 6//2
f 15//2 19//2 14//2
f 20//1 21//1 13//1
f 15//1 14//1 20//1
f 20//1 24//1 21//1
f 17//2 27//2 16//2
f 25//6 28//6 10//6
f 12//5 19//5 17//5
f 17//1 18//1 27//1
f 1//3 26//3 22//3
f 1//3 19//3 12//3
f 12//3 26//3 1//3
f 24//4 22//4 21//4
f 3//2 2//2 20//2
f 23//3 25//3 16//3
f 20//4 14//4 1//4
f 7//2 3//2 1//2
f 16//5 10//5 13//5
f 13//6 21//6 12//6
f 18//5 19//5 10//5
f 12//5 17//5 13//5
o Cube.008_Cube.007
v -1.000000 -1.000000 -0.600000
v -1.000000 0.800000 -0.600000
v -1.000000 -1.000000 -0.800000
v -1.000000 0.800000 -0.800000
v 1.000000 -1.000000 -0.600000
v 1.000000 0.800000 -0.600000
v 1.000000 -1.000000 -0.800000
v 1.000000 0.800000 -0.800000
vn -1.000000 0.000000 0.000000
vn 0.000000 0.000000 -1.000000
vn 1.000000 0.000000 0.000000
vn 0.000000 0.000000 1.000000
vn 0.000000 -1.000000 0.000000
vn 0.000000 1.000000 0.000000
s off
f 32//7 31//7 29//7
f 36//8 35//8 31//8
f 34//9 33//9 35//9
f 30//10 29//10 33//10
f 31//11 35//11 33//11
f 36//12 32//12 30//12
f 30//7 32//7 29//7
f 32//8 36//8 31//8
f 36//9 34//9 35//9
f 34//10 30//10 33//10
f 29//11 31//11 33//11
f 34//12 36//12 30//12
o Cube.007
v -1.000000 -1.000000 1.000000
v -1.000000 0.800000 1.000000
v -1.000000 -1.000000 0.600000
v -1.000000 0.800000 0.600000
v 1.000000 -1.000000 1.000000
v 1.000000 0.800000 1.000000
v 1.000000 -1.000000 0.600000
v 1.000000 0.800000 0.600000
vn -1.000000 0.000000 0.000000
vn 0.000000 0.000000 -1.000000
vn 1.000000 0.000000 0.000000
vn 0.000000 0.000000 1.000000
vn 0.000000 -1.000000 0.000000
vn 0.000000 1.000000 0.000000
s off
f 40//13 39//13 37//13
f 44//14 43//14 39//14
f 42//15 41//15 43//15
f 38//16 37//16 41//16
f 39//17 43//17 41//17
f 44//18 40//18 38//18
f 38//13 40//13 37//13
f 40//14 44//14 39//14
f 44//15 42//15 43//15
f 42//16 38//16 41//16
f 37//17 39//17 41//17
f 42//18 44//18 38//18
o Cube.004_Cube.003
v -1.000000 -1.000000 1.000000
v -1.000000 0.800000 1.000000
v -1.000000 -1.000000 -0.800000
v -1.000000 0.800000 -0.800000
v -0.600000 -1.000000 1.000000
v -0.600000 0.800000 1.000000
v -0.600000 -1.000000 -0.800000
v -0.600000 0.800000 -0.800000
vn -1.000000 0.000000 0.000000
vn 0.000000 0.000000 -1.000000
vn 1.000000 0.000000 0.000000
vn 0.000000 0.000000 1.000000
vn 0.000000 -1.000000 0.000000
vn 0.000000 1.000000 0.000000
s off
f 48//19 47//19 45//19
f 52//20 51//20 47//20
f 50//21 49//21 51//21
f 46//22 45//22 49//22
f 47//23 51//23 49//23
f 52//24 48//24 46//24
f 46//19 48//19 45//19
f 48//20 52//20 47//20
f 52//21 50//21 51//21
f 50//22 46//22 49//22
f 45//23 47//23 49//23
f 50//24 52//24 46//24
o Cube.006
v 0.600000 0.800000 1.000000
v 0.600000 1.000000 1.000000
v 0.600000 0.800000 -1.000000
v 0.600000 1.000000 -1.000000
v 1.000000 0.800000 1.000000
v 1.000000 1.000000 1.000000
v 1.000000 0.800000 -1.000000
v 1.000000 1.000000 -1.000000
vn -1.000000 0.000000 0.000000
vn 0.000000 0.000000 -1.000000
vn 1.000000 0.000000 0.000000
vn 0.000000 0.000000 1.000000
vn 0.000000 -1.000000 0.000000
vn 0.000000 1.000000 0.000000
s off
f 56//25 55//25 53//25
f 60//26 59//26 55//26
f 58//27 57//27 59//27
f 54//28 53//28 57//28
f 55//29 59//29 57//29
f 60//30 56//30 54//30
f 54//25 56//25 53//25
f 56//26 60//26 55//26
f 60//27 58//27 59//27
f 58//28 54//28 57//28
f 53//29 55//29 57//29
f 58//30 60//30 54//30
o Cube.003_Cube.006
v -1.000000 0.800000 1.000000
v -1.000000 1.000000 1.000000
v -1.000000 0.800000 -1.000000
v -1.000000 1.000000 -1.000000
v -0.600000 0.800000 1.000000
v -0.600000 1.000000 1.000000
v -0.600000 0.800000 -1.000000
v -0.600000 1.000000 -1.000000
vn -1.000000 0.000000 0.000000
vn 0.000000 0.000000 -1.000000
vn 1.000000 0.000000 0.000000
vn 0.000000 0.000000 1.000000
vn 0.000000 -1.000000 0.000000
vn 0.000000 1.000000 0.000000
s off
f 64//31 63//31 61//31
f 68//32 67//32 63//32
f 66//33 65//33 67//33
f 62//34 61//34 65//34
f 63//35 67//35 65//35
f 68//36 64//36 62//36
f 62//31 64//31 61//31
f 64//32 68//32 63//32
f 68//33 66//33 67//33
f 66//34 62//34 65//34
f 61//35 63//35 65//35
f 66//36 68//36 62//36
o Cube.001_Cube.006
v -1.000000 0.800000 1.000000
v -1.000000 1.000000 1.000000
v -1.000000 0.800000 0.600000
v -1.000000 1.000000 0.600000
v 1.000000 0.800000 1.000000
v 1.000000 1.000000 1.000000
v 1.000000 0.800000 0.600000
v 1.000000 1.000000 0.600000
vn -1.000000 0.000000 0.000000
vn 0.000000 0.000000 -1.000000
vn 1.000000 0.000000 0.000000
vn 0.000000 0.000000 1.000000
vn 0.000000 -1.000000 0.000000
vn 0.000000 1.000000 0.000000
s off
f 72//37 71//37 69//37
f 76//38 75//38 71//38
f 74//39 73//39 75//39
f 70//40 69//40 73//40
f 71//41 75//41 73//41
f 76//42 72//42 70//42
f 70//37 72//37 69//37
f 72//38 76//38 71//38
f 76//39 74//39 75//39
f 74//40 70//40 73//40
f 69//41 71//41 73//41
f 74//42 76//42 70//42
o Cube.000_Cube.006
v -1.000000 0.800000 -0.600000
v -1.000000 1.000000 -0.600000
v -1.000000 0.800000 -1.000000
v -1.000000 1.000000 -1.000000
v 1.000000 0.800000 -0.600000
v 1.000000 1.000000 -0.600000
v 1.000000 0.800000 -1.000000
v 1.000000 1.000000 -1.000000
vn -1.000000 0.000000 0.000000
vn 0.000000 0.000000 -1.000000
vn 1.000000 0.000000 0.000000
vn 0.000000 0.000000 1.000000
vn 0.000000 -1.000000 0.000000
vn 0.000000 1.000000 0.000000
s off
f 80//43 79//43 77//43
f 84//44 83//44 79//44
f 82//45 81//45 83//45
f 78//46 77//46 81//46
f 79//47 83//47 81//47
f 84//48 80//48 78//48
f 78//43 80//43 77//43
f 80//44 84//44 79//44
f 84//45 82//45 83//45
f 82//46 78//46 81//46
f 77//47 79//47 81//47
f 82//48 84//48 78//48
o Cube.005
v -0.900000 -0.700000 -0.700000
v -0.900000 0.700000 -0.700000
v -0.900000 -0.700000 -0.900000
v -0.900000 0.700000 -0.900000
v 0.900000 -0.700000 -0.700000
v 0.900000 0.700000 -0.700000
v 0.900000 -0.700000 -0.900000
v 0.900000 0.700000 -0.900000
vn -1.000000 0.000000 0.000000
vn 0.000000 0.000000 -1.000000
vn 1.000000 0.000000 0.000000
vn 0.000000 0.000000 1.000000
vn 0.000000 -1.000000 0.000000
vn 0.000000 1.000000 0.000000
s off
f 88//49 87//49 85//49
f 92//50 91//50 87//50
f 90//51 89//51 91//51
f 86//52 85//52 89//52
f 87//53 91//53 89//53
f 92//54 88//54 86//54
f 86//49 88//49 85//49
f 88//50 92//50 87//50
f 92//51 90//51 91//51
f 90//52 86//52 89//52
f 85//53 87//53 89//53
f 90//54 92//54 86//54
o Cube.002_Cube.003
v 0.600000 -1.000000 1.000000
v 0.600000 0.800000 1.000000
v 0.600000 -1.000000 -0.800000
v 0.600000 0.800000 -0.800000
v 1.000000 -1.000000 1.000000
v 1.000000 0.800000 1.000000
v 1.000000 -1.000000 -0.800000
v 1.000000 0.800000 -0.800000
vn -1.000000 0.000000 0.000000
vn 0.000000 0.000000 -1.000000
vn 1.000000 0.000000 0.000000
vn 0.000000 0.000000 1.000000
vn 0.000000 -1.000000 0.000000
vn 0.000000 1.000000 0.000000
s off
f 96//55 95//55 93//55
f 100//56 99//56 95//56
f 98//57 97//57 99//57
f 94//58 93//58 97//58
f 95//59 99//59 97//59
f 100//60 96//60 94//60
f 94//55 96//55 93//55
f 96//56 100//56 95//56
f 100//57 98//57 99//57
f 98//58 94//58 97//58
f 93//59 95//59 97//59
f 98//60 100//60 94//60
